<svg width="1500" height="750" viewBox="0 0 1500 750" fill="none" xmlns="http://www.w3.org/2000/svg">
<path d="M315.405 237H270V429.146C270 471.594 304.849 506.005 347.838 506.005H380.27V454.766H315.405V237Z" fill="black"/>
<path d="M574.865 237H558.649L493.784 313.859V329.871H529.459V429.146C529.459 471.594 564.309 506.005 607.297 506.005H639.73V454.766H574.865V329.871H636.486V281.834H600.811L574.865 301.049V237Z" fill="black"/>
<path d="M419.189 329.871H464.595V506.005H419.189V329.871Z" fill="black"/>
<path d="M678.649 281.834H694.865L720.811 301.049L746.757 281.834H795.405V329.871H724.054V506.005H678.649V281.834Z" fill="black"/>
<path d="M441.892 237L473.998 268.703L441.892 300.405L409.785 268.703L441.892 237Z" fill="black"/>
<path d="M1074.32 281.834H1022.43L1100.27 393.92L1022.43 506.005H1074.32L1126.22 431.281L1178.11 506.005H1230L1136.59 371.502H1167.73L1230 281.834H1178.11L1126.22 356.558L1074.32 281.834Z" fill="black"/>
<path d="M912.162 512.41C959.429 512.41 999.749 480.454 1015.43 435.551H966.704C954.861 457.139 934.216 470.778 912.162 470.778C878.044 470.778 847.297 438.136 847.297 393.92C847.297 349.703 878.044 317.061 912.162 317.061C940.2 317.061 965.961 339.106 974.253 371.502H860.27L886.216 409.932H1021.43C1022.09 404.695 1022.43 399.35 1022.43 393.92C1022.43 328.479 973.063 275.429 912.162 275.429C851.262 275.429 801.892 328.479 801.892 393.92C801.892 459.36 851.262 512.41 912.162 512.41Z" fill="black"/>
</svg>
