<svg width="750" height="750" viewBox="0 0 750 750" fill="none" xmlns="http://www.w3.org/2000/svg">
<path d="M534.355 115H215.645C160.06 115 115 160.06 115 215.645V534.355C115 589.94 160.06 635 215.645 635H534.355C589.94 635 635 589.94 635 534.355V215.645C635 160.06 589.94 115 534.355 115Z" fill="#FFA800"/>
<path d="M534.355 115H215.645C160.06 115 115 160.06 115 215.645V534.355C115 589.94 160.06 635 215.645 635H534.355C589.94 635 635 589.94 635 534.355V215.645C635 160.06 589.94 115 534.355 115Z" fill="url(#paint0_linear)"/>
<path d="M395 370.995C395 382.039 386.048 390.986 375 390.986C363.952 390.986 355 382.039 355 370.995V115H275V370.995C275 426.223 319.768 471 375 471C430.225 471 475 426.223 475 370.995V115H395V370.995Z" fill="#0F1014"/>
<defs>
<linearGradient id="paint0_linear" x1="375" y1="115" x2="375" y2="635" gradientUnits="userSpaceOnUse">
<stop stop-color="#FED20F"/>
<stop offset="1" stop-color="#FED20F" stop-opacity="0"/>
</linearGradient>
</defs>
</svg>
