<?xml version="1.0" encoding="UTF-8"?>
<svg width="24px" height="24px" viewBox="0 0 24 24" version="1.1" xmlns="http://www.w3.org/2000/svg" xmlns:xlink="http://www.w3.org/1999/xlink">
    <!-- Generator: Sketch 53.2 (72643) - https://sketchapp.com -->
    <title>ada</title>
    <desc>Created with Sketch.</desc>
    <g id="ada" stroke="none" stroke-width="1" fill="none" fill-rule="evenodd">
        <path d="M12,0 C5.373,0 0,5.373 0,12 C0,18.628 5.373,24 12,24 C18.628,24 24,18.628 24,12 C24,5.373 18.628,0 12,0 Z M2.091,12.291 C1.909,12.071 2.018,11.73 2.267,11.617 C2.569,11.485 2.943,11.747 2.874,12.083 C2.858,12.462 2.297,12.608 2.091,12.291 Z M19.19,7.186 C19.533,6.92 20.099,7.226 20.059,7.659 C20.082,8.054 19.592,8.352 19.252,8.148 C18.876,7.979 18.838,7.402 19.19,7.186 Z M17.493,9.273 C17.527,9.878 16.763,10.305 16.268,9.95 C15.754,9.655 15.794,8.822 16.328,8.571 C16.825,8.281 17.515,8.703 17.493,9.273 Z M15.923,13.119 C15.297,13.56 14.326,13.328 13.981,12.639 C13.563,11.926 13.983,10.918 14.778,10.701 C15.343,10.539 16.007,10.757 16.311,11.272 C16.713,11.861 16.521,12.739 15.923,13.119 Z M16.588,3.315 C16.897,3.164 17.18,3.447 17.226,3.74 C17.161,3.99 16.952,4.219 16.669,4.147 C16.255,4.097 16.19,3.446 16.588,3.315 Z M14.891,5.613 C15.088,5.104 15.889,5.089 16.114,5.584 C16.336,5.969 16.063,6.447 15.667,6.578 C15.142,6.676 14.644,6.109 14.891,5.613 Z M14.713,8.517 C15.138,9.134 14.912,10.074 14.252,10.428 C13.567,10.846 12.568,10.491 12.315,9.727 C12.028,9.042 12.446,8.186 13.152,7.972 C13.717,7.769 14.39,8.013 14.713,8.517 Z M11.755,2.815 C12.191,2.588 12.723,3.115 12.491,3.551 C12.357,3.906 11.847,4 11.586,3.73 C11.31,3.47 11.4,2.956 11.755,2.815 Z M12,5.756 C12.276,5.811 12.576,5.929 12.695,6.207 C12.915,6.591 12.719,7.119 12.321,7.295 C12.139,7.397 11.924,7.359 11.725,7.347 C11.422,7.198 11.166,6.906 11.19,6.549 C11.186,6.112 11.584,5.786 12,5.756 Z M9.829,8.04 C10.456,7.744 11.301,7.992 11.604,8.634 C11.96,9.259 11.685,10.129 11.047,10.451 C10.409,10.814 9.508,10.539 9.199,9.868 C8.852,9.22 9.16,8.339 9.829,8.04 Z M9.708,13.032 C9.085,13.611 7.938,13.378 7.607,12.589 C7.226,11.865 7.689,10.894 8.477,10.704 C9.058,10.544 9.723,10.818 10.008,11.352 C10.321,11.89 10.194,12.638 9.708,13.032 Z M8.133,5.316 C8.576,5.036 9.207,5.453 9.139,5.967 C9.116,6.486 8.427,6.787 8.037,6.436 C7.661,6.161 7.719,5.528 8.133,5.316 Z M7.066,3.32 C7.331,3.211 7.666,3.454 7.639,3.742 C7.667,4.055 7.284,4.286 7.014,4.137 C6.657,3.999 6.698,3.419 7.066,3.32 Z M4.218,7.187 C4.623,6.938 5.168,7.392 5.015,7.832 C4.931,8.212 4.42,8.367 4.128,8.124 C3.816,7.896 3.865,7.35 4.218,7.187 Z M5.051,16.437 C5.006,16.827 4.515,17.05 4.191,16.829 C3.844,16.628 3.857,16.056 4.216,15.873 C4.593,15.622 5.136,15.996 5.051,16.437 Z M5.593,12.235 C5.469,12.689 4.829,12.857 4.499,12.522 C4.112,12.208 4.255,11.509 4.737,11.373 C5.24,11.183 5.796,11.737 5.593,12.235 Z M7.317,8.483 C7.732,8.533 8.063,8.855 8.108,9.275 C8.081,9.69 7.76,10.096 7.319,10.094 C6.835,10.136 6.41,9.654 6.503,9.178 C6.551,8.773 6.932,8.51 7.317,8.483 Z M7.196,13.935 C7.754,13.84 8.278,14.463 8.051,14.993 C7.885,15.558 7.063,15.712 6.699,15.25 C6.274,14.807 6.592,13.997 7.196,13.935 Z M7.473,20.663 C7.161,20.873 6.8,20.585 6.772,20.254 C6.849,20.023 7.034,19.794 7.306,19.854 C7.702,19.882 7.82,20.479 7.473,20.663 Z M8.417,18.785 C8.101,18.778 7.895,18.495 7.794,18.225 C7.799,17.932 7.92,17.605 8.216,17.494 C8.636,17.273 9.201,17.655 9.163,18.125 C9.176,18.513 8.799,18.842 8.417,18.785 Z M10.17,16.079 C9.541,15.977 9.047,15.371 9.067,14.736 C9.065,14.128 9.524,13.563 10.118,13.434 C10.913,13.227 11.768,13.89 11.773,14.709 C11.825,15.536 10.984,16.269 10.17,16.079 Z M12.462,20.96 C12.343,21.101 12.19,21.243 11.991,21.237 C11.622,21.28 11.29,20.863 11.428,20.519 C11.504,20.178 11.946,20.012 12.237,20.193 C12.429,20.276 12.486,20.491 12.535,20.674 C12.509,20.769 12.486,20.865 12.462,20.96 Z M11.52,18.101 C10.984,17.791 11.073,16.879 11.668,16.689 C12.162,16.471 12.791,16.901 12.744,17.445 C12.781,18.046 12.003,18.462 11.52,18.101 Z M13.372,16.079 C12.622,15.982 12.069,15.158 12.278,14.431 C12.384,13.946 12.789,13.552 13.268,13.432 C14.075,13.206 14.956,13.881 14.942,14.719 C14.985,15.531 14.169,16.24 13.372,16.079 Z M15.128,18.639 C14.738,18.368 14.786,17.717 15.208,17.502 C15.641,17.234 16.255,17.619 16.214,18.122 C16.225,18.647 15.531,18.984 15.128,18.639 Z M16.424,20.507 C16.232,20.215 16.458,19.865 16.771,19.799 C17.022,19.85 17.288,20.039 17.235,20.33 C17.198,20.724 16.621,20.845 16.424,20.507 Z M16.281,15.381 C15.73,15.069 15.83,14.152 16.432,13.96 C16.93,13.752 17.541,14.182 17.503,14.723 C17.522,15.318 16.768,15.728 16.281,15.381 Z M18.352,12.095 C18.338,11.679 18.642,11.31 19.069,11.287 C19.413,11.341 19.748,11.619 19.72,11.994 C19.752,12.489 19.156,12.825 18.734,12.592 C18.537,12.492 18.435,12.289 18.352,12.095 Z M19.937,16.698 C19.694,17.006 19.145,16.918 19.013,16.55 C18.818,16.187 19.172,15.705 19.575,15.772 C19.776,15.769 19.916,15.927 20.045,16.06 C20.072,16.275 20.116,16.532 19.937,16.698 Z M21.535,12.413 C21.106,12.452 20.967,11.798 21.321,11.609 C21.534,11.458 21.875,11.567 21.96,11.815 C22.103,12.087 21.841,12.459 21.535,12.413 Z" id="Shape-Copy-3" fill="#8A8A8F" fill-rule="nonzero"></path>
    </g>
</svg>