<?xml version="1.0" encoding="UTF-8"?>
<svg width="24px" height="24px" viewBox="0 0 24 24" version="1.1" xmlns="http://www.w3.org/2000/svg" xmlns:xlink="http://www.w3.org/1999/xlink">
    <!-- Generator: Sketch 53.2 (72643) - https://sketchapp.com -->
    <title>AURA</title>
    <desc>Created with Sketch.</desc>
    <g id="AURA" stroke="none" stroke-width="1" fill="none" fill-rule="evenodd">
        <path d="M12,24 C5.372583,24 0,18.627417 0,12 C0,5.372583 5.372583,0 12,0 C18.627417,0 24,5.372583 24,12 C24,18.627417 18.627417,24 12,24 Z M15.3059264,8.78532526 C15.6948153,9.67421415 16.6303709,10.6564364 17.6181487,11.7197697 C18.9637042,13.1642141 20.5170375,14.8308808 20.8659264,16.5286586 C20.8688998,16.5459595 20.8786877,16.5613451 20.8930983,16.5713698 C20.9075089,16.5813946 20.9253381,16.5852209 20.9425931,16.5819919 C20.9597733,16.5793885 20.9750821,16.5697197 20.9848153,16.5553253 C22.4237042,14.6275475 21.831482,13.3697697 21.2137042,12.0508808 C20.5959264,10.7319919 19.8903709,9.20088081 21.8492598,7.47532526 C21.6837033,7.07069975 21.4891224,6.67856736 21.2670375,6.30199193 C20.5293849,5.07539157 19.5253616,4.03035677 18.3292598,3.24421415 C16.1303709,4.63865859 14.4103709,6.79199193 15.3059264,8.78532526 Z M1.57481533,12.3908808 C1.74703755,12.8542141 3.18037088,16.1686586 9.45037088,16.2642141 C11.7837042,16.2997697 13.7748153,17.2308808 14.6437042,18.6953253 C15.0018171,19.2789449 15.1579927,19.9641655 15.0881487,20.6453253 C15.0898699,20.6699409 15.1082524,20.6901616 15.1325931,20.6942141 C15.2049873,20.691779 15.2751663,20.668643 15.3348153,20.6275475 C16.0459264,20.183103 16.5837042,19.183103 16.1125931,17.9008808 C15.6681487,16.5108808 14.2725931,15.2542141 12.2125931,14.283103 L12.1859264,14.283103 C11.6525931,14.0097697 11.0748153,13.7497697 10.4825931,13.5153253 C10.3237042,13.4542141 10.1781487,13.383103 10.0381487,13.3164364 L9.99370421,13.3164364 C8.07925977,12.2497697 6.96703755,10.7708808 6.68592644,8.90532526 L6.68592644,8.87865859 C6.47814866,6.90643637 7.24148199,4.51421415 8.73703755,2.46310304 C8.92592644,2.21199193 9.12925977,1.97310304 9.3325931,1.74865859 C8.35050586,1.95526428 7.40259204,2.29979017 6.51703755,2.77199193 C5.00099825,3.57865666 3.72672069,4.77393898 2.82481533,6.23532526 C1.94238914,7.76376413 1.48508788,9.50051145 1.50037088,11.2653253 C1.5225931,11.6364364 1.54037088,12.0375475 1.57481533,12.3908808 Z M12.1470375,1.51421415 C11.8690645,1.5223084 11.5920431,1.55053042 11.3181487,1.59865859 C9.42925977,3.07199193 7.66037088,6.26532526 7.99148199,8.82088081 C8.19814866,10.4142141 9.19592644,11.5786586 10.9603709,12.2797697 C16.5325931,14.4819919 17.5081487,17.2042141 17.5748153,18.6253253 C17.5935847,18.9207974 17.5760464,19.2174562 17.5225931,19.5086586 C17.518227,19.5256075 17.5208197,19.5435987 17.5297938,19.5586251 C17.538768,19.5736516 17.5533783,19.5844655 17.5703709,19.5886586 C17.588754,19.593337 17.6082646,19.5896788 17.6237042,19.5786586 C18.057297,19.3184218 18.4690226,19.0233765 18.8548153,18.6964364 C20.521482,17.0419919 19.0581487,15.2064364 16.6492598,12.5986586 C15.581482,11.4519919 14.5748153,10.3708808 14.0937042,9.30754748 C13.3092598,7.54310304 13.6837042,4.8197697 17.0281487,2.50865859 C15.8275967,1.95392798 14.5385729,1.61540407 13.2203709,1.50865859 L12.7759264,1.50865859 C12.5664332,1.49548818 12.3562655,1.49734479 12.1470375,1.51421415 Z" id="Combined-Shape" fill="#8A8A8F"></path>
    </g>
</svg>