<?xml version="1.0" encoding="UTF-8"?>
<svg width="24px" height="24px" viewBox="0 0 24 24" version="1.1" xmlns="http://www.w3.org/2000/svg" xmlns:xlink="http://www.w3.org/1999/xlink">
    <!-- Generator: Sketch 53.2 (72643) - https://sketchapp.com -->
    <title>bnb</title>
    <desc>Created with Sketch.</desc>
    <g id="bnb" stroke="none" stroke-width="1" fill="none" fill-rule="evenodd">
        <g fill="#8A8A8F" fill-rule="nonzero" id="Shape">
            <path d="M12,24 C5.37225,24 0,18.62775 0,12 C0,5.37225 5.37225,0 12,0 C18.62775,0 24,5.37225 24,12 C24,18.62775 18.62775,24 12,24 Z M9.087,10.803 L12,7.89 L14.9145,10.8045 L16.6095,9.1095 L12,4.5 L7.392,9.108 L9.087,10.803 Z M4.5,12 L6.195,13.695 L7.89,12 L6.195,10.305 L4.5,12 Z M9.087,13.197 L7.38975,14.88975 L7.392,14.892 L12,19.5 L16.6095,14.8905 L16.6095,14.88975 L14.9145,13.19475 L12,16.11 L9.087,13.197 Z M16.11,12 L17.805,13.695 L19.5,12 L17.805,10.305 L16.11,12 Z M13.719,11.9985 L13.71975,11.9985 L12,10.2795 L10.72875,11.55 L10.5825,11.69625 L10.28175,11.99775 L10.27875,12 L10.28175,12.00225 L11.99925,13.7205 L13.71975,12.00075 L13.7205,12 L13.719,11.99925 L13.719,11.9985 Z"></path>
        </g>
    </g>
</svg>