<?xml version="1.0" encoding="UTF-8"?>
<svg width="24px" height="24px" viewBox="0 0 24 24" version="1.1" xmlns="http://www.w3.org/2000/svg" xmlns:xlink="http://www.w3.org/1999/xlink">
    <!-- Generator: Sketch 53.2 (72643) - https://sketchapp.com -->
    <title>bnt</title>
    <desc>Created with Sketch.</desc>
    <g id="bnt" stroke="none" stroke-width="1" fill="none" fill-rule="evenodd">
        <g id="bancor-bnt-seeklogo.com" fill="#8A8A8F" fill-rule="nonzero">
            <path d="M12,24 C5.372583,24 0,18.627417 0,12 C0,5.372583 5.372583,0 12,0 C18.627417,0 24,5.372583 24,12 C24,18.627417 18.627417,24 12,24 Z M11.94,4.40964 L8.5512,6.39528 L11.94,8.38092 L15.3924,6.39528 L11.94,4.40964 Z M12.49728,15.01056 L12.49728,18.98172 L17.1,16.356 L17.1,12.384 L12.49728,15.01056 Z M15.9492,7.644 L12.4968,9.62964 L12.4968,13.60164 L15.9492,11.616 L15.9492,7.644 Z M7.63824,11.616 L11.09064,13.60164 L11.09064,9.62964 L7.63824,7.644 L7.63824,11.616 Z M7.63824,16.9962 L11.09064,18.98184 L11.09064,15.01056 L7.63824,13.02492 L7.63824,16.99608 L7.63824,16.9962 Z" id="Combined-Shape"></path>
        </g>
    </g>
</svg>