<?xml version="1.0" encoding="UTF-8"?>
<svg width="24px" height="24px" viewBox="0 0 24 24" version="1.1" xmlns="http://www.w3.org/2000/svg" xmlns:xlink="http://www.w3.org/1999/xlink">
    <!-- Generator: Sketch 53.2 (72643) - https://sketchapp.com -->
    <title>btc</title>
    <desc>Created with Sketch.</desc>
    <g id="btc" stroke="none" stroke-width="1" fill="none" fill-rule="evenodd">
        <path d="M13.342,13.038 C13.608,13.197 13.79,13.399 13.9,13.641 C14.001,13.879 14.023,14.148 13.969,14.455 C13.899,14.819 13.741,15.1 13.493,15.328 C13.241,15.547 12.965,15.672 12.659,15.698 C12.354,15.727 11.983,15.698 11.541,15.622 L10.786,15.476 C10.534,15.433 10.384,15.385 10.33,15.35 C10.279,15.314 10.247,15.259 10.235,15.184 C10.229,15.133 10.252,14.936 10.302,14.624 L10.721,12.387 L12.063,12.635 C12.652,12.745 13.075,12.876 13.342,13.038 Z M13.965,8.918 C14.211,9.057 14.381,9.228 14.481,9.442 C14.583,9.66 14.608,9.904 14.555,10.176 C14.506,10.442 14.386,10.661 14.211,10.831 C14.028,11.004 13.789,11.114 13.487,11.154 C13.183,11.202 12.732,11.172 12.141,11.063 L11.003,10.849 L11.476,8.327 L12.61,8.539 C13.277,8.662 13.727,8.791 13.965,8.918 Z M12.027,0.062 C18.654,0.061 24.029,5.432 24.029,12.063 C24.029,18.69 18.654,24.062 12.027,24.062 C5.401,24.062 0.028,18.69 0.028,12.063 C0.028,5.431 5.402,0.062 12.027,0.062 Z M17.134,10.264 C17.225,9.796 17.171,9.336 16.966,8.89 C16.76,8.445 16.419,8.073 15.949,7.761 C15.769,7.638 15.539,7.535 15.289,7.436 L15.63,5.614 L13.878,5.287 L13.559,6.989 L12.433,6.777 L12.753,5.077 L10.999,4.746 L10.676,6.456 L8.001,5.952 L7.734,7.383 L8.144,7.466 C8.415,7.508 8.599,7.572 8.683,7.643 C8.771,7.706 8.826,7.784 8.85,7.877 C8.873,7.971 8.859,8.173 8.799,8.476 L7.719,14.249 C7.665,14.549 7.611,14.742 7.552,14.82 C7.497,14.895 7.417,14.951 7.311,14.978 C7.204,15.013 7.018,15.002 6.746,14.944 L6.334,14.872 L6.068,16.303 L8.739,16.804 L8.423,18.511 L10.176,18.839 L10.493,17.136 L11.493,17.321 C11.537,17.329 11.578,17.329 11.622,17.345 L11.303,19.052 L13.056,19.375 L13.405,17.529 C13.705,17.525 13.979,17.498 14.217,17.455 C14.868,17.329 15.403,17.064 15.821,16.654 C16.236,16.263 16.498,15.787 16.601,15.238 C16.686,14.774 16.654,14.34 16.508,13.926 C16.358,13.508 16.116,13.165 15.785,12.889 C15.557,12.691 15.209,12.483 14.751,12.273 C15.229,12.204 15.629,12.074 15.948,11.894 C16.269,11.714 16.531,11.476 16.733,11.201 C16.937,10.915 17.072,10.603 17.134,10.264 Z" id="Combined-Shape" fill="#8A8A8F" fill-rule="nonzero"></path>
    </g>
</svg>