<?xml version="1.0" encoding="UTF-8"?>
<svg width="24px" height="24px" viewBox="0 0 24 24" version="1.1" xmlns="http://www.w3.org/2000/svg" xmlns:xlink="http://www.w3.org/1999/xlink">
    <!-- Generator: Sketch 53.2 (72643) - https://sketchapp.com -->
    <title>BTC_lightning</title>
    <desc>Created with Sketch.</desc>
    <g id="BTC_lightning" stroke="none" stroke-width="1" fill="none" fill-rule="evenodd">
        <path d="M17.3158908,1.3002234 L15,9.08708945 L18,9.08708945 L15,19 L22,7.06967156 L19,7.06967156 L20.6491359,3.7426753 C22.7246893,5.89972913 24.001,8.83176908 24.001,12.063 C24.001,18.69 18.626,24.062 11.999,24.062 C5.373,24.062 1.04805054e-13,18.69 1.04805054e-13,12.063 C1.04805054e-13,5.431 5.374,0.062 11.999,0.062 C13.9080486,0.0617119287 15.7131998,0.507219699 17.3158908,1.3002234 Z M10.314,13.038 C10.58,13.197 10.762,13.399 10.872,13.641 C10.973,13.879 10.995,14.148 10.941,14.455 C10.871,14.819 10.713,15.1 10.465,15.328 C10.213,15.547 9.937,15.672 9.631,15.698 C9.326,15.727 8.955,15.698 8.513,15.622 L7.758,15.476 C7.506,15.433 7.356,15.385 7.302,15.35 C7.251,15.314 7.219,15.259 7.207,15.184 C7.201,15.133 7.224,14.936 7.274,14.624 L7.693,12.387 L9.035,12.635 C9.624,12.745 10.047,12.876 10.314,13.038 Z M10.937,8.918 C11.183,9.057 11.353,9.228 11.453,9.442 C11.555,9.66 11.58,9.904 11.527,10.176 C11.478,10.442 11.358,10.661 11.183,10.831 C11,11.004 10.761,11.114 10.459,11.154 C10.155,11.202 9.704,11.172 9.113,11.063 L7.975,10.849 L8.448,8.327 L9.582,8.539 C10.249,8.662 10.699,8.791 10.937,8.918 Z M14.106,10.264 C14.197,9.796 14.143,9.336 13.938,8.89 C13.732,8.445 13.391,8.073 12.921,7.761 C12.741,7.638 12.511,7.535 12.261,7.436 L12.602,5.614 L10.85,5.287 L10.531,6.989 L9.405,6.777 L9.725,5.077 L7.971,4.746 L7.648,6.456 L4.973,5.952 L4.706,7.383 L5.116,7.466 C5.387,7.508 5.571,7.572 5.655,7.643 C5.743,7.706 5.798,7.784 5.822,7.877 C5.845,7.971 5.831,8.173 5.771,8.476 L4.691,14.249 C4.637,14.549 4.583,14.742 4.524,14.82 C4.469,14.895 4.389,14.951 4.283,14.978 C4.176,15.013 3.99,15.002 3.718,14.944 L3.306,14.872 L3.04,16.303 L5.711,16.804 L5.395,18.511 L7.148,18.839 L7.465,17.136 L8.465,17.321 C8.509,17.329 8.55,17.329 8.594,17.345 L8.275,19.052 L10.028,19.375 L10.377,17.529 C10.677,17.525 10.951,17.498 11.189,17.455 C11.84,17.329 12.375,17.064 12.793,16.654 C13.208,16.263 13.47,15.787 13.573,15.238 C13.658,14.774 13.626,14.34 13.48,13.926 C13.33,13.508 13.088,13.165 12.757,12.889 C12.529,12.691 12.181,12.483 11.723,12.273 C12.201,12.204 12.601,12.074 12.92,11.894 C13.241,11.714 13.503,11.476 13.705,11.201 C13.909,10.915 14.044,10.603 14.106,10.264 Z" id="Combined-Shape" fill="#8A8A8F" fill-rule="nonzero"></path>
    </g>
</svg>