<?xml version="1.0" encoding="UTF-8"?>
<svg width="24px" height="24px" viewBox="0 0 24 24" version="1.1" xmlns="http://www.w3.org/2000/svg" xmlns:xlink="http://www.w3.org/1999/xlink">
    <!-- Generator: Sketch 53.2 (72643) - https://sketchapp.com -->
    <title>dat</title>
    <desc>Created with Sketch.</desc>
    <g id="dat" stroke="none" stroke-width="1" fill="none" fill-rule="evenodd">
        <g fill="#8A8A8F" fill-rule="nonzero" id="Shape">
            <path d="M12,24 C5.37225,24 0,18.62775 0,12 C0,5.37225 5.37225,0 12,0 C18.62775,0 24,5.37225 24,12 C24,18.62775 18.62775,24 12,24 Z M15.0405,4.2045 C14.7585,4.2045 14.52225,4.2945 14.33025,4.47375 C14.15025,4.653 14.061,4.88925 14.061,5.184 L14.061,10.368 C13.155423,9.25312746 11.7922813,8.61018816 10.356,8.6205 C9.4335,8.6205 8.59575,8.8515 7.8405,9.312 C7.098,9.7725 6.50925,10.413 6.07425,11.232 C5.65125,12.03825 5.4405,12.9405 5.4405,13.9395 C5.4405,14.9385 5.67075,15.84675 6.13125,16.66575 C6.58326292,17.4632236 7.2395005,18.125933 8.0325,18.58575 C8.8515,19.04625 9.75375,19.2765 10.74,19.2765 C11.7255,19.2765 12.615,19.04625 13.4085,18.58575 C14.201224,18.1258276 14.8571936,17.4631275 15.309,16.66575 C15.783,15.84675 16.01925,14.93775 16.01925,13.9395 L16.01925,5.184 C16.01925,4.88925 15.93,4.653 15.75075,4.47375 C15.5715,4.29375 15.3345,4.2045 15.0405,4.2045 L15.0405,4.2045 Z M10.73925,17.5485 C10.0995,17.5485 9.51675,17.3955 8.99175,17.088 C8.47730305,16.7653193 8.05430326,16.3159789 7.76325,15.783 C7.46925,15.23175 7.32225,14.6175 7.32225,13.9395 C7.32225,13.2615 7.46925,12.6525 7.76325,12.1155 C8.05130334,11.5848511 8.47562499,11.1405949 8.9925,10.8285 C9.5175,10.509 10.0995,10.3485 10.74,10.3485 C11.37975,10.3485 11.955,10.509 12.46725,10.8285 C12.99225,11.136 13.40175,11.565 13.6965,12.1155 C13.9905,12.6525 14.13825,13.26075 14.13825,13.9395 C14.13825,14.61825 13.9905,15.23175 13.69575,15.78225 C13.4124428,16.3209981 12.9877422,16.7724046 12.46725,17.088 C11.95575,17.3955 11.37975,17.5485 10.73925,17.5485 L10.73925,17.5485 Z"></path>
        </g>
    </g>
</svg>