<?xml version="1.0" encoding="UTF-8"?>
<svg width="24px" height="24px" viewBox="0 0 24 24" version="1.1" xmlns="http://www.w3.org/2000/svg" xmlns:xlink="http://www.w3.org/1999/xlink">
    <!-- Generator: Sketch 53.2 (72643) - https://sketchapp.com -->
    <title>dgx</title>
    <desc>Created with Sketch.</desc>
    <g id="dgx" stroke="none" stroke-width="1" fill="none" fill-rule="evenodd">
        <g fill="#8A8A8F" fill-rule="nonzero" id="Group-2">
            <g>
                <path d="M12,24 C5.372583,24 4.97379915e-14,18.627417 4.97379915e-14,12 C4.97379915e-14,5.372583 5.372583,4.97379915e-14 12,4.97379915e-14 C18.627417,4.97379915e-14 24,5.372583 24,12 C24,18.627417 18.627417,24 12,24 Z M12.0027956,3.31982108 L3.31982108,12.0027956 L6.47665642,15.1604697 L12.0027956,9.63433044 L17.5280962,15.1604697 L20.6857702,12.0027956 L12.0027956,3.31982108 Z M11.9982003,13.3090055 L14.8380102,16.1479767 L11.9982003,18.9827544 L9.1592291,16.1479767 L11.9982003,13.3090055 Z M11.9982003,11.411885 L7.26210861,16.1479767 L11.9982003,20.8840684 L16.734292,16.1479767 L11.9982003,11.411885 Z" id="Combined-Shape"></path>
            </g>
        </g>
    </g>
</svg>