<?xml version="1.0" encoding="UTF-8"?>
<svg width="24px" height="24px" viewBox="0 0 24 24" version="1.1" xmlns="http://www.w3.org/2000/svg" xmlns:xlink="http://www.w3.org/1999/xlink">
    <!-- Generator: Sketch 53.2 (72643) - https://sketchapp.com -->
    <title>elf</title>
    <desc>Created with Sketch.</desc>
    <g id="elf" stroke="none" stroke-width="1" fill="none" fill-rule="evenodd">
        <g id="mco" fill="#8A8A8F" fill-rule="nonzero">
            <path d="M12,24 C5.37225,24 0,18.62775 0,12 C0,5.37225 5.37225,0 12,0 C18.62775,0 24,5.37225 24,12 C24,18.62775 18.62775,24 12,24 Z M12.5,7 C13.3284271,7 14,6.32842712 14,5.5 C14,4.67157288 13.3284271,4 12.5,4 C11.6715729,4 11,4.67157288 11,5.5 C11,6.32842712 11.6715729,7 12.5,7 Z M17.5,15 C19.4329966,15 21,13.4329966 21,11.5 C21,9.56700338 19.4329966,8 17.5,8 C15.5670034,8 14,9.56700338 14,11.5 C14,13.4329966 15.5670034,15 17.5,15 Z M12.5,20 C13.3284271,20 14,19.3284271 14,18.5 C14,17.6715729 13.3284271,17 12.5,17 C11.6715729,17 11,17.6715729 11,18.5 C11,19.3284271 11.6715729,20 12.5,20 Z M12.0375084,8.9299172 C11.9651708,8.9299172 11.8948426,8.9399976 11.8278634,8.95655826 L11.8271936,8.9551182 C11.2424648,9.1099244 10.7253851,9.17544702 10.1533825,8.9551182 C9.58204956,8.73478939 9.03081045,7.79227169 8.81111855,6.93615745 C8.80776959,6.93831753 8.80509042,6.93975759 8.80174146,6.94191768 C8.51841929,5.82515301 7.57803081,5 6.44876088,5 C5.0964501,5 4,6.17868715 4,7.6324253 C4,9.08688348 5.0964501,10.2648506 6.44876088,10.2648506 C6.94172806,10.2648506 7.39852646,10.1057242 7.78231748,9.83643346 L7.78633624,9.83787351 C7.78633624,9.83787351 9.16275954,9.08040322 10.0281313,9.36481459 C10.893503,9.649946 11.0475553,10.4102964 11.3081045,10.6399856 C11.3101139,10.6407056 11.312793,10.6399856 11.3141326,10.6414257 C11.4909578,10.8595944 11.7474883,11 12.0375084,11 C12.5693235,11 13,10.5363015 13,9.96459858 C13,9.39361574 12.5693235,8.9299172 12.0375084,8.9299172 Z M12.0375084,14.0700828 C12.5693235,14.0700828 13,13.6063843 13,13.0354014 C13,12.4636985 12.5693235,12 12.0375084,12 C11.7474883,12 11.4909578,12.1404056 11.3141326,12.3585743 C11.312793,12.3600144 11.3101139,12.3592944 11.3081045,12.3600144 C11.0475553,12.5897036 10.893503,13.350054 10.0281313,13.6351854 C9.16275954,13.9195968 7.78633624,13.1621265 7.78633624,13.1621265 L7.78231748,13.1635665 C7.39852646,12.8942758 6.94172806,12.7351494 6.44876088,12.7351494 C5.0964501,12.7351494 4,13.9131165 4,15.3675747 C4,16.8213129 5.0964501,18 6.44876088,18 C7.57803081,18 8.51841929,17.174847 8.80174146,16.0580823 C8.80509042,16.0602424 8.80776959,16.0616825 8.81111855,16.0638426 C9.03081045,15.2077283 9.58204956,14.2652106 10.1533825,14.0448818 C10.7253851,13.824553 11.2424648,13.8900756 11.8271936,14.0448818 L11.8278634,14.0434417 C11.8948426,14.0600024 11.9651708,14.0700828 12.0375084,14.0700828 Z" id="Combined-Shape"></path>
        </g>
    </g>
</svg>