<?xml version="1.0" encoding="UTF-8"?>
<svg width="24px" height="24px" viewBox="0 0 24 24" version="1.1" xmlns="http://www.w3.org/2000/svg" xmlns:xlink="http://www.w3.org/1999/xlink">
    <!-- Generator: Sketch 53.2 (72643) - https://sketchapp.com -->
    <title>ENJ</title>
    <desc>Created with Sketch.</desc>
    <g id="ENJ" stroke="none" stroke-width="1" fill="none" fill-rule="evenodd">
        <path d="M12,24 C5.372583,24 0,18.627417 0,12 C0,5.372583 5.372583,0 12,0 C18.627417,0 24,5.372583 24,12 C24,18.627417 18.627417,24 12,24 Z M8.3,4.95 C8.3,4.95 8.3,4.925 8.25,4.975 C10.675,3.525 13.275,2.775 16.15,3.05 C16.075,3.025 16.025,3 15.975,2.975 C15.525,2.85 15.05,2.7 14.575,2.575 C14.4,2.525 14.2,2.525 14.025,2.5 C13.6,2.45 13.15,2.375 12.725,2.35 C11.975,2.325 11.225,2.35 10.5,2.475 C10.05,2.55 9.6,2.625 9.15,2.75 C8.725,2.875 8.3,3.025 7.875,3.2 C7.25,3.45 6.625,3.775 6.075,4.175 C5.725,4.425 5.35,4.675 5.025,4.975 C4.725,5.25 4.425,5.55 4.15,5.85 C3.925,6.075 3.725,6.3 3.55,6.55 C3.325,6.875 3.1,7.225 2.9,7.575 C2.725,7.9 2.6,8.25 2.45,8.6 C2.35,8.85 2.25,9.1 2.2,9.35 C2.1,9.75 2.025,10.15 1.95,10.55 C1.9,10.875 1.85,11.2 1.85,11.525 C1.85,11.875 1.875,12.2 1.925,12.55 C1.95,12.825 2,13.125 2.075,13.425 C2.2,13.825 2.325,14.225 2.5,14.625 C2.7,15.075 2.925,15.5 3.175,15.925 C3.35,16.2 3.575,16.475 3.775,16.75 C3.875,16.9 4,17.025 4.125,17.15 C3.05,15.15 2.625,13.075 3.25,10.85 C3.275,10.875 3.275,10.925 3.275,10.95 C3.225,11.275 3.175,11.6 3.175,11.925 C3.175,12.25 3.2,12.6 3.25,12.95 C3.3,13.35 3.35,13.725 3.475,14.1 C3.65,14.575 3.85,15.05 4.05,15.525 C4.35,16.175 4.775,16.75 5.15,17.35 C5.35,17.7 5.6,18.025 5.85,18.35 C6.025,18.575 6.225,18.825 6.45,19.05 C6.625,19.225 6.8,19.4 7,19.55 C7.3,19.75 7.575,19.975 7.875,20.15 C8.25,20.35 8.625,20.5 9.05,20.6 C9.45,20.675 9.85,20.75 10.25,20.75 L15.925,20.75 C16.125,20.75 16.275,20.675 16.425,20.6 C16.55,20.525 16.65,20.475 16.775,20.4 C17.225,20.15 17.7,19.9 18.175,19.625 C18.675,19.325 19.15,19.05 19.65,18.75 C19.75,18.7 19.85,18.625 19.875,18.55 C19.95,18.375 20,18.15 20.05,17.95 L20.2,17.125 C20.225,16.95 20.25,16.75 20.275,16.575 C20.325,16.35 20.35,16.125 20.375,15.9 C20.4,15.675 20.4,15.475 20.425,15.25 L18.575,15.25 C18.875,15 19.15,14.75 19.4,14.475 C19.775,14.15 20.15,13.85 20.525,13.525 C20.575,13.475 20.6,13.45 20.6,13.4 C20.625,13.05 20.65,12.725 20.65,12.375 C20.65,11.675 20.625,10.975 20.625,10.275 C20.625,10.15 20.6,10 20.6,9.85 L18.65,9.85 C18.625,9.85 18.625,9.825 18.625,9.825 C18.7,9.775 18.775,9.7 18.85,9.65 C19.1,9.425 19.35,9.2 19.625,8.975 L20.525,8.225 C20.575,8.175 20.6,8.1 20.6,8.05 C20.6,7.95 20.6,7.825 20.575,7.7 C20.5,7.35 20.475,6.975 20.375,6.625 C20.225,6.075 20.025,5.55 19.725,5.05 C19.65,4.925 19.55,4.85 19.4,4.875 L8.825,4.875 C8.775,4.875 8.7,4.9 8.65,4.9 C8.525,4.925 8.425,4.925 8.3,4.95 Z M7.325,13.525 C11.6,13.525 15.825,13.525 20.125,13.55 C20.05,13.6 20,13.625 19.975,13.65 C19.65,13.9 19.35,14.175 19.05,14.425 C18.75,14.7 18.425,14.95 18.1,15.225 C18.075,15.25 18.025,15.25 17.975,15.25 L8.6,15.25 C8.425,15.25 8.4,15.125 8.325,15.025 C8.075,14.7 7.85,14.375 7.625,14.05 C7.525,13.9 7.425,13.725 7.325,13.525 Z M20.05,8.2 C19.975,8.275 19.9,8.35 19.8,8.4 C19.325,8.8 18.875,9.175 18.4,9.575 C18.325,9.625 18.25,9.675 18.2,9.75 C18.125,9.875 17.975,9.875 17.85,9.875 L7.3,9.875 C7.4,9.675 7.45,9.5 7.55,9.35 C7.725,9 7.95,8.65 8.25,8.375 C8.4,8.25 8.55,8.175 8.75,8.175 L19.85,8.175 C19.925,8.175 19.975,8.175 20.05,8.2 Z M19.2,18.675 C19.125,18.725 19.025,18.775 18.95,18.85 C18.25,19.225 17.55,19.625 16.85,20 C16.625,20.1 16.425,20.225 16.225,20.325 C16.1,20.375 16,20.4 15.875,20.4 L10.775,20.4 C10.45,20.4 10.1,20.4 9.775,20.375 C9.25,20.35 8.75,20.2 8.275,19.95 C7.825,19.725 7.425,19.45 7.05,19.1 C6.725,18.8 6.4,18.45 6.075,18.125 C6.05,18.1 6.05,18.05 6,18 C6.15,18.075 6.275,18.15 6.4,18.225 C6.775,18.425 7.175,18.575 7.6,18.6 C8.1,18.625 8.6,18.65 9.1,18.65 L19.05,18.65 C19.1,18.65 19.15,18.65 19.2,18.675 Z" id="Combined-Shape" fill="#8A8A8F"></path>
        <g id="enjin-coin" transform="translate(1.000000, 2.000000)"></g>
    </g>
</svg>