<?xml version="1.0" encoding="UTF-8"?>
<svg width="24px" height="24px" viewBox="0 0 24 24" version="1.1" xmlns="http://www.w3.org/2000/svg" xmlns:xlink="http://www.w3.org/1999/xlink">
    <!-- Generator: Sketch 53.2 (72643) - https://sketchapp.com -->
    <title>eos</title>
    <desc>Created with Sketch.</desc>
    <g id="eos" stroke="none" stroke-width="1" fill="none" fill-rule="evenodd">
        <g id="Group-Copy" transform="translate(-0.320000, -0.540000)" fill="#8A8A8F" fill-rule="nonzero">
            <polygon id="Shape" points="12.313 4.141 8.94 8.908 12.313 19.653 15.732 8.909"></polygon>
            <polygon id="Shape" points="6.903 17.43 11.572 20.187 8.49 10.539"></polygon>
            <path d="M12.32,0.548 C5.693,0.548 0.32,5.921 0.32,12.548 C0.32,19.175 5.693,24.548 12.32,24.548 C18.947,24.548 24.32,19.175 24.32,12.548 C24.32,5.921 18.948,0.548 12.32,0.548 Z M18.545,18.023 L12.491,21.572 C12.432,21.606 12.367,21.623 12.302,21.623 C12.236,21.623 12.17,21.605 12.112,21.571 L6.094,18.02 C5.952,17.937 5.882,17.771 5.919,17.612 L8.002,8.728 C8.013,8.681 8.033,8.636 8.061,8.597 L11.997,3.032 C12.067,2.933 12.181,2.874 12.302,2.873 C12.438,2.846 12.537,2.931 12.608,3.029 L16.616,8.598 C16.645,8.639 16.666,8.684 16.677,8.733 L18.722,17.615 C18.758,17.775 18.687,17.94 18.545,18.023 Z" id="Shape"></path>
            <polygon id="Shape" points="13.087 20.187 17.757 17.429 16.169 10.538"></polygon>
        </g>
    </g>
</svg>