<?xml version="1.0" encoding="UTF-8"?>
<svg width="24px" height="24px" viewBox="0 0 24 24" version="1.1" xmlns="http://www.w3.org/2000/svg" xmlns:xlink="http://www.w3.org/1999/xlink">
    <!-- Generator: Sketch 53.2 (72643) - https://sketchapp.com -->
    <title>eurs</title>
    <desc>Created with Sketch.</desc>
    <g id="eurs" stroke="none" stroke-width="1" fill="none" fill-rule="evenodd">
        <g id="Combined-Shape-2" fill="#8A8A8F" fill-rule="nonzero">
            <path d="M6.99323333,16 C8.70855043,19.707746 12.4792794,22.4170027 16.9892132,22.9168598 C15.4698874,23.6123508 13.7802139,24 12,24 C5.372583,24 0,18.627417 0,12 C0,5.372583 5.372583,0 12,0 C13.0900207,0 14.146097,0.145332923 15.1499088,0.417678528 C11.0919503,1.4537068 7.86408252,4.32558131 6.58945986,8 L4,8 L3,10.5 L6.04660392,10.5 C6.01574806,10.8295567 6,11.1630864 6,11.5 C6,12.1821694 6.06456164,12.8504659 6.18837017,13.5 L4,13.5 L3,16 L6.99323333,16 Z M10.2366298,13.5 C10.0819489,12.8586181 10,12.1888791 10,11.5 C10,11.1616864 10.019765,10.8279892 10.0582031,10.5 L20,10.5 L21,8 L10.7517393,8 C12.0857287,5.05147494 15.0532905,3 18.5,3 C19.0490085,3 19.5858603,3.05204931 20.1058898,3.15148254 C22.4993411,5.34524644 24,8.49737439 24,12 C24,14.8404089 23.0131384,17.4503239 21.3635827,19.5055774 C20.4688412,19.8256592 19.5047804,20 18.5,20 C15.4581406,20 12.7894783,18.4021532 11.2875535,16 L18,16 L19,13.5 L10.2366298,13.5 Z" id="Combined-Shape"></path>
        </g>
    </g>
</svg>