<?xml version="1.0" encoding="UTF-8"?>
<svg width="24px" height="24px" viewBox="0 0 24 24" version="1.1" xmlns="http://www.w3.org/2000/svg" xmlns:xlink="http://www.w3.org/1999/xlink">
    <!-- Generator: Sketch 53.2 (72643) - https://sketchapp.com -->
    <title>gnt</title>
    <desc>Created with Sketch.</desc>
    <g id="gnt" stroke="none" stroke-width="1" fill="none" fill-rule="evenodd">
        <g fill="#8A8A8F" fill-rule="nonzero" id="Combined-Shape">
            <path d="M12,24 C5.372583,24 0,18.627417 0,12 C0,5.372583 5.372583,0 12,0 C18.627417,0 24,5.372583 24,12 C24,18.627417 18.627417,24 12,24 Z M14.2416,10.2 C14.8344,9.6072 15.156,8.8272 15.156,7.9872 C15.155958,7.25389164 14.8986089,6.54384596 14.4288,5.9808 L16.248,4.1616 L15.8424,3.768 L14.0232,5.5872 C13.4616,5.1192 12.7656,4.86 12.0288,4.86 C10.7640352,4.86086512 9.62413374,5.62296839 9.13996109,6.79138936 C8.65578845,7.95981033 8.92254536,9.30480755 9.816,10.2 C10.3344,10.7184 11.0112,11.0424 11.7384,11.1048 L11.7384,13.4112 C11.0095995,13.4716439 10.3270443,13.7928964 9.816,14.316 C8.59680553,15.539296 8.59680553,17.518304 9.816,18.7416 C10.4088,19.3344 11.1888,19.656 12.0288,19.656 C12.8588294,19.6585002 13.6554626,19.3293058 14.2416,18.7416 C14.8344,18.1488 15.156,17.3688 15.156,16.5288 C15.156,15.6888 14.8344,14.9088 14.2416,14.316 C13.7232,13.7976 13.0464,13.4736 12.3192,13.4112 L12.3192,11.1048 C13.0481336,11.0448544 13.7308548,10.7235237 14.2416,10.2 Z M13.836,14.7192 C14.3136,15.2064 14.5848,15.8424 14.5848,16.5264 C14.5858914,17.204494 14.316362,17.8549927 13.836,18.3336 C13.3584,18.8208 12.7128,19.0824 12.0288,19.0824 C11.350706,19.0834914 10.7002073,18.813962 10.2216,18.3336 C9.744,17.8464 9.4728,17.2104 9.4728,16.5264 C9.47170861,15.848306 9.74123797,15.1978073 10.2216,14.7192 C10.6992,14.232 11.3448,13.9704 12.0288,13.9704 C12.7152,13.9728 13.3584,14.232 13.836,14.7192 Z M12.0288,10.5528 C11.350706,10.5538914 10.7002073,10.284362 10.2216,9.804 C9.744,9.3168 9.4728,8.6808 9.4728,7.9968 C9.47216033,7.31879561 9.74162067,6.66846345 10.2216,6.1896 C10.6992,5.7024 11.3448,5.4408 12.0288,5.4408 C12.706894,5.43970861 13.3573927,5.70923797 13.836,6.1896 C14.3232,6.6672 14.5848,7.3128 14.5848,7.9968 C14.5858914,8.67489397 14.316362,9.3253927 13.836,9.804 C13.3584,10.2936 12.7152,10.5528 12.0288,10.5528 Z"></path>
        </g>
    </g>
</svg>