<?xml version="1.0" encoding="UTF-8"?>
<svg width="24px" height="24px" viewBox="0 0 24 24" version="1.1" xmlns="http://www.w3.org/2000/svg" xmlns:xlink="http://www.w3.org/1999/xlink">
    <!-- Generator: Sketch 53.2 (72643) - https://sketchapp.com -->
    <title>gusd</title>
    <desc>Created with Sketch.</desc>
    <g id="gusd" stroke="none" stroke-width="1" fill="none" fill-rule="evenodd">
        <g fill="#8A8A8F" fill-rule="nonzero" id="Shape">
            <path d="M12,24 C5.37225,24 0,18.62775 0,12 C0,5.37225 5.37225,0 12,0 C18.62775,0 24,5.37225 24,12 C24,18.62775 18.62775,24 12,24 Z M14.5335,3.75 C11.631,3.75 9.16575,5.982 8.856,8.85525 C5.98125,9.16575 3.75,11.631 3.75,14.53275 C3.75165479,17.6893215 6.30992877,20.2479311 9.4665,20.25 C12.369,20.25 14.844,18.018 15.144,15.14475 C18.018,14.83425 20.25,12.369 20.25,9.46725 C20.2483452,6.31067852 17.6900712,3.75206891 14.5335,3.75 Z M18.9105,10.107 C18.6175564,12.0313133 17.1073133,13.5415564 15.183,13.8345 L15.183,10.107 L18.9105,10.107 L18.9105,10.107 Z M5.0895,13.893 C5.37854495,11.9648977 6.88965931,10.4498307 8.817,10.15575 L8.817,13.88325 L5.0895,13.88325 L5.0895,13.893 Z M13.84425,15.183 C13.5241605,17.3536336 11.6606067,18.9611364 9.4665,18.95925 C7.2728042,18.9611404 5.40958386,17.3539692 5.0895,15.18375 L13.84425,15.18375 L13.84425,15.183 Z M13.893,10.107 L13.893,13.88325 L10.107,13.88325 L10.107,10.107 L13.893,10.107 Z M18.9105,8.817 L10.15575,8.817 C10.4758395,6.64636639 12.3393933,5.03886363 14.5335,5.04075 C16.7271958,5.03885964 18.5904161,6.64603085 18.9105,8.81625 L18.9105,8.817 Z"></path>
        </g>
    </g>
</svg>