<?xml version="1.0" encoding="UTF-8"?>
<svg width="24px" height="24px" viewBox="0 0 24 24" version="1.1" xmlns="http://www.w3.org/2000/svg" xmlns:xlink="http://www.w3.org/1999/xlink">
    <!-- Generator: Sketch 53.2 (72643) - https://sketchapp.com -->
    <title>hot</title>
    <desc>Created with Sketch.</desc>
    <g id="hot" stroke="none" stroke-width="1" fill="none" fill-rule="evenodd">
        <g id="mco" fill="#8A8A8F" fill-rule="nonzero">
            <path d="M12,24 C5.37225,24 0,18.62775 0,12 C0,5.37225 5.37225,0 12,0 C18.62775,0 24,5.37225 24,12 C24,18.62775 18.62775,24 12,24 Z M15.1417697,11 C15.6413178,9.27477279 17.4031806,8 19.5,8 C19.6650113,8 19.8279482,8.00789475 19.9883588,8.02328249 L20.9274318,6.14513647 C20.4680954,6.05012828 19.9903896,6 19.5,6 C16.279254,6 13.6056229,8.16228666 13.0898716,11 L10.856143,11 C10.3403917,8.16228666 7.66676061,6 4.44601463,6 C4.02998942,6 3.62309282,6.03607776 3.22879637,6.1050288 L4.14664322,8.00871114 C4.24559448,8.00293406 4.34541908,8 4.44601463,8 C6.54283399,8 8.30469682,9.27477279 8.80424496,11 L7.5,11 L6.5,13 L8.80424496,13 C8.30469682,14.7252272 6.54283399,16 4.44601463,16 C4.26332179,16 4.08317173,15.9903227 3.90617784,15.9715134 L3,17.8509933 C3.46503053,17.9485099 3.94900841,18 4.44601463,18 C7.66676061,18 10.3403917,15.8377133 10.856143,13 L13.0898716,13 C13.6056229,15.8377133 16.279254,18 19.5,18 C19.9903896,18 20.4680954,17.9498717 20.9274318,17.8548635 L19.9883588,15.9767175 C19.8279482,15.9921053 19.6650113,16 19.5,16 C17.4031806,16 15.6413178,14.7252272 15.1417697,13 L16.5,13 L17.5,11 L15.1417697,11 Z" id="Combined-Shape"></path>
        </g>
    </g>
</svg>