<?xml version="1.0" encoding="UTF-8"?>
<svg width="24px" height="24px" viewBox="0 0 24 24" version="1.1" xmlns="http://www.w3.org/2000/svg" xmlns:xlink="http://www.w3.org/1999/xlink">
    <!-- Generator: Sketch 53.2 (72643) - https://sketchapp.com -->
    <title>ht</title>
    <desc>Created with Sketch.</desc>
    <g id="ht" stroke="none" stroke-width="1" fill="none" fill-rule="evenodd">
        <g fill="#8A8A8F" fill-rule="nonzero" id="Shape">
            <path d="M12,24 C5.37225,24 0,18.62775 0,12 C0,5.37225 5.37225,0 12,0 C18.62775,0 24,5.37225 24,12 C24,18.62775 18.62775,24 12,24 Z M13.76025,7.89975 C13.76025,5.25975 12.48,3.02025 11.52,2.30025 C11.52,2.30025 11.43975,2.22 11.43975,2.37975 C11.36025,7.41975 8.79975,8.78025 7.44,10.70025 C4.16025,14.94 7.2,19.65975 10.32,20.54025 C12.08025,21.02025 9.92025,19.65975 9.68025,16.86 C9.27975,13.34025 13.76025,10.77975 13.76025,7.89975 Z M15.44025,9.66 C15.27975,10.29975 14.64,11.66025 13.76025,12.93975 C10.8,17.18025 12.48,19.26 13.44,20.37975 C14.00025,21.02025 13.44,20.37975 14.79975,19.74 C14.88,19.65975 17.52,18.3 17.76,15.18 C18.08025,12.14025 16.16025,10.22025 15.44025,9.66 L15.44025,9.66 Z"></path>
        </g>
    </g>
</svg>