<?xml version="1.0" encoding="UTF-8"?>
<svg width="24px" height="24px" viewBox="0 0 24 24" version="1.1" xmlns="http://www.w3.org/2000/svg" xmlns:xlink="http://www.w3.org/1999/xlink">
    <!-- Generator: Sketch 53.2 (72643) - https://sketchapp.com -->
    <title>IDXM</title>
    <desc>Created with Sketch.</desc>
    <g id="IDXM" stroke="none" stroke-width="1" fill="none" fill-rule="evenodd">
        <path d="M12,24 C5.372583,24 0,18.627417 0,12 C0,5.372583 5.372583,0 12,0 C18.627417,0 24,5.372583 24,12 C24,18.627417 18.627417,24 12,24 Z M8,14 L4,14 L6,15 L8,15 L8.5,15 C8.77614237,15 9,14.7761424 9,14.5 L9,12 L10,12 L10,14.8 C10,14.9104569 10.0895431,15 10.2,15 L10.8,15 C10.9104569,15 11,14.9104569 11,14.8 L11,11.5 C11,11.2238576 10.7761424,11 10.5,11 L10,11 L9,11 L8.5,11 C8.22385763,11 8,11.2238576 8,11.5 L8,14 Z M15,18 L15.5,18 C15.7761424,18 16,17.7761424 16,17.5 L16,7 L17,7 L17,17.8 C17,17.9104569 17.0895431,18 17.2,18 L17.8,18 C17.9104569,18 18,17.9104569 18,17.8 L18,6.5 C18,6.22385763 17.7761424,6 17.5,6 L17,6 L16,6 L15.5,6 C15.2238576,6 15,6.22385763 15,6.5 L15,17 L10,17 L12,18 L15,18 Z M11.5,15.5 L7,15.5 L9,16.5 L11.5,16.5 L12,16.5 C12.2761424,16.5 12.5,16.2761424 12.5,16 L12.5,9.5 L13.5,9.5 L13.5,16.3 C13.5,16.4104569 13.5895431,16.5 13.7,16.5 L14.3,16.5 C14.4104569,16.5 14.5,16.4104569 14.5,16.3 L14.5,9 C14.5,8.72385763 14.2761424,8.5 14,8.5 L13.5,8.5 L12.5,8.5 L12,8.5 C11.7238576,8.5 11.5,8.72385763 11.5,9 L11.5,15.5 Z M12,2 C12.2761424,2 12.5,1.77614237 12.5,1.5 C12.5,1.22385763 12.2761424,1 12,1 C11.7238576,1 11.5,1.22385763 11.5,1.5 C11.5,1.77614237 11.7238576,2 12,2 Z M12,23 C12.2761424,23 12.5,22.7761424 12.5,22.5 C12.5,22.2238576 12.2761424,22 12,22 C11.7238576,22 11.5,22.2238576 11.5,22.5 C11.5,22.7761424 11.7238576,23 12,23 Z M14.5881905,2.34074174 C14.8549235,2.41221264 15.129092,2.2539214 15.2005629,1.98718835 C15.2720338,1.72045529 15.1137425,1.44628682 14.8470095,1.37481591 C14.5802764,1.30334501 14.306108,1.46163625 14.2346371,1.7283693 C14.1631662,1.99510235 14.3214574,2.26927083 14.5881905,2.34074174 Z M9.1529905,22.6251841 C9.41972356,22.696655 9.69389203,22.5383638 9.76536294,22.2716307 C9.83683385,22.0048976 9.6785426,21.7307292 9.41180955,21.6592583 C9.1450765,21.5877874 8.87090802,21.7460786 8.79943711,22.0128117 C8.72796621,22.2795447 8.88625745,22.5537132 9.1529905,22.6251841 Z M17,3.33974596 C17.2391463,3.47781715 17.5449415,3.39587957 17.6830127,3.15673326 C17.8210839,2.91758695 17.7391463,2.61179175 17.5,2.47372056 C17.2608537,2.33564937 16.9550585,2.41758695 16.8169873,2.65673326 C16.6789161,2.89587957 16.7608537,3.20167477 17,3.33974596 Z M6.5,21.5262794 C6.73914631,21.6643506 7.04494151,21.5824131 7.1830127,21.3432667 C7.32108389,21.1041204 7.23914631,20.7983252 7,20.660254 C6.76085369,20.5221829 6.45505849,20.6041204 6.3169873,20.8432667 C6.17891611,21.0824131 6.26085369,21.3882083 6.5,21.5262794 Z M19.0710678,4.92893219 C19.26633,5.12419433 19.5829124,5.12419433 19.7781746,4.92893219 C19.9734367,4.73367004 19.9734367,4.41708755 19.7781746,4.22182541 C19.5829124,4.02656326 19.26633,4.02656326 19.0710678,4.22182541 C18.8758057,4.41708755 18.8758057,4.73367004 19.0710678,4.92893219 Z M4.22182541,19.7781746 C4.41708755,19.9734367 4.73367004,19.9734367 4.92893219,19.7781746 C5.12419433,19.5829124 5.12419433,19.26633 4.92893219,19.0710678 C4.73367004,18.8758057 4.41708755,18.8758057 4.22182541,19.0710678 C4.02656326,19.26633 4.02656326,19.5829124 4.22182541,19.7781746 Z M20.660254,7 C20.7983252,7.23914631 21.1041204,7.32108389 21.3432667,7.1830127 C21.5824131,7.04494151 21.6643506,6.73914631 21.5262794,6.5 C21.3882083,6.26085369 21.0824131,6.17891611 20.8432667,6.3169873 C20.6041204,6.45505849 20.5221829,6.76085369 20.660254,7 Z M2.47372056,17.5 C2.61179175,17.7391463 2.91758695,17.8210839 3.15673326,17.6830127 C3.39587957,17.5449415 3.47781715,17.2391463 3.33974596,17 C3.20167477,16.7608537 2.89587957,16.6789161 2.65673326,16.8169873 C2.41758695,16.9550585 2.33564937,17.2608537 2.47372056,17.5 Z M21.6592583,9.41180955 C21.7307292,9.6785426 22.0048976,9.83683385 22.2716307,9.76536294 C22.5383638,9.69389203 22.696655,9.41972356 22.6251841,9.1529905 C22.5537132,8.88625745 22.2795447,8.72796621 22.0128117,8.79943711 C21.7460786,8.87090802 21.5877874,9.1450765 21.6592583,9.41180955 Z M1.37481591,14.8470095 C1.44628682,15.1137425 1.72045529,15.2720338 1.98718835,15.2005629 C2.2539214,15.129092 2.41221264,14.8549235 2.34074174,14.5881905 C2.26927083,14.3214574 1.99510235,14.1631662 1.7283693,14.2346371 C1.46163625,14.306108 1.30334501,14.5802764 1.37481591,14.8470095 Z M22,12 C22,12.2761424 22.2238576,12.5 22.5,12.5 C22.7761424,12.5 23,12.2761424 23,12 C23,11.7238576 22.7761424,11.5 22.5,11.5 C22.2238576,11.5 22,11.7238576 22,12 Z M1,12 C1,12.2761424 1.22385763,12.5 1.5,12.5 C1.77614237,12.5 2,12.2761424 2,12 C2,11.7238576 1.77614237,11.5 1.5,11.5 C1.22385763,11.5 1,11.7238576 1,12 Z M21.6592583,14.5881905 C21.5877874,14.8549235 21.7460786,15.129092 22.0128117,15.2005629 C22.2795447,15.2720338 22.5537132,15.1137425 22.6251841,14.8470095 C22.696655,14.5802764 22.5383638,14.306108 22.2716307,14.2346371 C22.0048976,14.1631662 21.7307292,14.3214574 21.6592583,14.5881905 Z M1.37481591,9.1529905 C1.30334501,9.41972356 1.46163625,9.69389203 1.7283693,9.76536294 C1.99510235,9.83683385 2.26927083,9.6785426 2.34074174,9.41180955 C2.41221264,9.1450765 2.2539214,8.87090802 1.98718835,8.79943711 C1.72045529,8.72796621 1.44628682,8.88625745 1.37481591,9.1529905 Z M20.660254,17 C20.5221829,17.2391463 20.6041204,17.5449415 20.8432667,17.6830127 C21.0824131,17.8210839 21.3882083,17.7391463 21.5262794,17.5 C21.6643506,17.2608537 21.5824131,16.9550585 21.3432667,16.8169873 C21.1041204,16.6789161 20.7983252,16.7608537 20.660254,17 Z M2.47372056,6.5 C2.33564937,6.73914631 2.41758695,7.04494151 2.65673326,7.1830127 C2.89587957,7.32108389 3.20167477,7.23914631 3.33974596,7 C3.47781715,6.76085369 3.39587957,6.45505849 3.15673326,6.3169873 C2.91758695,6.17891611 2.61179175,6.26085369 2.47372056,6.5 Z M19.0710678,19.0710678 C18.8758057,19.26633 18.8758057,19.5829124 19.0710678,19.7781746 C19.26633,19.9734367 19.5829124,19.9734367 19.7781746,19.7781746 C19.9734367,19.5829124 19.9734367,19.26633 19.7781746,19.0710678 C19.5829124,18.8758057 19.26633,18.8758057 19.0710678,19.0710678 Z M4.22182541,4.22182541 C4.02656326,4.41708755 4.02656326,4.73367004 4.22182541,4.92893219 C4.41708755,5.12419433 4.73367004,5.12419433 4.92893219,4.92893219 C5.12419433,4.73367004 5.12419433,4.41708755 4.92893219,4.22182541 C4.73367004,4.02656326 4.41708755,4.02656326 4.22182541,4.22182541 Z M17,20.660254 C16.7608537,20.7983252 16.6789161,21.1041204 16.8169873,21.3432667 C16.9550585,21.5824131 17.2608537,21.6643506 17.5,21.5262794 C17.7391463,21.3882083 17.8210839,21.0824131 17.6830127,20.8432667 C17.5449415,20.6041204 17.2391463,20.5221829 17,20.660254 Z M6.5,2.47372056 C6.26085369,2.61179175 6.17891611,2.91758695 6.3169873,3.15673326 C6.45505849,3.39587957 6.76085369,3.47781715 7,3.33974596 C7.23914631,3.20167477 7.32108389,2.89587957 7.1830127,2.65673326 C7.04494151,2.41758695 6.73914631,2.33564937 6.5,2.47372056 Z M14.5881905,21.6592583 C14.3214574,21.7307292 14.1631662,22.0048976 14.2346371,22.2716307 C14.306108,22.5383638 14.5802764,22.696655 14.8470095,22.6251841 C15.1137425,22.5537132 15.2720338,22.2795447 15.2005629,22.0128117 C15.129092,21.7460786 14.8549235,21.5877874 14.5881905,21.6592583 Z M9.1529905,1.37481591 C8.88625745,1.44628682 8.72796621,1.72045529 8.79943711,1.98718835 C8.87090802,2.2539214 9.1450765,2.41221264 9.41180955,2.34074174 C9.6785426,2.26927083 9.83683385,1.99510235 9.76536294,1.7283693 C9.69389203,1.46163625 9.41972356,1.30334501 9.1529905,1.37481591 Z" id="Combined-Shape" fill="#8A8A8F"></path>
    </g>
</svg>