<?xml version="1.0" encoding="UTF-8"?>
<svg width="24px" height="24px" viewBox="0 0 24 24" version="1.1" xmlns="http://www.w3.org/2000/svg" xmlns:xlink="http://www.w3.org/1999/xlink">
    <!-- Generator: Sketch 53.2 (72643) - https://sketchapp.com -->
    <title>iost</title>
    <desc>Created with Sketch.</desc>
    <g id="iost" stroke="none" stroke-width="1" fill="none" fill-rule="evenodd">
        <g id="mco" fill="#8A8A8F" fill-rule="nonzero">
            <path d="M12,24 C5.37225,24 0,18.62775 0,12 C0,5.37225 5.37225,0 12,0 C18.62775,0 24,5.37225 24,12 C24,18.62775 18.62775,24 12,24 Z M12.688,3.5 L4.376,8.374 L8.731,10.931 L7.844,11.437 L9.875,12.656 L10.767,12.126 L12.01,12.855 L10.937,13.468 L12.969,14.687 L14.043,14.049 L16.781,15.656 L12.688,18.156 L4,13.031 L4,15.562 L12.641,20.562 L20.907,15.656 L16.11,12.821 L17.125,12.218 L15.094,11.093 L14.124,11.648 L12.845,10.893 L14.032,10.187 L12,9.062 L10.855,9.716 L8.532,8.344 L12.719,5.937 L18.407,9.344 L20.532,8.062 L12.688,3.5 Z" id="Combined-Shape"></path>
        </g>
    </g>
</svg>