<?xml version="1.0" encoding="UTF-8"?>
<svg width="24px" height="24px" viewBox="0 0 24 24" version="1.1" xmlns="http://www.w3.org/2000/svg" xmlns:xlink="http://www.w3.org/1999/xlink">
    <!-- Generator: Sketch 53.2 (72643) - https://sketchapp.com -->
    <title>kcs</title>
    <desc>Created with Sketch.</desc>
    <g id="kcs" stroke="none" stroke-width="1" fill="none" fill-rule="evenodd">
        <path d="M12,24 C5.372583,24 0,18.627417 0,12 C0,5.372583 5.372583,0 12,0 C18.627417,0 24,5.372583 24,12 C24,18.627417 18.627417,24 12,24 Z M12,21.6666667 L20,8 L9,10 L12,21.6666667 Z M4,8 L12,21.6666667 L9,10 L4,8 Z M4,8 L9,8 L12,4 L4,8 Z M12,4 L9,8 L20,8 L12,4 Z" id="Combined-Shape" fill="#8A8A8F" fill-rule="nonzero"></path>
        <polygon id="Path-7" fill="#8A8A8F" fill-rule="nonzero" opacity="0.5" points="4 8 9 10 12 21.6666667"></polygon>
        <polygon id="Path-10-Copy" fill="#8A8A8F" fill-rule="nonzero" opacity="0.5" points="4 8 12 4 9 8"></polygon>
    </g>
</svg>