<?xml version="1.0" encoding="UTF-8"?>
<svg width="24px" height="24px" viewBox="0 0 24 24" version="1.1" xmlns="http://www.w3.org/2000/svg" xmlns:xlink="http://www.w3.org/1999/xlink">
    <!-- Generator: Sketch 53.2 (72643) - https://sketchapp.com -->
    <title>knc</title>
    <desc>Created with Sketch.</desc>
    <g id="knc" stroke="none" stroke-width="1" fill="none" fill-rule="evenodd">
        <g fill="#8A8A8F" fill-rule="nonzero" id="Shape">
            <path d="M12,24 C5.37225,24 0,18.62775 0,12 C0,5.37225 5.37225,0 12,0 C18.62775,0 24,5.37225 24,12 C24,18.62775 18.62775,24 12,24 Z M11.3145,10.8465 L11.43375,20.25 L16.3215,16.11 L11.3145,10.8465 Z M11.553,10.49175 L16.3215,15.57825 L16.5,8.00775 L11.553,10.49175 Z M11.25525,10.07775 L16.44075,7.653 L11.25525,3.75 L11.25525,10.07775 Z M10.8975,3.92775 L7.5,7.7715 L8.33475,15.9915 L11.076,19.836 L10.8975,3.92775 L10.8975,3.92775 Z"></path>
        </g>
    </g>
</svg>