<?xml version="1.0" encoding="UTF-8"?>
<svg width="24px" height="24px" viewBox="0 0 24 24" version="1.1" xmlns="http://www.w3.org/2000/svg" xmlns:xlink="http://www.w3.org/1999/xlink">
    <!-- Generator: Sketch 53.2 (72643) - https://sketchapp.com -->
    <title>loom</title>
    <desc>Created with Sketch.</desc>
    <g id="loom" stroke="none" stroke-width="1" fill="none" fill-rule="evenodd">
        <g fill="#8A8A8F" fill-rule="nonzero" id="Shape">
            <path d="M18.69,11.715 L19.10325,11.42475 C19.1019998,11.4232502 19.1007498,11.4217502 19.0995,11.42025 L19.62225,11.055 C20.4720226,10.458715 20.9779063,9.48573356 20.9779063,8.447625 C20.9779063,7.40951644 20.4720226,6.43653504 19.62225,5.84025 L19.62825,5.84775 L16.6575,3.765 L12.9825,6.33675 L13.968,7.0305 L16.653,5.15175 L18.9705,6.777 C19.5181598,7.1599363 19.8443908,7.786115 19.8443908,8.454375 C19.8443908,9.122635 19.5181598,9.7488137 18.9705,10.13175 L17.69775,11.01975 L7.335,3.75 L4.35675,5.84325 C3.50697735,6.43953504 3.00109372,7.41251644 3.00109372,8.450625 C3.00109372,9.48873356 3.50697735,10.461715 4.35675,11.058 L5.2875,11.71125 L5.0595,11.87175 L5.06325,11.877 L4.35675,12.3705 C3.50697735,12.966785 3.00109372,13.9397664 3.00109372,14.977875 C3.00109372,16.0159836 3.50697735,16.988965 4.35675,17.58525 L7.3245,19.6695 L10.99725,17.09775 L10.01175,16.40325 L7.32225,18.28275 L5.00475,16.6575 C4.45709024,16.2745637 4.13085919,15.648385 4.13085919,14.980125 C4.13085919,14.311865 4.45709024,13.6856863 5.00475,13.30275 L6.2835,12.41025 L16.6455,19.67925 L19.6245,17.58525 C20.4742726,16.988965 20.9801563,16.0159836 20.9801563,14.977875 C20.9801563,13.9397664 20.4742726,12.966785 19.6245,12.3705 L18.68925,11.715 L18.69,11.715 Z M17.6955,12.4125 L18.96825,13.305 C19.5159098,13.6879363 19.8421408,14.314115 19.8421408,14.982375 C19.8421408,15.650635 19.5159098,16.2768137 18.96825,16.65975 L16.64775,18.28275 L7.28025,11.715 L11.00475,9.1155 L10.01475,8.4195 L9.7395,8.6115 L9.732,8.60025 L6.282,11.01525 L5.01225,10.125 C4.46459024,9.7420637 4.13835919,9.115885 4.13835919,8.447625 C4.13835919,7.779365 4.46459024,7.1531863 5.01225,6.77025 L7.332,5.14725 L16.701,11.715 L12.9705,14.31825 L13.95675,15.01275 L16.73925,13.06875 L16.74675,13.07775 L17.6955,12.4125 Z M12,24 C5.37225,24 0,18.62775 0,12 C0,5.37225 5.37225,0 12,0 C18.62775,0 24,5.37225 24,12 C24,18.62775 18.62775,24 12,24 Z"></path>
        </g>
    </g>
</svg>