<?xml version="1.0" encoding="UTF-8"?>
<svg width="24px" height="24px" viewBox="0 0 24 24" version="1.1" xmlns="http://www.w3.org/2000/svg" xmlns:xlink="http://www.w3.org/1999/xlink">
    <!-- Generator: Sketch 53.2 (72643) - https://sketchapp.com -->
    <title>lrc</title>
    <desc>Created with Sketch.</desc>
    <g id="lrc" stroke="none" stroke-width="1" fill="none" fill-rule="evenodd">
        <g id="mco" fill="#8A8A8F" fill-rule="nonzero">
            <path d="M12,24 C5.37225,24 0,18.62775 0,12 C0,5.37225 5.37225,0 12,0 C18.62775,0 24,5.37225 24,12 C24,18.62775 18.62775,24 12,24 Z M12.6587702,20.8186776 L19.6513353,14.9539456 C19.9146916,14.7330661 19.9715054,14.3502512 19.7836492,14.0624069 L12.8030567,3.36633785 C12.760964,3.28399807 12.7028014,3.21394242 12.6341446,3.15782938 C12.5065107,3.04806499 12.3509819,2.99839178 12.1970428,3.00003965 C12.0431036,2.99839178 11.8875748,3.04806499 11.759941,3.15782938 C11.6912841,3.21394242 11.6331215,3.28399807 11.5910288,3.36633785 L4.61043637,14.0624069 C4.42258013,14.3502512 4.47939397,14.7330661 4.74275026,14.9539456 L11.7353153,20.8186776 C11.7609328,20.8420864 11.7882602,20.8634711 11.8169877,20.8826873 C11.9359149,20.9640162 12.0678258,21.0006797 12.1970428,20.9999905 C12.3262597,21.0006797 12.4581706,20.9640162 12.5770978,20.8826873 C12.6058254,20.8634711 12.6331527,20.8420864 12.6587702,20.8186776 Z M11.5179086,5.96366128 L11.5179086,18.8635435 L6.07714192,14.3003198 L11.5179086,5.96366128 Z M12.876177,5.96366128 L18.3169436,14.3003198 L12.876177,18.8635435 L12.876177,5.96366128 Z" id="Combined-Shape"></path>
        </g>
    </g>
</svg>