<?xml version="1.0" encoding="UTF-8"?>
<svg width="24px" height="24px" viewBox="0 0 24 24" version="1.1" xmlns="http://www.w3.org/2000/svg" xmlns:xlink="http://www.w3.org/1999/xlink">
    <!-- Generator: Sketch 53.2 (72643) - https://sketchapp.com -->
    <title>mana</title>
    <desc>Created with Sketch.</desc>
    <g id="mana" stroke="none" stroke-width="1" fill="none" fill-rule="evenodd">
        <g fill="#8A8A8F" fill-rule="nonzero" id="Shape">
            <path d="M12,24 C5.37225,24 0,18.62775 0,12 C0,5.37225 5.37225,0 12,0 C18.62775,0 24,5.37225 24,12 C24,18.62775 18.62775,24 12,24 Z M12,3.75 C7.45425,3.75 3.75,7.45425 3.75,12 C3.75,16.54575 7.45425,20.25 12,20.25 C16.54575,20.25 20.25,16.54575 20.25,12 C20.25,7.45425 16.54575,3.75 12,3.75 Z M18.64125,11.16675 L17.93175,11.2905 L16.90875,9.8715 L16.57875,9.8715 C17.0362683,8.9988172 17.0045558,7.95050907 16.4951232,7.10707759 C15.9856906,6.26364612 15.072591,5.74769582 14.08725,5.7465 C12.53625,5.7465 11.26575,7.0005 11.26575,8.5515 C11.26575,9.8385 12.14025,10.9275 13.32,11.26575 L13.27875,11.307 L12.8745,11.51325 L12.2145,11.274 L11.56275,10.8945 L10.647,12.0495 L9.91275,11.64525 L8.502,12.00825 L7.7925,9.68175 L6.06,9.68175 L4.79775,11.89275 L4.41,11.901 C4.4595,7.7595 7.85025,4.41 12,4.41 C16.18275,4.41 19.59,7.81725 19.59,12 L19.59,12.23925 L18.64125,11.16675 Z M12,19.59 C8.77425,19.59 6.0105,17.56875 4.91325,14.7225 C5.12775,14.7225 5.35875,14.73075 5.58975,14.73075 C5.7135,14.76525 5.841,14.78175 5.96925,14.78025 C6.0765,14.78025 6.18375,14.772 6.2745,14.74725 C6.327,14.74575 6.3795,14.74875 6.43125,14.7555 C6.41475,14.805 6.41475,14.8215 6.41475,14.838 C6.41475,15.201 6.8025,15.465 7.33875,15.465 C7.8585,15.465 8.238,15.2175 8.2545,14.871 L8.51025,14.89575 C10.70475,15.135 10.85325,15.531 10.85325,15.5475 C10.8615,15.5805 10.812,15.75375 10.3665,16.05075 C9.43425,16.69425 9.1125,17.082 9.195,17.48625 C9.294,17.973 9.92925,18.09675 10.8945,18.27825 C11.16675,18.32775 11.472,18.3855 11.7855,18.45975 C12.132,18.534 12.50325,18.60825 12.858,18.6825 C13.5015,18.8145 14.1615,18.9465 14.6895,19.10325 C13.8296194,19.4261099 12.9184945,19.5910067 12,19.59 Z M15.531,18.7155 C14.91225,18.41025 13.97175,18.22875 12.98175,18.03075 C12.6289565,17.9632138 12.2769342,17.8917093 11.92575,17.81625 C11.6221347,17.747776 11.3167803,17.6872553 11.01,17.63475 C10.5645,17.55225 10.02825,17.445 9.855,17.346 C9.91275,17.25525 10.09425,17.04075 10.73775,16.6035 C10.96875,16.44675 11.67,15.96825 11.48025,15.35775 C11.307,14.7885 10.40775,14.442 8.57625,14.244 C8.41125,14.2275 8.238,14.211 8.0565,14.1945 C7.96575,13.92225 7.83375,13.5345 7.644,12.9735 L7.3305,12.05775 L7.017,12.9735 C6.90975,13.27875 6.82725,13.52625 6.753,13.74075 C6.6705,13.47675 6.522,13.04775 6.26625,12.30525 L5.9775,11.373 L5.664,12.28875 C5.235,13.54275 5.11125,13.914 5.07825,14.05425 L4.69875,14.05425 C4.56411513,13.5658807 4.47572566,13.0659278 4.43475,12.561 L5.19375,12.53625 L6.44775,10.34175 L7.314,10.34175 L8.06475,12.8085 L9.83025,12.35475 L10.2345,12.5775 L9.3765,13.65825 L9.89625,14.07075 L11.72775,11.7525 L11.94225,11.87625 L12.93225,12.23925 L13.36125,12.0165 C13.27875,12.18975 13.22925,12.3795 13.22925,12.5775 C13.22925,12.7755 13.353,13.19625 14.2935,13.353 C14.59275,13.40175 14.8125,13.6605 14.81325,13.9635 L14.81325,15.036 C14.6756503,14.9395858 14.5258363,14.8619045 14.36775,14.805 L14.376,14.805 C14.013,14.6895 13.67475,14.51625 13.5675,14.1615 C13.485,14.45025 13.254,14.61525 12.957,14.73075 C12.18975,14.937 11.637,15.5145 11.637,16.19925 C11.637,16.44675 11.82675,17.0325 13.551,17.0325 C15.2835,17.0325 15.465,16.44675 15.465,16.19925 L15.465,14.904 C15.5805,14.94525 15.7125,14.97825 15.86925,15.003 C16.1685,15.05175 16.38825,15.3105 16.389,15.6135 L16.389,16.356 C16.389,16.52925 16.51275,16.686 16.686,16.7025 C16.7787624,16.7104369 16.8706358,16.6793544 16.9395252,16.6167277 C17.0084145,16.5541009 17.0480864,16.4655968 17.049,16.3725 L17.049,15.6135 C17.0497596,15.3103225 17.2695778,15.0521235 17.56875,15.003 C18.50925,14.84625 18.633,14.43375 18.633,14.2275 C18.633,13.67475 18.27,13.19625 17.73375,12.924 L17.742,12.924 C17.73375,12.924 17.7255,12.91575 17.709,12.91575 C17.61825,12.86625 17.511,12.83325 17.412,12.80025 C17.2666132,12.7318269 17.1394184,12.6300711 17.04075,12.50325 C16.9995,11.9175 16.56225,11.4225 15.93525,11.18325 L15.927,11.18325 C15.88575,11.16675 15.8445,11.1585 15.80325,11.142 C15.48975,11.0265 15.2175,10.85325 15.12675,10.548 C15.02775,10.88625 14.739,11.0595 14.36775,11.175 C14.343,11.18325 14.31,11.1915 14.28525,11.208 L15.3165,10.11075 L15.93525,10.944 L16.43025,10.548 L16.554,10.548 L17.6265,12.02475 L18.3855,11.89275 L19.49925,13.155 C19.13625,15.564 17.6265,17.61 15.531,18.7155 L15.531,18.7155 Z M14.805,16.14975 C14.6895,16.23225 14.2605,16.36425 13.551,16.36425 C12.8415,16.36425 12.4125,16.23225 12.297,16.14975 C12.33,15.68775 12.891,15.30825 13.551,15.30825 C14.211,15.30825 14.772,15.68775 14.805,16.14975 Z M16.72725,13.3365 C17.38725,13.3365 17.94825,13.716 17.98125,14.178 C17.86575,14.2605 17.4285,14.3925 16.72725,14.3925 C16.026,14.3925 15.58875,14.2605 15.47325,14.178 C15.50625,13.716 16.06725,13.3365 16.72725,13.3365 Z M16.389,12.528 C16.2735,12.6105 15.83625,12.7425 15.135,12.7425 C14.43375,12.7425 13.9965,12.6105 13.881,12.528 C13.914,12.066 14.475,11.6865 15.135,11.6865 C15.795,11.6865 16.356,12.066 16.389,12.528 Z M15.88575,9.73125 L15.39075,9.063 L13.85625,10.70475 C12.7187059,10.5804818 11.8765258,9.58898482 11.9379357,8.44632212 C11.9993456,7.30365943 12.9429395,6.4081349 14.08725,6.4065 C15.2761143,6.40732732 16.2396727,7.37088572 16.2405,8.55975 C16.2394168,8.976548 16.1160729,9.38386965 15.88575,9.73125 L15.88575,9.73125 Z M7.12425,14.772 L7.347,14.10375 L7.56975,14.772 C7.42425,14.81625 7.26975,14.81625 7.12425,14.772 L7.12425,14.772 Z M5.763,14.07075 C5.8125,13.92225 5.88675,13.683 5.9775,13.42725 C6.06825,13.69125 6.15075,13.9305 6.192,14.079 C6.0435,14.079 5.90325,14.07075 5.763,14.07075 L5.763,14.07075 Z M8.931,9.6405 C9.9867056,9.63720604 10.841706,8.7822056 10.845,7.7265 C10.8441728,6.66976981 9.98773019,5.81332719 8.931,5.8125 C7.87426981,5.81332719 7.01782719,6.66976981 7.017,7.7265 C7.01782719,8.78323019 7.87426981,9.63967281 8.931,9.6405 L8.931,9.6405 Z M8.931,6.4725 C9.61575,6.4725 10.185,7.0335 10.185,7.7265 C10.185,8.41906508 9.62356508,8.9805 8.931,8.9805 C8.23843492,8.9805 7.677,8.41906508 7.677,7.7265 C7.677,7.03393492 8.23843492,6.4725 8.931,6.4725 Z"></path>
        </g>
    </g>
</svg>