<?xml version="1.0" encoding="UTF-8"?>
<svg width="24px" height="24px" viewBox="0 0 24 24" version="1.1" xmlns="http://www.w3.org/2000/svg" xmlns:xlink="http://www.w3.org/1999/xlink">
    <!-- Generator: Sketch 53.2 (72643) - https://sketchapp.com -->
    <title>mco</title>
    <desc>Created with Sketch.</desc>
    <g id="mco" stroke="none" stroke-width="1" fill="none" fill-rule="evenodd">
        <g fill="#8A8A8F" fill-rule="nonzero" id="Shape">
            <path d="M12,24 C5.37225,24 0,18.62775 0,12 C0,5.37225 5.37225,0 12,0 C18.62775,0 24,5.37225 24,12 C24,18.62775 18.62775,24 12,24 Z M11.985,3.7635 L11.9355,3.7635 L4.875,7.87575 L4.875,16.12575 L11.9355,20.23575 L11.99325,20.25 L19.125,16.125 L19.125,7.87575 L11.985,3.7635 Z M11.96175,4.617 L12.735,5.046 L18.375,8.3085 L18.375,15.69225 L12.735,18.936 L11.961,19.38375 L5.625,15.69375 L5.625,8.307 L11.96175,4.617 Z M6.60675,12.5745 L9.16425,17.0445 L10.18575,17.0445 L11.39475,15.912 L11.39475,15.345 L10.14075,14.136 L10.14075,12.231 L8.48325,11.17125 L6.60675,12.57525 L6.60675,12.5745 Z M12.534,15.9135 L13.7415,17.03175 L14.7495,17.03175 L17.29425,12.57525 L15.42225,11.1585 L13.782,12.231 L13.782,14.136 L12.53175,15.3435 L12.534,15.9135 Z M10.7565,12.231 L10.569,14.0235 L11.95275,14.0205 L13.353,14.0175 L13.176,12.231 L13.7745,10.63275 L10.146,10.63275 L10.75575,12.231 L10.7565,12.231 Z M11.95275,10.19475 L15.41925,10.197 L14.7435,7.32825 L9.1455,7.32825 L8.50425,10.19325 L11.95275,10.19475 L11.95275,10.19475 Z"></path>
        </g>
    </g>
</svg>