<?xml version="1.0" encoding="UTF-8"?>
<svg width="24px" height="24px" viewBox="0 0 24 24" version="1.1" xmlns="http://www.w3.org/2000/svg" xmlns:xlink="http://www.w3.org/1999/xlink">
    <!-- Generator: Sketch 53.2 (72643) - https://sketchapp.com -->
    <title>mith</title>
    <desc>Created with Sketch.</desc>
    <g id="mith" stroke="none" stroke-width="1" fill="none" fill-rule="evenodd">
        <g fill="#8A8A8F" fill-rule="nonzero" id="Shape">
            <path d="M12,24 C5.37225,24 0,18.62775 0,12 C0,5.37225 5.37225,0 12,0 C18.62775,0 24,5.37225 24,12 C24,18.62775 18.62775,24 12,24 Z M11.99475,15.7485 L19.77225,15.7485 C19.94775,15.7485 20.115,15.7185 20.20425,15.55275 C20.29575,15.38325 20.238,15.21375 20.1405,15.06 C20.0595,14.9325 19.9755,14.80725 19.893,14.68125 C19.227,13.656 18.51675,12.657 17.90325,11.60025 C16.8885,9.85125 15.9345,8.06475 14.958,6.29325 C14.8605,6.11625 14.736,5.991 14.529,6.00075 C14.3325,6.00975 14.23125,6.1515 14.15475,6.318 L12.20925,10.5555 C12.11325,10.764 12.06675,10.77 11.937,10.587 C11.30625,9.6915 10.674,8.7975 10.04625,7.9005 C9.93825,7.746 9.7935,7.6485 9.624,7.7115 C9.501,7.7565 9.384,7.87125 9.3075,7.9845 C8.5275,9.1425 7.75725,10.308 6.98025,11.469 C6.73875,11.829 6.5175,12.2115 6.23175,12.5325 C5.48025,13.374 4.6995,14.1885 3.92925,15.012 C3.79425,15.15525 3.69825,15.30675 3.78075,15.5115 C3.86775,15.72675 4.04925,15.75 4.25025,15.75 C6.83175,15.74775 9.41325,15.7485 11.99475,15.7485 L11.99475,15.7485 Z M13.617,14.91525 C13.4955,15.00975 11.6595,15.009 11.51325,14.90175 C11.71425,14.679 11.91225,14.457 12.11475,14.23875 C12.13125,14.2215 12.18075,14.2185 12.2055,14.2305 C12.672,14.448 13.137,14.66775 13.602,14.8875 C13.60575,14.88975 13.60725,14.89725 13.617,14.91525 L13.617,14.91525 Z M9.3615,9.543 C9.3195,9.957 9.2865,10.33425 9.2385,10.70925 C9.22424737,10.7849145 9.18123827,10.8521163 9.1185,10.89675 C8.76061589,11.1263773 8.39932568,11.3506523 8.03475,11.5695 C7.992,11.59575 7.93275,11.5935 7.88175,11.604 C7.89375,11.55375 7.89225,11.4945 7.91925,11.454 C8.34334627,10.8112372 8.77009992,10.1702317 9.1995,9.531 C9.225,9.4935 9.276,9.47325 9.315,9.4455 L9.3615,9.543 L9.3615,9.543 Z M18.35925,14.9805 C18.153,14.9805 17.94675,14.9775 17.73975,14.982 C17.62575,14.98425 17.58675,14.934 17.595,14.82225 C17.64,14.23575 17.68125,13.64925 17.727,13.06275 C17.73075,13.023 17.763,12.9855 17.78175,12.948 C17.81775,12.9705 17.86575,12.9855 17.88675,13.01775 C18.282,13.61775 18.67425,14.21925 19.068,14.82075 C19.143,14.93625 19.098,14.9805 18.978,14.9805 L18.35925,14.9805 L18.35925,14.9805 Z M5.05875,14.9355 C5.21775,14.7615 5.34,14.625 5.46525,14.49075 C5.82375,14.1075 6.18375,13.72575 6.54075,13.34025 C6.633,13.24125 6.687,13.2345 6.7455,13.37475 C6.94575,13.8555 7.15275,14.334 7.362,14.81025 C7.41675,14.9355 7.38375,14.982 7.254,14.98125 C6.585,14.9805 5.91525,14.98125 5.2455,14.97975 C5.19975,14.97975 5.15325,14.95875 5.058,14.9355 L5.05875,14.9355 Z M14.955,11.47575 C15.05925,11.4855 15.1185,11.48325 15.17475,11.49675 C15.80175,11.652 16.428,11.8095 17.05425,11.96625 C17.289,12.0255 17.3955,12.15225 17.38125,12.39975 C17.34675,12.98025 17.30175,13.56075 17.26125,14.14125 C17.253,14.26875 17.24925,14.39775 17.235,14.5245 C17.229,14.571 17.1975,14.6145 17.178,14.6595 C17.1405,14.631 17.091,14.61 17.0655,14.57325 C16.68825,14.03175 16.31475,13.488 15.9405,12.94425 L15.0345,11.62875 C15.01275,11.59725 14.9985,11.5605 14.955,11.47575 L14.955,11.47575 Z M14.796,7.6245 C14.83125,7.67325 14.871,7.71825 14.90025,7.77 C15.5505,8.94675 16.19925,10.1235 16.8465,11.301 C16.87425,11.352 16.878,11.41725 16.89225,11.47575 C16.833,11.47575 16.77075,11.4885 16.7145,11.475 C16.065,11.31525 15.417,11.1495 14.7675,10.992 C14.66025,10.96575 14.6295,10.9125 14.6325,10.809 C14.6625,9.86625 14.688,8.9235 14.7165,7.98075 C14.72025,7.8645 14.7315,7.749 14.739,7.63425 L14.796,7.6245 L14.796,7.6245 Z M11.88225,13.40475 C11.8125,13.34175 11.769,13.30875 11.73225,13.269 C11.06325,12.519 10.3965,11.766 9.72525,11.01825 C9.64800704,10.9400721 9.61263243,10.8297702 9.63,10.72125 C9.687,10.21275 9.73125,9.70275 9.78375,9.19275 C9.79125,9.129 9.8175,9.06675 9.83475,9.00375 L9.90525,8.96175 C9.924,9.00525 9.93525,9.05325 9.96225,9.09075 C10.5542612,9.91949623 11.1480125,10.7469981 11.7435,11.57325 C11.88825,11.77425 11.95575,11.9925 11.9445,12.24225 C11.9295,12.5565 11.9295,12.87075 11.91975,13.185 C11.9175,13.245 11.90025,13.305 11.88225,13.40475 L11.88225,13.40475 Z M12.315,13.248 C12.33,12.6435 12.2835,12.04425 12.5745,11.463 C13.125,10.3665 13.62675,9.243 14.15175,8.133 C14.175,8.08425 14.23275,8.052 14.274,8.01225 C14.289,8.06325 14.319,8.115 14.3175,8.166 C14.2965,9.09225 14.2725,10.0185 14.24625,10.94475 C14.2428788,11.0007651 14.2224669,11.0544116 14.18775,11.0985 C13.6215093,11.7941428 13.053257,12.4881457 12.483,13.1805 C12.45,13.22025 12.40125,13.24575 12.36,13.278 L12.315,13.248 L12.315,13.248 Z M9.68775,14.9805 C9.32025,14.9805 8.9535,14.98275 8.58675,14.97825 C8.53575,14.97825 8.4855,14.946 8.43525,14.928 C8.45475,14.88225 8.46525,14.8305 8.49375,14.7915 C9.06675,14.01225 9.64425,13.23675 10.215,12.456 C10.305,12.333 10.36275,12.333 10.4625,12.4455 C10.8787583,12.9113841 11.298772,13.3738992 11.7225,13.833 C11.80125,13.91925 11.82225,13.97925 11.7285,14.07675 C11.478,14.34075 11.2425,14.61975 10.99125,14.883 C10.9313103,14.939589 10.8530897,14.972846 10.77075,14.97675 C10.41,14.9865 10.0485,14.98125 9.68775,14.98125 L9.68775,14.9805 Z M10.06125,12.00675 L9.12375,13.26375 L8.01375,14.75175 C7.87275,14.93925 7.83825,14.9355 7.74675,14.7255 C7.50675,14.16675 7.26825,13.60725 7.0245,13.05 C6.97575,12.9375 6.9645,12.837 7.053,12.7455 C7.149,12.648 7.23825,12.5355 7.3515,12.4635 C7.977,12.06675 8.61075,11.6835 9.23775,11.28825 C9.34275,11.22225 9.40275,11.23275 9.48075,11.328 C9.666,11.556 9.86175,11.775 10.06125,12.00675 L10.06125,12.00675 Z M14.4075,11.41575 C14.68125,11.81175 14.91525,12.1485 15.14775,12.486 C15.6740385,13.2481126 16.1990392,14.0111137 16.72275,14.775 C16.755,14.82225 16.76325,14.886 16.78275,14.94225 C16.72875,14.955 16.67625,14.979 16.62225,14.97975 C16.05525,14.982 15.4875,14.9835 14.91975,14.97825 C14.8232041,14.9763428 14.7280433,14.9549125 14.64,14.91525 C13.9515,14.60175 13.266,14.2815 12.5775,13.9665 C12.468,13.91625 12.41775,13.86975 12.51525,13.752 C13.11375,13.0305 13.70775,12.306 14.3025,11.5815 C14.3355,11.5425 14.35875,11.4945 14.4075,11.4165 L14.4075,11.41575 Z"></path>
        </g>
    </g>
</svg>