<?xml version="1.0" encoding="UTF-8"?>
<svg width="24px" height="24px" viewBox="0 0 24 24" version="1.1" xmlns="http://www.w3.org/2000/svg" xmlns:xlink="http://www.w3.org/1999/xlink">
    <!-- Generator: Sketch 53.2 (72643) - https://sketchapp.com -->
    <title>mkr</title>
    <desc>Created with Sketch.</desc>
    <g id="mkr" stroke="none" stroke-width="1" fill="none" fill-rule="evenodd">
        <g fill="#8A8A8F" fill-rule="nonzero" id="Shape">
            <path d="M12,24 C5.37225,24 0,18.62775 0,12 C0,5.37225 5.37225,0 12,0 C18.62775,0 24,5.37225 24,12 C24,18.62775 18.62775,24 12,24 Z M5.8785,9.042 L10.4025,12.31725 L10.4025,16.875 L11.781,16.875 L11.781,11.64525 L4.5,6.375 L4.5,16.875 L5.8785,16.875 L5.8785,9.042 Z M13.5975,12.31725 L18.1215,9.042 L18.1215,16.875 L19.5,16.875 L19.5,6.375 L12.219,11.64525 L12.219,16.875 L13.5975,16.875 L13.5975,12.31725 Z"></path>
        </g>
    </g>
</svg>