<?xml version="1.0" encoding="UTF-8"?>
<svg width="24px" height="24px" viewBox="0 0 24 24" version="1.1" xmlns="http://www.w3.org/2000/svg" xmlns:xlink="http://www.w3.org/1999/xlink">
    <!-- Generator: Sketch 53.2 (72643) - https://sketchapp.com -->
    <title>nexo</title>
    <desc>Created with Sketch.</desc>
    <g id="nexo" stroke="none" stroke-width="1" fill="none" fill-rule="evenodd">
        <g fill="#8A8A8F" fill-rule="nonzero" id="Shape">
            <path d="M3.75,7.62 L7.86375,9.98025 L7.86375,9.98925 L16.056,14.72175 L16.056,9.987 L11.955,7.62 L16.05525,9.98775 L8.00625,5.34525 L8.013,5.34525 C7.91553866,5.28898067 7.79546134,5.28898067 7.698,5.34525 L3.75,7.6185 L3.75,7.62 Z M7.86375,9.99525 L7.86375,14.7345 L15.897,19.3695 C15.9952239,19.4228477 16.1137761,19.4228477 16.212,19.3695 L20.16075,17.094 L17.916,15.7965 L16.056,14.72625 L16.056,14.72175 L16.056,14.72625 L7.86375,9.99525 L7.86375,9.99525 Z M17.916,15.7965 L20.169,17.094 L20.169,7.80225 C20.1683628,7.6872609 20.1051173,7.58175579 20.004,7.527 L16.056,5.25 L16.056,14.7225 L17.916,15.7965 L17.916,15.7965 Z M12,24 C5.37225,24 0,18.62775 0,12 C0,5.37225 5.37225,0 12,0 C18.62775,0 24,5.37225 24,12 C24,18.62775 18.62775,24 12,24 Z M3.75,7.62 L3.75,16.91025 C3.75036357,17.0255084 3.81364763,17.1313654 3.915,17.18625 L7.86375,19.46325 L7.86375,14.7345 L7.84875,14.72625 L7.84875,9.98625 L7.86375,9.99525 L7.86375,9.98925 L7.84875,9.98025 L7.84875,9.98625 L3.75,7.62 Z"></path>
        </g>
    </g>
</svg>