<?xml version="1.0" encoding="UTF-8"?>
<svg width="24px" height="24px" viewBox="0 0 24 24" version="1.1" xmlns="http://www.w3.org/2000/svg" xmlns:xlink="http://www.w3.org/1999/xlink">
    <!-- Generator: Sketch 53.2 (72643) - https://sketchapp.com -->
    <title>npxs</title>
    <desc>Created with Sketch.</desc>
    <g id="npxs" stroke="none" stroke-width="1" fill="none" fill-rule="evenodd">
        <g fill="#8A8A8F" fill-rule="nonzero" id="Shape">
            <path d="M12,24 C5.37225,24 0,18.62775 0,12 C0,5.37225 5.37225,0 12,0 C18.62775,0 24,5.37225 24,12 C24,18.62775 18.62775,24 12,24 Z M11.979,3 C7.029,3 3,7.029 3,11.979 C3,16.929 7.029,20.9655 11.9865,20.9655 C16.94325,20.9655 20.97225,16.9365 20.97225,11.979 C20.97225,7.02225 16.9365,3 11.97975,3 L11.979,3 Z M11.979,20.2725 C7.41,20.2725 3.6855,16.5555 3.6855,11.979 C3.693,7.41 7.41,3.69225 11.979,3.69225 C16.54875,3.69225 20.27325,7.41 20.27325,11.9865 C20.27325,16.5555 16.5555,20.27325 11.979,20.27325 L11.979,20.2725 Z M7.3305,7.9935 L10.845,11.508 L11.5065,10.84725 L7.99125,7.332 L7.3305,7.9935 L7.3305,7.9935 Z M12.444,13.1085 L15.9585,16.62375 L16.62,15.96225 L13.10475,12.44775 L12.444,13.1085 Z M11.322,11.982 L11.988,12.648 L12.64875,11.98725 L11.9835,11.32125 L11.322,11.982 Z M12.45375,10.8765 L13.1145,11.5365 L16.62975,8.022 L15.96825,7.362 L12.45375,10.8765 Z M7.356,15.9675 L8.016,16.62825 L11.53125,13.11375 L10.8705,12.453 L7.356,15.9675 Z"></path>
        </g>
    </g>
</svg>