<?xml version="1.0" encoding="UTF-8"?>
<svg width="24px" height="24px" viewBox="0 0 24 24" version="1.1" xmlns="http://www.w3.org/2000/svg" xmlns:xlink="http://www.w3.org/1999/xlink">
    <!-- Generator: Sketch 53.2 (72643) - https://sketchapp.com -->
    <title>omg</title>
    <desc>Created with Sketch.</desc>
    <g id="omg" stroke="none" stroke-width="1" fill="none" fill-rule="evenodd">
        <g fill="#8A8A8F" fill-rule="nonzero" id="Shape">
            <path d="M12,24 C5.37225,24 0,18.62775 0,12 C0,5.37225 5.37225,0 12,0 C18.62775,0 24,5.37225 24,12 C24,18.62775 18.62775,24 12,24 Z M8.892,12.9675 C7.08922124,12.9687422 5.62867128,14.430971 5.6295,16.23375 C5.62867108,18.0362364 7.08876421,19.4983439 8.89125,19.5 C9.75724553,19.4998011 10.5876822,19.1555437 11.1998225,18.5429814 C11.8119628,17.9304191 12.1556479,17.0997455 12.15525,16.23375 C12.1556479,15.3678844 11.8120657,14.5373244 11.2000876,13.9247837 C10.5881095,13.312243 9.75786556,12.9678977 8.892,12.9675 L8.892,12.9675 Z M8.892,18.51225 C7.63515475,18.5114218 6.61683561,17.4920955 6.61725,16.23525 C6.61685204,15.6315509 6.85628898,15.0524197 7.28288738,14.6252587 C7.70948579,14.1980977 8.28830092,13.9578977 8.892,13.9575 C9.49582906,13.9576988 10.0748369,14.197811 10.5015975,14.6249936 C10.9283581,15.0521762 11.1678979,15.631421 11.1675,16.23525 C11.1658494,17.4915327 10.1482813,18.5097716 8.892,18.51225 L8.892,18.51225 Z M15.8625,6 C14.9966344,6.00039773 14.1663905,6.34474298 13.5544124,6.9572837 C12.9424343,7.56982441 12.5988521,8.40038444 12.59925,9.26625 C12.5984213,11.069029 14.0589712,12.5312578 15.86175,12.5325 C16.7277455,12.5323011 17.5581822,12.1880437 18.1703225,11.5754814 C18.7824628,10.9629191 19.1261479,10.1322455 19.12575,9.26625 C19.1261479,8.40025454 18.7824628,7.56958087 18.1703225,6.95701859 C17.5581822,6.34445631 16.7277455,6.00019885 15.86175,6 L15.8625,6 Z M15.8625,11.54475 C15.258801,11.5445511 14.6799069,11.3045419 14.2531678,10.8775215 C13.8264288,10.4505012 13.5868011,9.87144905 13.587,9.26775 C13.5866021,8.66392104 13.8261419,8.08467621 14.2529025,7.65749363 C14.6796631,7.23031105 15.2586709,6.99019882 15.8625,6.99 C16.4661991,6.99039769 17.0450142,7.23059769 17.4716126,7.6577587 C17.898211,8.08491972 18.137648,8.66405092 18.13725,9.26775 C18.1356007,10.5237406 17.1184884,11.541859 15.8625,11.54475 L15.8625,11.54475 Z M8.892,6 C7.33869597,6.00205326 6.00139684,7.09703064 5.69292202,8.61939752 C5.3844472,10.1417644 6.19001672,11.6709479 7.62,12.2775 C9.05124031,12.8823043 10.7104214,12.3940884 11.586,11.1105 C12.4624665,9.82631221 12.3135151,8.10255268 11.22975,6.98775 L12.1545,6.98775 L12.1545,6 L8.892,6 Z M11.1675,9.26625 C11.1676989,9.86994905 10.9280712,10.4490012 10.5013322,10.8760215 C10.0745931,11.3030419 9.49569905,11.5430511 8.892,11.54325 C7.63515475,11.5424218 6.61683561,10.5230955 6.61725,9.26625 C6.61683561,8.00940455 7.63515475,6.99007817 8.892,6.98925 C10.1485743,6.99131565 11.1665983,8.00967512 11.16825,9.26625 L11.1675,9.26625 L11.1675,9.26625 Z"></path>
        </g>
    </g>
</svg>