<?xml version="1.0" encoding="UTF-8"?>
<svg width="24px" height="24px" viewBox="0 0 24 24" version="1.1" xmlns="http://www.w3.org/2000/svg" xmlns:xlink="http://www.w3.org/1999/xlink">
    <!-- Generator: Sketch 53.2 (72643) - https://sketchapp.com -->
    <title>orbs</title>
    <desc>Created with Sketch.</desc>
    <g id="orbs" stroke="none" stroke-width="1" fill="none" fill-rule="evenodd">
        <path d="M12,24 C5.37225,24 0,18.62775 0,12 C0,5.37225 5.37225,0 12,0 C18.62775,0 24,5.37225 24,12 C24,18.62775 18.62775,24 12,24 Z M13.5332,5.563 L16.3512,6.522 C16.6122,6.611 16.6572,6.533 16.4532,6.349 L14.9782,5.028 C14.7742,4.844 14.4012,4.788 14.1512,4.902 L13.5142,5.194 C13.2642,5.308 13.2722,5.474 13.5332,5.563 Z M15.7148,8.6645 L16.9878,7.5975 C17.1988,7.4215 17.1598,7.2015 16.9018,7.1095 L13.5298,5.9135 C13.2718,5.8205 13.1888,5.9295 13.3468,6.1545 L15.0438,8.5765 C15.2018,8.8015 15.5038,8.8405 15.7148,8.6645 Z M12.4082,6.249 L10.7112,9.118 C10.5702,9.354 10.6792,9.526 10.9542,9.499 L14.4772,9.159 C14.7522,9.132 14.8462,8.926 14.6882,8.701 L12.9502,6.228 C12.7922,6.003 12.5492,6.013 12.4082,6.249 Z M11.9053,5.7583 L8.1103,6.5873 C7.8423,6.6463 7.7723,6.8613 7.9553,7.0663 L9.7673,9.0913 C9.9503,9.2973 10.2173,9.2713 10.3583,9.0353 L12.1353,6.0803 C12.2773,5.8443 12.1743,5.6993 11.9053,5.7583 Z M8.3623,6.2192 L11.9033,5.5012 C12.1733,5.4472 12.1863,5.3132 11.9333,5.2052 L10.7073,4.6812 C10.4543,4.5732 10.0693,4.6232 9.8513,4.7912 L8.2673,6.0132 C8.0503,6.1812 8.0923,6.2742 8.3623,6.2192 Z M11.5674,4.7124 L12.2704,5.0704 C12.5154,5.1954 12.9084,5.1804 13.1424,5.0374 L13.4864,4.8294 C13.7204,4.6864 13.6884,4.5624 13.4134,4.5534 L11.6224,4.5004 C11.3464,4.4924 11.3224,4.5874 11.5674,4.7124 Z M17.2129,6.7085 C17.4029,6.9065 17.5829,7.0125 17.6109,6.9435 C17.6399,6.8755 17.4819,6.6865 17.2589,6.5245 L16.9229,6.2795 C16.6999,6.1175 16.6749,6.1475 16.8649,6.3455 L17.2129,6.7085 Z M18.333,8.0883 C18.526,8.2833 18.578,8.2453 18.448,8.0033 L18.317,7.7593 C18.187,7.5173 18.02,7.3003 17.945,7.2763 C17.871,7.2543 17.81,7.3083 17.81,7.3973 C17.81,7.4853 17.968,7.7183 18.161,7.9133 L18.333,8.0883 Z M17.1885,7.7964 L15.8405,8.9164 C15.6285,9.0914 15.6225,9.3874 15.8255,9.5724 L17.9615,11.5234 C18.1655,11.7084 18.2925,11.6384 18.2465,11.3674 L17.6585,7.9694 C17.6115,7.6984 17.4005,7.6204 17.1885,7.7964 Z M17.8994,12.4868 C18.1544,12.3828 18.1964,12.1468 17.9924,11.9618 L15.7114,9.8838 C15.5064,9.6988 15.2844,9.7658 15.2134,10.0318 L14.3014,13.5228 C14.2314,13.7888 14.3824,13.9218 14.6374,13.8178 L17.8994,12.4868 Z M13.957,13.435 L14.928,9.884 C15,9.619 14.836,9.423 14.561,9.449 L10.954,9.792 C10.68,9.818 10.6,10.013 10.774,10.225 L13.507,13.532 C13.682,13.744 13.885,13.701 13.957,13.435 Z M9.4395,10.1674 L6.1375,11.5034 C5.8825,11.6064 5.8405,11.8414 6.0455,12.0244 L8.3275,14.0734 C8.5325,14.2564 8.7575,14.1894 8.8305,13.9244 L9.7725,10.4624 C9.8445,10.1974 9.6945,10.0644 9.4395,10.1674 Z M10.085,10.5644 L9.212,14.0724 C9.146,14.3394 9.314,14.5354 9.588,14.5084 L13.141,14.1544 C13.414,14.1274 13.492,13.9334 13.314,13.7244 L10.53,10.4594 C10.352,10.2504 10.151,10.2974 10.085,10.5644 Z M6.2441,11.1264 L9.4061,9.8914 C9.6621,9.7914 9.7251,9.5394 9.5461,9.3304 L7.7141,7.2024 C7.5341,6.9944 7.3111,7.0354 7.2191,7.2944 L5.9471,10.8374 C5.8541,11.0964 5.9881,11.2264 6.2441,11.1264 Z M5.3809,10.6069 C5.4799,10.8639 5.6359,10.8619 5.7289,10.6029 L6.7659,7.7059 C6.8589,7.4469 6.7689,7.3869 6.5649,7.5719 L5.1949,8.8179 C4.9909,9.0029 4.9049,9.3649 5.0039,9.6219 L5.3809,10.6069 Z M5.7627,12.4546 L6.4817,15.9956 C6.5357,16.2646 6.7487,16.3366 6.9547,16.1536 L8.2067,15.0456 C8.4127,14.8636 8.4167,14.5596 8.2167,14.3716 L6.0277,12.3076 C5.8267,12.1186 5.7077,12.1846 5.7627,12.4546 Z M18.0537,8.4253 L18.5967,11.4723 C18.6457,11.7423 18.8267,11.7903 19.0007,11.5773 L19.4147,11.0703 C19.5887,10.8573 19.6107,10.4933 19.4607,10.2623 L18.2367,8.3543 C18.0867,8.1223 18.0047,8.1543 18.0537,8.4253 Z M19.3457,11.5981 L19.0017,12.0151 C18.8267,12.2281 18.7657,12.6121 18.8657,12.8681 L19.1757,13.6701 C19.2757,13.9261 19.3797,13.9121 19.4077,13.6391 L19.6117,11.7091 C19.6397,11.4351 19.5207,11.3861 19.3457,11.5981 Z M18.7646,13.3393 C18.6786,13.0783 18.5306,13.0753 18.4346,13.3333 L17.3586,16.2453 C17.2626,16.5033 17.3546,16.5673 17.5626,16.3873 L18.9006,15.2293 C19.1086,15.0493 19.2076,14.6883 19.1216,14.4263 L18.7646,13.3393 Z M17.7832,12.9013 L14.7322,14.1313 C14.4772,14.2343 14.4162,14.4883 14.5962,14.6953 L16.3562,16.7123 C16.5372,16.9203 16.7612,16.8773 16.8522,16.6183 L18.0792,13.1853 C18.1712,12.9263 18.0382,12.7983 17.7832,12.9013 Z M12.3145,18.2085 L15.9475,17.3875 C16.2145,17.3265 16.2845,17.1095 16.1005,16.9045 L14.2475,14.8365 C14.0635,14.6315 13.8055,14.6625 13.6745,14.9045 L12.0655,17.8785 C11.9345,18.1215 12.0465,18.2695 12.3145,18.2085 Z M11.7139,17.7802 L13.3899,14.8412 C13.5259,14.6022 13.4139,14.4312 13.1409,14.4612 L9.6599,14.8402 C9.3869,14.8692 9.2909,15.0792 9.4479,15.3042 L11.1809,17.8032 C11.3379,18.0292 11.5769,18.0192 11.7139,17.7802 Z M7.2598,16.8808 L10.5668,18.0478 C10.8258,18.1398 10.9098,18.0288 10.7548,17.8018 L9.1138,15.4188 C8.9588,15.1918 8.6578,15.1508 8.4468,15.3268 L7.1718,16.3938 C6.9608,16.5698 6.9998,16.7888 7.2598,16.8808 Z M10.5674,18.3799 L7.6864,17.3509 C7.4274,17.2589 7.3804,17.3359 7.5824,17.5229 L9.2094,19.0309 C9.4104,19.2179 9.7714,19.2599 10.0104,19.1259 L10.6024,18.7929 C10.8414,18.6579 10.8264,18.4719 10.5674,18.3799 Z M12.6162,19.3174 L11.8992,18.9444 C11.6552,18.8184 11.2552,18.8144 11.0082,18.9364 L10.5812,19.1484 C10.3342,19.2704 10.3572,19.3844 10.6322,19.4004 L12.5602,19.5174 C12.8352,19.5344 12.8602,19.4434 12.6162,19.3174 Z M15.6318,17.8007 L12.4088,18.4577 C12.1398,18.5127 12.1188,18.6607 12.3638,18.7857 L13.4108,19.3207 C13.6558,19.4457 14.0308,19.4057 14.2438,19.2317 L15.7348,18.0167 C15.9468,17.8427 15.9018,17.7457 15.6318,17.8007 Z M16.2949,17.9863 L15.6059,18.5413 C15.3909,18.7143 15.4129,18.7473 15.6549,18.6163 L16.4539,18.1823 C16.6959,18.0513 16.8469,17.8823 16.7889,17.8083 C16.7319,17.7343 16.5099,17.8143 16.2949,17.9863 Z M17.3604,17.0576 C17.1604,17.2466 17.0624,17.4626 17.1424,17.5376 C17.2224,17.6116 17.4194,17.4896 17.5794,17.2666 L18.2214,16.3706 C18.3814,16.1476 18.3494,16.1196 18.1494,16.3086 L17.3604,17.0576 Z M6.0439,15.5175 L5.5599,12.4575 C5.5169,12.1865 5.3429,12.1415 5.1739,12.3585 L4.7009,12.9655 C4.5319,13.1835 4.5169,13.5485 4.6669,13.7795 L5.8489,15.5925 C5.9989,15.8225 6.0869,15.7885 6.0439,15.5175 Z M5.0586,11.9633 C5.2316,11.7493 5.3006,11.3603 5.2126,11.0993 L4.9066,10.1833 C4.8186,9.9223 4.7256,9.9333 4.6996,10.2073 L4.5036,12.2163 C4.4776,12.4903 4.5966,12.5393 4.7696,12.3243 L5.0586,11.9633 Z M6.7617,6.874 C6.9597,6.683 7.0627,6.48 6.9897,6.423 C6.9157,6.366 6.7227,6.5 6.5597,6.721 L5.9597,7.531 C5.7967,7.752 5.8247,7.777 6.0237,7.586 L6.7617,6.874 Z M7.8574,6.0073 L8.5214,5.4793 C8.7374,5.3073 8.7114,5.2693 8.4664,5.3933 L7.5684,5.8483 C7.3234,5.9723 7.1994,6.1293 7.2944,6.1963 C7.3884,6.2633 7.6414,6.1783 7.8574,6.0073 Z M5.4912,15.4995 C5.3232,15.2825 5.2922,15.3025 5.4242,15.5435 L5.8832,16.3845 C6.0142,16.6255 6.1752,16.7755 6.2392,16.7175 C6.3032,16.6585 6.2182,16.4325 6.0502,16.2155 L5.4912,15.4995 Z M6.9922,17.3012 C6.7982,17.1072 6.5742,16.9982 6.4972,17.0582 C6.4202,17.1182 6.5412,17.2952 6.7672,17.4522 L7.6062,18.0342 C7.8332,18.1912 7.8582,18.1602 7.6632,17.9662 L6.9922,17.3012 Z" id="Combined-Shape" fill="#8A8A8F" fill-rule="nonzero"></path>
    </g>
</svg>