<?xml version="1.0" encoding="UTF-8"?>
<svg width="24px" height="24px" viewBox="0 0 24 24" version="1.1" xmlns="http://www.w3.org/2000/svg" xmlns:xlink="http://www.w3.org/1999/xlink">
    <!-- Generator: Sketch 53.2 (72643) - https://sketchapp.com -->
    <title>pax</title>
    <desc>Created with Sketch.</desc>
    <g id="pax" stroke="none" stroke-width="1" fill="none" fill-rule="evenodd">
        <g fill="#8A8A8F" fill-rule="nonzero" id="Shape">
            <path d="M12,24 C5.37225,24 0,18.62775 0,12 C0,5.37225 5.37225,0 12,0 C18.62775,0 24,5.37225 24,12 C24,18.62775 18.62775,24 12,24 Z M20.16,10.0125 L20.535,10.575 C21.285,8.685 21.1125,7.2075 20.4375,6.5625 C19.2225,5.3925 17.4375,6.045 15.5025,5.235 C13.89,4.05 12.915,3.735 11.5725,3.735 C10.6555175,3.89274126 9.80665454,4.32109059 9.135,4.965 C8.03903552,4.90090322 6.97002629,5.32028376 6.21,6.1125 C5.415,7.05 5.235,9.6225 5.115,10.275 C4.995,10.9275 3.615,13.56 3.7575,15 C3.9,16.44 4.9575,18 7.95,18.3675 C9.07376121,19.6727155 10.7286487,20.3981078 12.45,20.34 C14.0175,20.175 16.2,17.775 17.4675,16.8225 C18.735,15.87 23.25,15.045 20.5575,10.6125 C20.4420922,10.4187795 20.3169313,10.2310382 20.1825,10.05 L20.16,10.0125 Z M13.3125,16.6125 C10.9607933,17.0686659 8.61636252,15.7910298 7.725,13.5675 C7.56,12.9225 7.2375,9.6375 9.975,8.01 C12.015,6.855 14.8875,6.6975 16.095,9.39 C17.3025,12.0825 16.86,15.855 13.3125,16.6125 L13.3125,16.6125 Z"></path>
        </g>
    </g>
</svg>