<?xml version="1.0" encoding="UTF-8"?>
<svg width="24px" height="24px" viewBox="0 0 24 24" version="1.1" xmlns="http://www.w3.org/2000/svg" xmlns:xlink="http://www.w3.org/1999/xlink">
    <!-- Generator: Sketch 53.2 (72643) - https://sketchapp.com -->
    <title>poly</title>
    <desc>Created with Sketch.</desc>
    <g id="poly" stroke="none" stroke-width="1" fill="none" fill-rule="evenodd">
        <g fill="#8A8A8F" fill-rule="nonzero" id="Shape">
            <path d="M12,24 C5.37225,24 0,18.62775 0,12 C0,5.37225 5.37225,0 12,0 C18.62775,0 24,5.37225 24,12 C24,18.62775 18.62775,24 12,24 Z M20.25,8.44725 L20.217,7.917 L20.0535,8.36175 L19.134,9.13425 L18.081,9.29175 L17.766,8.99925 L18.6885,7.7745 L19.635,7.5 L18.612,7.521 L17.12475,8.5575 L15.7305,8.4615 L13.77225,7.5 L12.61575,7.725 L9.00825,10.60875 L7.26825,11.1465 L6.5535,11.844 L5.274,11.862 L4.64025,12.9945 L3.75,13.2405 L4.5915,13.35075 L5.37375,12.336 L6.58275,12.57825 L6.56025,13.66425 L5.9565,15.22725 L5.6115,16.67325 L5.24025,17.25 L6.18225,17.0505 L6.075,16.4595 L6.876,14.871 L8.418,14.27325 L9.015,13.32225 L10.02375,12.61725 L12.02625,12.8985 L14.043,12.04725 L13.70175,13.3935 L12.80475,13.4715 L12.549,14.5755 L13.31625,14.08425 L14.58825,13.554 L15.582,12.054 L15.645,11.346 L16.179,11.87625 L17.73225,12.813 L18.615,12.41025 L18.5625,10.43025 L18.3075,9.66525 L19.46025,9.384 L20.25,8.44725 Z"></path>
        </g>
    </g>
</svg>