<?xml version="1.0" encoding="UTF-8"?>
<svg width="24px" height="24px" viewBox="0 0 24 24" version="1.1" xmlns="http://www.w3.org/2000/svg" xmlns:xlink="http://www.w3.org/1999/xlink">
    <!-- Generator: Sketch 53.2 (72643) - https://sketchapp.com -->
    <title>ppt</title>
    <desc>Created with Sketch.</desc>
    <g id="ppt" stroke="none" stroke-width="1" fill="none" fill-rule="evenodd">
        <g fill="#8A8A8F" fill-rule="nonzero" id="Shape">
            <path d="M12,24 C5.37225,24 0,18.62775 0,12 C0,5.37225 5.37225,0 12,0 C18.62775,0 24,5.37225 24,12 C24,18.62775 18.62775,24 12,24 Z M12.03675,6.237 C13.02375,6.237 13.82325,5.68725 13.82325,5.0085 C13.82325,4.32975 13.02375,3.78 12.03675,3.78 C11.04975,3.78 10.2495,4.32975 10.2495,5.0085 C10.2495,5.68725 11.04975,6.237 12.03675,6.237 Z M11.112,19.95 C11.112,20.097 11.24175,20.23125 11.3895,20.23125 L12.63975,20.23125 C12.78675,20.23125 12.9,20.097 12.9,19.95 L12.9,14.64 L15.096,14.64 C15.243,14.64 15.348,14.514 15.348,14.367 L15.348,7.086 C15.348,6.93825 15.24375,6.828 15.096,6.828 L11.112,6.828 L11.112,19.95075 L11.112,19.95 Z M10.44,14.63925 L10.44,6.828 L8.9325,6.828 C8.78475,6.828 8.652,6.93825 8.652,7.086 L8.652,14.367 C8.652,14.514 8.78475,14.64 8.93175,14.64 L10.44,14.64 L10.44,14.63925 Z"></path>
        </g>
    </g>
</svg>