<?xml version="1.0" encoding="UTF-8"?>
<svg width="24px" height="24px" viewBox="0 0 24 24" version="1.1" xmlns="http://www.w3.org/2000/svg" xmlns:xlink="http://www.w3.org/1999/xlink">
    <!-- Generator: Sketch 53.2 (72643) - https://sketchapp.com -->
    <title>rep</title>
    <desc>Created with Sketch.</desc>
    <g id="rep" stroke="none" stroke-width="1" fill="none" fill-rule="evenodd">
        <g fill="#8A8A8F" fill-rule="nonzero" id="Shape">
            <path d="M12,24 C5.37225,24 0,18.62775 0,12 C0,5.37225 5.37225,0 12,0 C18.62775,0 24,5.37225 24,12 C24,18.62775 18.62775,24 12,24 Z M19.41975,15.4965 L12.9375,4.077 C12.8212682,3.87412242 12.6050632,3.74926762 12.37125,3.75 C12.1374368,3.74926762 11.9212318,3.87412242 11.805,4.077 L5.3325,15.49725 C5.16291132,15.796913 5.26670497,16.1772665 5.565,16.34925 L12.04275,20.15925 C12.248474,20.2794711 12.503026,20.2794711 12.70875,20.15925 L19.18575,16.35225 C19.4838729,16.1805457 19.5879572,15.8006883 19.419,15.501 L19.4205,15.4965 L19.41975,15.4965 Z M15.43725,12.234 C15.2303012,11.650752 14.8575468,11.1406259 14.36475,10.76625 L14.35875,10.761 C14.3066831,10.7216082 14.2534075,10.6838401 14.199,10.64775 L14.1885,10.64025 C14.1349007,10.6050667 14.0803817,10.571305 14.025,10.539 L14.01,10.53 C13.9556973,10.4985262 13.8998799,10.4697414 13.84275,10.44375 L13.82625,10.43475 C13.767794,10.4072941 13.7087816,10.3810386 13.64925,10.356 L13.62975,10.3485 C13.4370743,10.2685094 13.2371546,10.2072275 13.03275,10.1655 C12.9149637,10.379106 12.7635221,10.5723334 12.58425,10.73775 C13.005272,10.7713444 13.4120007,10.9058916 13.77,11.13 L13.79025,11.142 L13.88925,11.2095 L13.93425,11.241 C13.96425,11.2635 13.992,11.286 14.02275,11.3085 L14.073,11.349 C14.1,11.3715 14.12475,11.394 14.15025,11.41725 L14.20125,11.466 L14.271,11.5365 L14.322,11.59125 L14.38425,11.664 L14.433,11.72475 L14.48925,11.79975 C14.508,11.8245 14.52075,11.844 14.53575,11.86575 C14.55075,11.8875 14.57025,11.916 14.586,11.94225 L14.6295,12.01425 C14.643,12.03825 14.6595,12.06525 14.673,12.09075 C14.688,12.1155 14.7,12.14325 14.7135,12.17025 C14.72625,12.19725 14.739,12.21975 14.75025,12.24525 C14.7642753,12.2785359 14.7777769,12.3120401 14.79075,12.34575 C14.8619163,12.5233342 14.9122524,12.708571 14.94075,12.89775 L15.0225,13.20075 C15.057,13.32675 15.37575,14.44275 16.1145,14.8185 C16.96125,15.25275 18.0825,15.789 18.5235,16.00125 L12.699,19.42125 L12.699,17.0775 C12.699,16.70775 13.449,16.275 13.79625,16.12275 L13.8165,16.1115 C13.88775,16.07625 13.959,16.038 14.0265,15.9975 L14.05575,15.9825 C14.2059639,15.8920109 14.3488968,15.7899519 14.48325,15.67725 L14.51925,15.645 L14.5605,15.60825 C14.6027319,15.5703018 14.6439951,15.5312893 14.68425,15.49125 L14.70525,15.471 C14.7495,15.42675 14.79375,15.38475 14.83275,15.333 L14.8695,15.291 C14.9025,15.252 14.934,15.21225 14.96475,15.17175 L14.99175,15.138 C15.02925,15.0885 15.06375,15.0375 15.09825,14.98575 L15.11025,14.97075 C15.15675,14.898 15.198,14.82525 15.2415,14.7495 C15.0781629,14.5523297 14.9382292,14.3368923 14.8245,14.1075 C14.778,14.23725 14.7195,14.36325 14.652,14.484 C14.6235,14.5365 14.5935,14.5875 14.5635,14.637 L14.55,14.65725 C14.5216926,14.69934 14.4921804,14.740607 14.4615,14.781 L14.4345,14.8155 C14.403946,14.8549369 14.3719235,14.8932138 14.3385,14.93025 L14.3205,14.95125 C14.1035128,15.188215 13.844359,15.3827711 13.55625,15.525 L13.5015,15.55275 C13.35375,15.618 12.05175,16.1955 12.05175,17.07375 L12.05175,19.41825 L6.20925,15.99225 C6.585,15.76275 7.683,15.12375 8.586,14.8425 C8.93925,14.7345 9.68925,15.19725 10.1145,15.537 L10.14,15.5595 C10.19625,15.612 10.2555,15.66225 10.317,15.7095 L10.338,15.72825 C10.473,15.83625 10.617,15.933 10.76775,16.0185 L10.869,16.07325 L10.88925,16.08375 C10.9875,16.13325 11.088,16.17825 11.19075,16.218 L11.23575,16.23525 L11.26575,16.24725 C11.4135,16.30125 11.56575,16.34325 11.7195,16.37475 C11.8404994,16.1584631 11.9966297,15.9638071 12.1815,15.79875 C11.9350249,15.7805011 11.6923707,15.7274757 11.46075,15.64125 L11.421,15.62625 L11.3445,15.5955 L11.3055,15.579 L11.23125,15.5445 C11.0592969,15.4610912 10.8970663,15.358974 10.7475,15.24 L10.515,15.033 C10.3015172,14.8491705 10.0703947,14.6868823 9.825,14.5485 C9.2475,14.226 8.7645,14.121 8.394,14.235 C7.6215,14.4735 6.7515,14.937 6.2205,15.243 L12.054,4.95525 L12.054,9.4605 C12.054,9.62025 11.814,10.03725 11.01225,10.39125 L10.95675,10.42125 C10.87875,10.45875 10.803,10.49925 10.72875,10.54275 L10.71375,10.55025 C10.4670155,10.6958781 10.2405633,10.8734086 10.04025,11.07825 L10.03275,11.08575 C9.95687903,11.1637891 9.88503579,11.2456453 9.8175,11.331 L9.80925,11.34225 C9.77665586,11.383859 9.74489948,11.4261175 9.714,11.469 L9.7035,11.484 C9.67568819,11.5244596 9.64868287,11.5654677 9.6225,11.607 L9.6135,11.61975 C9.58708891,11.6623116 9.56182974,11.7055773 9.53775,11.7495 L9.5205,11.78025 C9.49875,11.82225 9.477,11.86725 9.45525,11.90625 L9.4455,11.9265 C9.42618073,11.9660035 9.40792417,12.0060178 9.39075,12.0465 L9.372,12.0915 C9.35475,12.1335 9.339,12.1785 9.32325,12.219 L9.30825,12.264 C9.29677589,12.2961772 9.28627115,12.3286919 9.27675,12.3615 C9.2715,12.3795 9.2655,12.39675 9.261,12.4155 C9.21794838,12.5661049 9.18660499,12.719813 9.16725,12.87525 L9.15975,12.945 C9.15620296,12.9766759 9.15345209,13.0084359 9.1515,13.04025 C9.15,13.0725 9.1515,13.104 9.14625,13.1355 C9.141,13.16775 9.14625,13.1745 9.14625,13.1955 L9.14625,13.26675 C9.14625,13.42425 9.15825,13.58175 9.18225,13.7385 C9.43349543,13.7998002 9.67666402,13.890422 9.90675,14.0085 C9.83611718,13.782055 9.79823364,13.5466718 9.79425,13.3095 L9.79425,13.26675 C9.79425,13.20975 9.79425,13.1535 9.801,13.0935 L9.801,13.0485 C9.801,12.99975 9.81075,12.95025 9.8175,12.9015 L9.8175,12.8805 C9.8252531,12.8262497 9.83576674,12.7724298 9.849,12.71925 L9.858,12.678 C9.86925,12.633 9.8805,12.5895 9.89475,12.54525 L9.90375,12.51675 C9.91875,12.465 9.9375,12.41475 9.957,12.3645 L9.972,12.33075 C9.9885,12.2895 10.0065,12.24825 10.02525,12.207 L10.0395,12.1755 C10.06275,12.12675 10.08825,12.0795 10.1145,12.03225 L10.12875,12.009 C10.1523817,11.9683187 10.1771413,11.9283032 10.203,11.889 L10.22175,11.86125 C10.2525,11.81625 10.284,11.77425 10.31775,11.72775 L10.32375,11.72025 C10.356,11.679 10.38975,11.63925 10.42425,11.60025 L10.443,11.57775 C10.60125,11.40375 10.78275,11.2515 10.983,11.1255 L11.259,10.998 C11.40675,10.93275 12.70275,10.3395 12.70275,9.4605 L12.70275,4.95525 L18.582,15.32025 C18.057,15.0675 17.1345,14.62125 16.4145,14.25525 C16.0035,14.04525 15.723,13.305 15.651,13.0395 L15.5715,12.72825 C15.5420734,12.5612331 15.4989273,12.3969266 15.4425,12.237 L15.4365,12.234 L15.43725,12.234 Z"></path>
        </g>
    </g>
</svg>