<?xml version="1.0" encoding="UTF-8"?>
<svg width="24px" height="24px" viewBox="0 0 24 24" version="1.1" xmlns="http://www.w3.org/2000/svg" xmlns:xlink="http://www.w3.org/1999/xlink">
    <!-- Generator: Sketch 53.2 (72643) - https://sketchapp.com -->
    <title>snt</title>
    <desc>Created with Sketch.</desc>
    <g id="snt" stroke="none" stroke-width="1" fill="none" fill-rule="evenodd">
        <g fill="#8A8A8F" fill-rule="nonzero" id="Shape">
            <path d="M12,24 C5.37225,24 0,18.62775 0,12 C0,5.37225 5.37225,0 12,0 C18.62775,0 24,5.37225 24,12 C24,18.62775 18.62775,24 12,24 Z M9.975,11.265 C11.6625,11.265 12.46125,11.59125 14.148,11.59125 C16.43325,11.59125 18,10.65825 18,8.727 C18,6.7965 16.695,5.8635 14.79,5.8635 C11.679,5.8635 9.066,8.23725 8.727,11.373 C9.13885733,11.2992545 9.55659933,11.2633548 9.975,11.26575 L9.975,11.265 Z M9.852,12.40875 C7.56675,12.40875 6,13.3425 6,15.273 C6,17.2035 7.305,18.1365 9.21,18.1365 C12.321,18.1365 14.934,15.76275 15.273,12.627 C14.8611658,12.7009969 14.4434236,12.7371477 14.025,12.735 C12.3375,12.735 11.53875,12.40875 9.852,12.40875 L9.852,12.40875 Z"></path>
        </g>
    </g>
</svg>