<?xml version="1.0" encoding="UTF-8"?>
<svg width="24px" height="24px" viewBox="0 0 24 24" version="1.1" xmlns="http://www.w3.org/2000/svg" xmlns:xlink="http://www.w3.org/1999/xlink">
    <!-- Generator: Sketch 53.2 (72643) - https://sketchapp.com -->
    <title>Stellar</title>
    <desc>Created with Sketch.</desc>
    <g id="Stellar" stroke="none" stroke-width="1" fill="none" fill-rule="evenodd">
        <path d="M22.3070034,5.85099828 C22.6117959,6.36080515 22.8798368,6.89511436 23.1074687,7.45026564 L1.69688209,18.155559 C1.39176263,17.6459472 1.12338013,17.1118092 0.895394918,16.5568026 L22.3070034,5.85099828 Z M21.1151447,4.19485552 L4.0292,12.7374 C4.0072,12.4964 3.9962,12.2534 3.9962,12.0064 C3.9962,7.5884 7.5772,4.0064 11.9962,4.0064 C13.4262,4.0064 14.7692,4.3814 15.9302,5.0394 L17.9962,4.0064 C16.3252,2.7504 14.2472,2.0064 11.9962,2.0064 C6.4732,2.0064 1.9962,6.4834 1.9962,12.0064 C1.9962,12.1203376 2.00036612,12.2501362 2.00869835,12.3957958 C2.05431556,13.1931067 1.62123126,13.941125 0.907062004,14.2985434 L0.284633243,14.6100486 C0.098274027,13.7697927 0,12.8963827 0,12 C0,5.373 5.373,0 12,0 C15.6473685,0 18.9143865,1.6270883 21.1151447,4.19485552 Z M23.7170168,9.39749161 C23.9023076,10.2354556 24,11.1063255 24,12 C24,18.628 18.628,24 12,24 C8.3558083,24 5.09081459,22.3755569 2.88994624,19.8110993 L19.963,11.275 C19.985,11.516 19.996,11.759 19.996,12.006 C19.996,16.424 16.414,20.006 11.996,20.006 C10.566,20.006 9.223,19.631 8.061,18.973 L5.996,20.006 C7.667,21.262 9.745,22.006 11.996,22.006 C17.519,22.006 21.996,17.529 21.996,12.006 C21.996,11.8919786 21.9918278,11.7620431 21.9834833,11.6161934 C21.9378553,10.8186092 22.3712453,10.0703774 23.0857927,9.71310367 L23.7170168,9.39749161 Z" id="Combined-Shape" fill="#8A8A8F" fill-rule="nonzero"></path>
    </g>
</svg>