<?xml version="1.0" encoding="UTF-8"?>
<svg width="24px" height="24px" viewBox="0 0 24 24" version="1.1" xmlns="http://www.w3.org/2000/svg" xmlns:xlink="http://www.w3.org/1999/xlink">
    <!-- Generator: Sketch 53.2 (72643) - https://sketchapp.com -->
    <title>tusd</title>
    <desc>Created with Sketch.</desc>
    <g id="tusd" stroke="none" stroke-width="1" fill="none" fill-rule="evenodd">
        <g fill="#8A8A8F" fill-rule="nonzero" id="Shape">
            <path d="M12,24 C5.37225,24 0,18.62775 0,12 C0,5.37225 5.37225,0 12,0 C18.62775,0 24,5.37225 24,12 C24,18.62775 18.62775,24 12,24 Z M12.79275,14.271 L12.79275,9.876 L13.37025,9.876 C15.279,9.876 15.74925,8.09625 15.74925,8.09625 L10.737,8.09625 C8.358,8.09625 7.9545,9.87675 7.9545,9.87675 L10.91175,9.87675 L10.91175,16.4895 C10.91175,16.4895 12.79275,15.92475 12.79275,14.271 Z M18.29625,17.6955 C19.98225,15.9435 20.62875,13.5105 20.022,11.18325 C19.7017951,9.96551748 19.0592547,8.85661719 18.162,7.97325 C18.081,7.89375 18,7.81275 17.9055,7.73325 L17.8245,7.653 C17.7694983,7.59996874 17.7108553,7.55084891 17.649,7.506 L17.541,7.42575 L17.37975,7.30575 L17.2845,7.23825 C17.2201212,7.19609246 17.1573281,7.15156186 17.09625,7.10475 L16.974,7.02525 C16.9231811,6.98921054 16.869212,6.95783316 16.81275,6.9315 L16.69125,6.85125 C16.63725,6.82425 16.58325,6.78375 16.52925,6.7575 L16.40775,6.69 C16.3506396,6.66053355 16.2920635,6.63399908 16.23225,6.6105 L16.191,6.597 C16.3395,6.717 16.48725,6.85125 16.62225,6.98475 C17.8650765,8.21702663 18.5641828,9.89469693 18.5641828,11.644875 C18.5641828,13.3950531 17.8650765,15.0727234 16.62225,16.305 C13.33275,19.5675 7.9935,19.5675 4.7025,16.305 C4.581,16.185 4.473,16.065 4.35225,15.945 L4.25775,15.83775 C4.18708556,15.7555694 4.1195378,15.6707594 4.05525,15.5835 C4.47827453,16.4130866 5.02898655,17.1710749 5.68725,17.82975 C9.12525,21.23925 14.70675,21.23925 18.14475,17.82975 C18.2046599,17.7965748 18.2564163,17.7504552 18.29625,17.69475 L18.29625,17.6955 Z M7.8,16.7895 C7.64995365,16.6671491 7.50579184,16.5377539 7.368,16.40175 C6.12388974,15.1683281 5.42405034,13.4890211 5.42405034,11.737125 C5.42405034,9.98522893 6.12388974,8.30592187 7.368,7.0725 C10.66125,3.807 16.005,3.807 19.29825,7.0725 C19.52775,7.3005 19.743,7.54125 19.9455,7.7955 C19.5220107,6.9693712 18.9710051,6.21512372 18.31275,5.5605 C14.87175,2.14725 9.28425,2.14725 5.84325,5.5605 C5.80275,5.60025 5.76225,5.65425 5.70825,5.694 C3.4275,8.07675 3.117,11.637 4.9395,14.34075 C5.655,15.38325 6.6525,16.25325 7.8,16.7895 Z"></path>
        </g>
    </g>
</svg>