<?xml version="1.0" encoding="UTF-8"?>
<svg width="24px" height="24px" viewBox="0 0 24 24" version="1.1" xmlns="http://www.w3.org/2000/svg" xmlns:xlink="http://www.w3.org/1999/xlink">
    <!-- Generator: Sketch 53.2 (72643) - https://sketchapp.com -->
    <title>usdc</title>
    <desc>Created with Sketch.</desc>
    <g id="usdc" stroke="none" stroke-width="1" fill="none" fill-rule="evenodd">
        <g fill="#8A8A8F" fill-rule="nonzero" id="Shape">
            <path d="M12,24 C5.37225,24 0,18.62775 0,12 C0,5.37225 5.37225,0 12,0 C18.62775,0 24,5.37225 24,12 C24,18.62775 18.62775,24 12,24 Z M11.8125,20.625 C16.6795094,20.625 20.625,16.6795094 20.625,11.8125 C20.625,6.945 16.68,3 11.8125,3 C6.945,3 3,6.945 3,11.8125 C3,16.68 6.945,20.625 11.8125,20.625 Z M11.2875,8.5425 L11.2875,7.9875 C11.2875,7.69547944 11.5242294,7.45875 11.81625,7.45875 C12.1082706,7.45875 12.345,7.69547944 12.345,7.9875 L12.345,8.505 C13.2015899,8.56682728 13.9215749,9.17185667 14.13,10.005 C14.1676083,10.172467 14.0642226,10.3392181 13.8975,10.38 L13.545,10.38 C13.3135191,10.3787964 13.1033776,10.2445393 13.005,10.035 C12.7620931,9.61504276 12.2950223,9.37710106 11.8125,9.4275 C11.0625,9.4275 10.6125,9.8925 10.6125,10.3125 C10.6125,10.7325 10.965,10.98 11.715,11.1675 L12.465,11.3325 C13.7625,11.61 14.31,12.1575 14.31,13.11 C14.2938099,14.1748068 13.4323615,15.0329292 12.3675,15.045 L12.3675,15.6825 C12.3675,15.9745206 12.1307706,16.21125 11.83875,16.21125 C11.5467294,16.21125 11.31,15.9745206 11.31,15.6825 L11.31,15.0525 C10.3786095,15.0383168 9.57417737,14.3972368 9.3525,13.4925 C9.33934832,13.4238506 9.35411909,13.3527909 9.39353878,13.2950692 C9.43295847,13.2373475 9.49377137,13.1977311 9.5625,13.185 L10.005,13.185 C10.201044,13.1864617 10.3788961,13.3001704 10.4625,13.4775 C10.7446399,13.9447865 11.2689235,14.209841 11.8125,14.16 C12.5625,14.16 13.14,13.71 13.14,13.2525 C13.14,12.795 12.81,12.525 12.0075,12.3375 L11.1825,12.1425 C10.005,11.895 9.45,11.3025 9.45,10.395 C9.4914314,9.39530032 10.2881702,8.59205754 11.2875,8.5425 L11.2875,8.5425 Z M5.205,11.8125 C5.20676148,8.97067773 7.02940151,6.44981242 9.7275,5.5575 C9.82441538,5.52322992 9.93195592,5.53840469 10.0156045,5.59815368 C10.0992531,5.65790268 10.1484856,5.75470867 10.1475,5.8575 L10.1475,6.03 C10.1470042,6.31340842 9.9750728,6.56834119 9.7125,6.675 C7.62526063,7.51748303 6.25860707,9.54289553 6.25860707,11.79375 C6.25860707,14.0446045 7.62526063,16.070017 9.7125,16.9125 C9.97625097,17.0218475 10.1480065,17.2794808 10.1475,17.565 L10.1475,17.7225 C10.1475,17.9088961 9.9963961,18.06 9.81,18.06 L9.705,18.06 C7.01840994,17.1607604 5.20676205,14.6455893 5.205,11.8125 L5.205,11.8125 Z M18.42,11.8125 C18.4225425,14.6463636 16.6137438,17.1647911 13.9275,18.0675 C13.8206117,18.103504 13.7029487,18.0861847 13.6109683,18.0209083 C13.518988,17.9556319 13.4637984,17.8502817 13.4625,17.7375 L13.4625,17.61 C13.4702631,17.3190288 13.6456804,17.0588264 13.9125,16.9425 C15.9948343,16.0976083 17.3571265,14.0747112 17.3571265,11.8275 C17.3571265,9.58028882 15.9948343,7.55739175 13.9125,6.7125 C13.6403218,6.59729839 13.4611793,6.3329898 13.455,6.0375 L13.455,5.925 C13.455,5.73 13.6125,5.5725 13.8075,5.5725 L13.92,5.5725 C16.6039768,6.47086061 18.4150184,8.98217165 18.42,11.8125 Z"></path>
        </g>
    </g>
</svg>