<?xml version="1.0" encoding="UTF-8"?>
<svg width="24px" height="24px" viewBox="0 0 24 24" version="1.1" xmlns="http://www.w3.org/2000/svg" xmlns:xlink="http://www.w3.org/1999/xlink">
    <!-- Generator: Sketch 53.2 (72643) - https://sketchapp.com -->
    <title>usdt</title>
    <desc>Created with Sketch.</desc>
    <g id="usdt" stroke="none" stroke-width="1" fill="none" fill-rule="evenodd">
        <g id="Group-Copy-4" transform="translate(-0.840000, -0.560000)" fill="#8A8A8F" fill-rule="nonzero">
            <path d="M14.31,11.03 L14.31,11.14 L14.309,11.14 L14.309,13.118 C13.834,13.143 13.34,13.158 12.83,13.158 C12.322,13.158 11.831,13.143 11.357,13.119 L11.357,11.14 L11.357,11.03 C8.557,11.176 6.473,11.728 6.473,12.387 C6.473,13.158 9.32,13.783 12.832,13.783 C16.344,13.783 19.191,13.158 19.191,12.387 C19.193,11.727 17.109,11.176 14.31,11.03 Z" id="Shape"></path>
            <path d="M12.833,0.6 C6.205,0.6 0.833,5.972 0.833,12.6 C0.833,19.228 6.206,24.6 12.833,24.6 C19.46,24.6 24.833,19.227 24.833,12.6 C24.833,5.973 19.46,0.6 12.833,0.6 Z M14.31,14.493 L14.31,19.912 L11.358,19.912 L11.358,17.39 L11.358,14.493 C8.035,14.312 5.537,13.534 5.537,12.6 C5.537,11.667 8.036,10.888 11.358,10.707 L11.358,10.404 L11.358,10.082 L11.358,9.216 L7.275,9.216 L7.275,6.496 L18.391,6.496 L18.391,9.216 L14.31,9.216 L14.31,10.707 C17.632,10.888 20.13,11.666 20.13,12.6 C20.13,13.533 17.632,14.312 14.31,14.493 Z" id="Shape"></path>
        </g>
    </g>
</svg>