<?xml version="1.0" encoding="UTF-8"?>
<svg width="24px" height="24px" viewBox="0 0 24 24" version="1.1" xmlns="http://www.w3.org/2000/svg" xmlns:xlink="http://www.w3.org/1999/xlink">
    <!-- Generator: Sketch 53.2 (72643) - https://sketchapp.com -->
    <title>WAX</title>
    <desc>Created with Sketch.</desc>
    <g id="WAX" stroke="none" stroke-width="1" fill="none" fill-rule="evenodd">
        <path d="M12,24 C5.37121771,24 1.77635684e-15,18.6287823 1.77635684e-15,12 C1.77635684e-15,5.37121771 5.37121771,1.77635684e-15 12,1.77635684e-15 C18.6287823,1.77635684e-15 24,5.37121771 24,12 C24,18.6287823 18.6287823,24 12,24 Z M21.1793358,13.7763838 L15.5645756,8.93653137 L13.7845018,8.93653137 L17.2516605,11.9343173 L16.1535055,12.8774908 L13.8730627,10.096679 L12.3675277,10.096679 L9.62656827,13.4309963 L9.3298893,13.7940959 L10.6715867,10.101107 L9.45830258,10.101107 L8.56826568,12.5940959 L7.67822878,10.101107 L6.17712177,10.101107 L5.28708487,12.598524 L4.39261993,10.0878229 L3.17933579,10.0878229 L4.50774908,13.7719557 L6.09741697,13.7719557 L6.93431734,11.4250923 L7.77564576,13.7896679 L9.33431734,13.7896679 L8.4,14.9321033 L9.89667897,14.9321033 L13.1247232,11 L14.0501845,12.1291513 L12.8369004,12.1291513 L12.2125461,12.899631 L14.6833948,12.899631 L15.400738,13.7719557 L16.897417,13.7719557 L18.1505535,12.700369 L19.4081181,13.7763838 L21.1793358,13.7763838 Z M19.4169742,11.5446494 L21.099631,10.1143911 L19.4125461,10.1143911 L18.5800738,10.8273063 L19.4169742,11.5446494 Z" id="Combined-Shape" fill="#8A8A8F" fill-rule="nonzero"></path>
    </g>
</svg>