<?xml version="1.0" encoding="UTF-8"?>
<svg width="24px" height="24px" viewBox="0 0 24 24" version="1.1" xmlns="http://www.w3.org/2000/svg" xmlns:xlink="http://www.w3.org/1999/xlink">
    <!-- Generator: Sketch 53.2 (72643) - https://sketchapp.com -->
    <title>wtc</title>
    <desc>Created with Sketch.</desc>
    <g id="wtc" stroke="none" stroke-width="1" fill="none" fill-rule="evenodd">
        <g fill="#8A8A8F" fill-rule="nonzero" id="Shape">
            <path d="M12,24 C5.37225,24 0,18.62775 0,12 C0,5.37225 5.37225,0 12,0 C18.62775,0 24,5.37225 24,12 C24,18.62775 18.62775,24 12,24 Z M13.8105,9.8745 L13.8105,8.007 C13.8106559,7.96553449 13.8056166,7.92421277 13.7955,7.884 C13.7228172,7.60968689 13.4427795,7.44507694 13.16775,7.515 L10.58175,8.148 C10.3530476,8.20170236 10.1909024,8.40508137 10.1895,8.64 L10.1895,14.30625 C10.1895,14.34825 10.19475,14.38875 10.2045,14.42925 C10.2771828,14.7035631 10.5572205,14.8681731 10.83225,14.79825 L12.5175,14.38575 L12.5175,10.98225 C12.5175,10.51725 12.84,10.11225 13.3005,9.99975 L13.8105,9.8745 L13.8105,9.8745 Z M8.121,9.843 L8.121,8.00625 C8.12084829,7.96500398 8.11555752,7.9239376 8.10525,7.884 C8.03256036,7.61005525 7.75303371,7.44554913 7.47825,7.515 L4.8915,8.148 C4.66309539,8.20199825 4.50131945,8.40530288 4.5,8.64 L4.5,14.30625 C4.5,14.34825 4.50525,14.38875 4.515,14.42925 C4.58768282,14.7035631 4.86772048,14.8681731 5.14275,14.79825 L6.69825,14.41725 L6.69825,10.98225 C6.69825,10.51725 7.02075,10.11225 7.482,9.99975 L8.121,9.843 L8.121,9.843 Z M16.27125,8.16375 C16.0428182,8.21738637 15.8807474,8.42036219 15.879,8.655 L15.879,14.322 C15.8822964,14.4793938 15.9570587,14.6267286 16.082138,14.722326 C16.2072173,14.8179233 16.3690108,14.8513867 16.52175,14.81325 L19.1085,14.18025 C19.3366341,14.126318 19.4983358,13.9234164 19.5,13.689 L19.5,8.022 C19.5001559,7.98053449 19.4951166,7.93921277 19.485,7.899 C19.4119856,7.62499042 19.1320517,7.46077596 18.85725,7.53075 L16.27125,8.16375 Z M9.67275,9.9855 L7.60725,10.491 C7.37911591,10.544932 7.21741416,10.7478336 7.21575,10.98225 L7.21575,16.64925 C7.21575,16.6905 7.221,16.73175 7.23075,16.77225 C7.30376444,17.0462596 7.58369827,17.210474 7.8585,17.1405 L10.4445,16.5075 C10.6726341,16.453568 10.8343358,16.2506664 10.836,16.01625 L10.836,15.31125 C10.3215744,15.3780643 9.83723569,15.0534611 9.7035,14.55225 C9.68301391,14.4718565 9.67268342,14.3892126 9.67275,14.30625 L9.67275,9.9855 L9.67275,9.9855 Z M15.36225,10.017 L13.4265,10.491 C13.1980682,10.5446364 13.0359974,10.7476122 13.03425,10.98225 L13.03425,16.64925 C13.03425,16.6905 13.0395,16.73175 13.04925,16.77225 C13.1222644,17.0462596 13.4021983,17.210474 13.677,17.1405 L16.26375,16.5075 C16.4918841,16.453568 16.6535858,16.2506664 16.65525,16.01625 L16.65525,15.303 L16.64775,15.3045 C16.09275,15.44025 15.53175,15.11025 15.393,14.568 C15.3725139,14.4876065 15.3621834,14.4049626 15.36225,14.322 L15.36225,10.017 L15.36225,10.017 Z"></path>
            <path d="M9.67275,9.9855 L9.67275,14.30625 C9.67275,14.38875 9.6825,14.47125 9.70275,14.55225 C9.83649717,15.0538746 10.3211675,15.3788058 10.836,15.312 L10.836,16.01625 C10.836,16.24875 10.67475,16.45125 10.4445,16.5075 L7.8585,17.1405 C7.58369827,17.210474 7.30376444,17.0462596 7.23075,16.77225 C7.22063337,16.7320372 7.21559414,16.6907155 7.21575,16.64925 L7.21575,10.98225 C7.21575,10.74975 7.377,10.54725 7.60725,10.491 L9.67275,9.9855 L9.67275,9.9855 Z M15.36225,10.017 L15.36225,14.322 C15.36225,14.4045 15.37275,14.487 15.39225,14.568 C15.53175,15.11025 16.0935,15.44025 16.64775,15.3045 L16.65525,15.303 L16.65525,16.0155 C16.6533896,16.2500061 16.491847,16.4530175 16.26375,16.5075 L13.677,17.1405 C13.4024439,17.2100022 13.1230208,17.0458913 13.05,16.77225 C13.0398834,16.7320372 13.0348441,16.6907155 13.035,16.64925 L13.035,10.98225 C13.035,10.74975 13.19625,10.54725 13.4265,10.491 L15.3615,10.017 L15.36225,10.017 Z" opacity="0.5"></path>
        </g>
    </g>
</svg>