<?xml version="1.0" encoding="UTF-8"?>
<svg width="24px" height="24px" viewBox="0 0 24 24" version="1.1" xmlns="http://www.w3.org/2000/svg" xmlns:xlink="http://www.w3.org/1999/xlink">
    <!-- Generator: Sketch 53.2 (72643) - https://sketchapp.com -->
    <title>XRP</title>
    <desc>Created with Sketch.</desc>
    <g id="XRP" stroke="none" stroke-width="1" fill="none" fill-rule="evenodd">
        <path d="M12,0 C5.373,0 0,5.373 0,12 C0,18.628 5.373,24 12,24 C18.628,24 24,18.628 24,12 C24,5.373 18.628,0 12,0 Z M17.331,18.51 L13.531,14.71 C12.686,13.866 11.313,13.865 10.468,14.71 L6.668,18.51 L4.313,18.51 L9.291,13.532 C10.038,12.785 11.019,12.411 12,12.411 C12.981,12.411 13.962,12.785 14.709,13.532 L19.687,18.51 L17.331,18.51 L17.331,18.51 Z M14.709,10.469 C13.962,11.216 12.981,11.59 12,11.59 C11.018,11.59 10.038,11.216 9.291,10.469 L4.313,5.491 L6.668,5.491 L10.468,9.291 C11.312,10.135 12.686,10.136 13.531,9.291 L17.331,5.491 L19.686,5.491 L14.709,10.469 Z" id="Shape" fill="#8A8A8F" fill-rule="nonzero"></path>
    </g>
</svg>