<?xml version="1.0" encoding="UTF-8"?>
<svg width="24px" height="24px" viewBox="0 0 24 24" version="1.1" xmlns="http://www.w3.org/2000/svg" xmlns:xlink="http://www.w3.org/1999/xlink">
    <!-- Generator: Sketch 53.2 (72643) - https://sketchapp.com -->
    <title>zec</title>
    <desc>Created with Sketch.</desc>
    <g id="zec" stroke="none" stroke-width="1" fill="none" fill-rule="evenodd">
        <path d="M23.056,7.324 C22.452,5.897 21.587,4.612 20.485,3.511 C19.383,2.409 18.101,1.544 16.671,0.94 C15.192,0.315 13.615,0 11.998,0 C10.381,0 8.807,0.318 7.328,0.943 C5.9,1.547 4.616,2.412 3.514,3.514 C2.412,4.616 1.547,5.898 0.943,7.328 C0.318,8.807 0,10.378 0,11.998 C0,13.619 0.318,15.189 0.946,16.671 C1.55,18.099 2.415,19.383 3.517,20.485 C4.619,21.587 5.901,22.452 7.331,23.056 C8.81,23.681 10.381,23.999 12.002,23.999 C13.622,23.999 15.193,23.681 16.672,23.051 C18.1,22.447 19.384,21.582 20.486,20.48 C21.588,19.378 22.453,18.097 23.057,16.667 C23.682,15.187 24,13.616 24,11.996 C23.999,10.377 23.681,8.804 23.056,7.324 Z M16.479,14.985 L16.479,17.598 L13.277,17.598 C13.329,18.346 13.358,19.038 13.41,19.784 L10.716,19.784 L10.716,17.624 L7.515,17.624 C7.515,16.77 7.408,15.918 7.567,15.118 C7.648,14.691 8.127,14.318 8.421,13.946 C9.435,12.745 10.448,11.573 11.487,10.372 C11.888,9.919 12.287,9.492 12.74,8.986 L7.754,8.986 L7.754,6.373 L10.713,6.373 L10.713,4.187 L13.3,4.187 L13.3,6.32 L16.528,6.32 C16.528,7.2 16.635,8.052 16.476,8.855 C16.395,9.282 15.916,9.655 15.596,10.027 C14.583,11.228 13.569,12.4 12.53,13.601 C12.134,14.078 11.735,14.502 11.28,14.984 L16.479,14.984 L16.479,14.985 Z" id="Shape" fill="#8A8A8F" fill-rule="nonzero"></path>
    </g>
</svg>