<?xml version="1.0" encoding="UTF-8"?>
<svg width="24px" height="24px" viewBox="0 0 24 24" version="1.1" xmlns="http://www.w3.org/2000/svg" xmlns:xlink="http://www.w3.org/1999/xlink">
    <!-- Generator: Sketch 53.2 (72643) - https://sketchapp.com -->
    <title>zrx</title>
    <desc>Created with Sketch.</desc>
    <g id="zrx" stroke="none" stroke-width="1" fill="none" fill-rule="evenodd">
        <g fill="#8A8A8F" fill-rule="nonzero" id="Shape">
            <path d="M12,24 C5.37225,24 0,18.62775 0,12 C0,5.37225 5.37225,0 12,0 C18.62775,0 24,5.37225 24,12 C24,18.62775 18.62775,24 12,24 Z M11.622,20.25 L12.39075,20.25 C12.42375,20.24325 12.4575,20.235 12.49125,20.2305 C12.7455,20.20275 13.00125,20.18775 13.254,20.148 C15.2565,19.827 16.9185,18.891 18.2565,17.3715 C18.309,17.3115 18.315,17.2725 18.26475,17.2065 C17.68725,16.4415 17.11275,15.67575 16.5375,14.90925 C16.5195,14.88525 16.49775,14.86425 16.4745,14.8365 L16.39425,14.955 C15.8776712,15.7184398 15.1729942,16.3358071 14.34825,16.7475 C14.2695,16.788 14.22075,16.78875 14.15325,16.72125 C13.881,16.44525 13.60125,16.1775 13.3245,15.906 L12.82575,15.42075 C11.16975,16.65825 9.52275,17.88825 7.86825,19.12575 C7.896,19.1445 7.90875,19.15575 7.923,19.16325 C8.87430228,19.7084928 9.92573476,20.0564195 11.0145,20.18625 C11.217,20.21025 11.4195,20.229 11.622,20.25 L11.622,20.25 Z M12.3495,3.75 L11.64225,3.75 C11.60625,3.75675 11.5695,3.765 11.53275,3.7695 C11.2065,3.80775 10.8765,3.82725 10.55475,3.88575 C8.87925,4.1895 7.43475,4.94475 6.2175,6.132 C6.03,6.31425 5.8575,6.5115 5.6715,6.7095 L7.52175,9.17475 L7.59825,9.06225 C8.120037,8.28563421 8.83601433,7.65912173 9.675,7.245 C9.74475,7.20975 9.7875,7.21575 9.84375,7.27125 C10.1955,7.61925 10.551,7.9635 10.905,8.3085 C10.96875,8.37075 11.03325,8.43075 11.1,8.49375 C12.783,7.28625 14.457,6.08625 16.1385,4.87875 C16.11375,4.8615 16.101,4.851 16.086,4.84275 C15.0687573,4.25858419 13.9375888,3.90045757 12.7695,3.79275 C12.6285,3.77925 12.48825,3.76425 12.348,3.75 L12.3495,3.75 Z M4.8435,7.9005 C3.84225,9.7155 3.5115,11.619 3.9195,13.6335 C4.3005,15.516 5.25,17.067 6.7125,18.32625 L9.1575,16.49175 C9.14475,16.46625 9.1425,16.45875 9.138,16.455 L9.06075,16.4025 C8.2842829,15.8806511 7.65821584,15.1643331 7.245,14.325 C7.212,14.25975 7.21425,14.2185 7.26825,14.1645 C7.46025,13.97475 7.647,13.77975 7.83525,13.587 L8.59125,12.8115 L4.845,7.9005 L4.8435,7.9005 Z M15.47475,11.178 L19.167,16.05525 C20.085,14.51325 20.5575,12.32325 20.02725,10.10925 C19.60275,8.3355 18.678,6.86625 17.28525,5.673 L14.826,7.518 C14.87325,7.55175 14.90025,7.572 14.928,7.59075 C15.7151919,8.11556845 16.3492186,8.8396529 16.7655,9.68925 C16.8015,9.76125 16.803,9.807 16.7415,9.86775 C16.54425,10.06275 16.35525,10.26375 16.16325,10.46325 L15.47475,11.178 L15.47475,11.178 Z"></path>
        </g>
    </g>
</svg>