<svg width="750" height="750" viewBox="0 0 750 750" fill="none" xmlns="http://www.w3.org/2000/svg">
<path d="M288.333 635L117.368 635C116.06 635 115 633.94 115 632.633L115 461.667L217.038 461.667C218.294 461.667 219.499 462.166 220.387 463.054L286.947 529.613C287.835 530.501 288.333 531.705 288.333 532.96L288.333 635Z" fill="#05C46B"/>
<path d="M461.667 115H632.632C633.94 115 635 116.06 635 117.367V288.333H532.962C531.706 288.333 530.501 287.834 529.613 286.946L463.053 220.387C462.166 219.499 461.667 218.295 461.667 217.039L461.667 115Z" fill="#05C46B"/>
<path d="M634.999 617.665C634.999 627.238 627.238 634.998 617.665 634.998H461.666V478.999C461.666 469.426 453.906 461.666 444.333 461.666L302.693 461.666C293.498 461.666 284.681 458.013 278.18 451.512L125.154 298.486C118.653 291.985 115 283.168 115 273.973L115 132.333C115 122.76 122.761 115 132.334 115L288.333 115L288.333 270.999C288.333 280.572 296.094 288.333 305.666 288.333L447.307 288.333C456.501 288.333 465.318 291.985 471.82 298.486L624.845 451.512C631.346 458.013 634.999 466.831 634.999 476.025V617.665Z" fill="#05C46B"/>
</svg>
