<svg width="750" height="750" viewBox="0 0 750 750" fill="none" xmlns="http://www.w3.org/2000/svg">
<path d="M215.645 131H534.355C581.103 131 619 168.897 619 215.645V534.355C619 581.103 581.103 619 534.355 619H215.645C168.897 619 131 581.103 131 534.355V215.645C131 168.897 168.897 131 215.645 131Z" stroke="black" stroke-width="32"/>
<path d="M395 370.995C395 382.039 386.048 390.986 375 390.986C363.952 390.986 355 382.039 355 370.995V115H275V370.995C275 426.223 319.768 471 375 471C430.225 471 475 426.223 475 370.995V115H395V370.995Z" fill="#0F1014"/>
</svg>
