<svg width="1500" height="750" viewBox="0 0 1500 750" fill="none" xmlns="http://www.w3.org/2000/svg">
<path d="M622.43 271.298V315.197C622.43 320.791 623.484 324.986 625.591 327.783C627.766 330.58 631.402 331.978 636.499 331.978C641.596 331.978 645.199 330.58 647.305 327.783C649.48 324.986 650.568 320.791 650.568 315.197V271.298H663.821V313.457C663.821 318.71 663.311 323.246 662.292 327.067C661.34 330.887 659.777 334.059 657.602 336.583C655.427 339.107 652.573 340.983 649.039 342.211C645.572 343.371 641.359 343.951 636.397 343.951C631.368 343.951 627.12 343.371 623.654 342.211C620.256 340.983 617.469 339.107 615.294 336.583C613.119 334.059 611.556 330.887 610.605 327.067C609.653 323.246 609.177 318.71 609.177 313.457V271.298H622.43ZM679.259 342.723V289.308H692.308V298.21H692.818C693.905 295.345 695.603 292.957 697.914 291.047C700.292 289.069 703.555 288.08 707.7 288.08C713.206 288.08 717.419 289.887 720.342 293.503C723.264 297.119 724.726 302.269 724.726 308.955V342.723H711.676V310.285C711.676 306.465 710.997 303.599 709.637 301.689C708.278 299.779 706.035 298.824 702.909 298.824C701.55 298.824 700.224 299.029 698.933 299.438C697.71 299.779 696.588 300.325 695.569 301.075C694.619 301.757 693.837 302.644 693.225 303.736C692.614 304.759 692.308 305.987 692.308 307.42V342.723H679.259ZM756.627 343.951C751.529 343.951 747.247 343.098 743.781 341.393C740.315 339.619 737.257 337.197 734.606 334.127L742.558 326.35C744.529 328.602 746.67 330.375 748.981 331.671C751.359 332.968 754.078 333.616 757.136 333.616C760.263 333.616 762.505 333.07 763.865 331.978C765.292 330.887 766.006 329.386 766.006 327.476C766.006 325.907 765.496 324.679 764.476 323.792C763.525 322.837 761.86 322.189 759.481 321.848L754.18 321.132C748.403 320.381 743.985 318.744 740.927 316.22C737.936 313.628 736.441 309.876 736.441 304.964C736.441 302.371 736.917 300.052 737.868 298.005C738.82 295.891 740.179 294.117 741.946 292.684C743.713 291.184 745.82 290.058 748.267 289.308C750.782 288.489 753.568 288.08 756.627 288.08C759.209 288.08 761.486 288.284 763.457 288.694C765.496 289.035 767.331 289.58 768.962 290.331C770.593 291.013 772.088 291.9 773.448 292.991C774.807 294.015 776.132 295.174 777.424 296.471L769.778 304.145C768.214 302.508 766.345 301.144 764.171 300.052C761.996 298.961 759.617 298.415 757.034 298.415C754.18 298.415 752.107 298.926 750.816 299.95C749.592 300.973 748.981 302.303 748.981 303.94C748.981 305.714 749.49 307.079 750.51 308.034C751.597 308.92 753.398 309.569 755.913 309.978L761.316 310.694C772.802 312.331 778.545 317.584 778.545 326.453C778.545 329.045 778.001 331.433 776.914 333.616C775.894 335.73 774.433 337.572 772.53 339.141C770.627 340.642 768.316 341.836 765.598 342.723C762.947 343.541 759.957 343.951 756.627 343.951ZM805.888 342.723C801.402 342.723 797.97 341.563 795.591 339.244C793.281 336.856 792.125 333.479 792.125 329.113V299.745H784.275V289.308H788.353C790.324 289.308 791.65 288.864 792.329 287.977C793.077 287.022 793.451 285.624 793.451 283.782V274.675H805.174V289.308H816.083V299.745H805.174V332.285H815.267V342.723H805.888ZM848.107 343.951C844.301 343.951 840.869 343.303 837.81 342.007C834.82 340.71 832.237 338.834 830.062 336.379C827.955 333.923 826.324 330.989 825.169 327.578C824.013 324.099 823.436 320.211 823.436 315.913C823.436 311.615 824.013 307.761 825.169 304.35C826.324 300.939 827.955 298.04 830.062 295.652C832.237 293.196 834.82 291.32 837.81 290.024C840.869 288.728 844.301 288.08 848.107 288.08C851.913 288.08 855.345 288.728 858.404 290.024C861.462 291.32 864.045 293.196 866.151 295.652C868.326 298.04 869.992 300.939 871.147 304.35C872.302 307.761 872.88 311.615 872.88 315.913C872.88 320.211 872.302 324.099 871.147 327.578C869.992 330.989 868.326 333.923 866.151 336.379C864.045 338.834 861.462 340.71 858.404 342.007C855.345 343.303 851.913 343.951 848.107 343.951ZM848.107 333.411C851.573 333.411 854.292 332.354 856.263 330.239C858.234 328.124 859.219 325.02 859.219 320.927V311.001C859.219 306.976 858.234 303.906 856.263 301.792C854.292 299.677 851.573 298.619 848.107 298.619C844.709 298.619 842.024 299.677 840.053 301.792C838.082 303.906 837.097 306.976 837.097 311.001V320.927C837.097 325.02 838.082 328.124 840.053 330.239C842.024 332.354 844.709 333.411 848.107 333.411ZM884.447 289.308H897.496V298.108H897.904C898.855 295.038 900.656 292.616 903.307 290.842C905.958 289.001 909.05 288.08 912.584 288.08C919.381 288.08 924.546 290.501 928.08 295.345C931.682 300.12 933.483 306.976 933.483 315.913C933.483 324.918 931.682 331.842 928.08 336.685C924.546 341.529 919.381 343.951 912.584 343.951C909.05 343.951 905.958 343.03 903.307 341.188C900.724 339.346 898.923 336.89 897.904 333.82H897.496V363.188H884.447V289.308ZM908.404 333.104C911.802 333.104 914.555 331.978 916.662 329.727C918.769 327.476 919.822 324.44 919.822 320.62V311.41C919.822 307.59 918.769 304.554 916.662 302.303C914.555 299.984 911.802 298.824 908.404 298.824C905.278 298.824 902.661 299.609 900.554 301.178C898.515 302.747 897.496 304.827 897.496 307.42V324.406C897.496 327.203 898.515 329.352 900.554 330.853C902.661 332.354 905.278 333.104 908.404 333.104ZM945.577 289.308H958.626V298.108H959.034C959.985 295.038 961.786 292.616 964.437 290.842C967.087 289.001 970.18 288.08 973.714 288.08C980.51 288.08 985.676 290.501 989.21 295.345C992.812 300.12 994.613 306.976 994.613 315.913C994.613 324.918 992.812 331.842 989.21 336.685C985.676 341.529 980.51 343.951 973.714 343.951C970.18 343.951 967.087 343.03 964.437 341.188C961.854 339.346 960.053 336.89 959.034 333.82H958.626V363.188H945.577V289.308ZM969.534 333.104C972.932 333.104 975.685 331.978 977.792 329.727C979.899 327.476 980.952 324.44 980.952 320.62V311.41C980.952 307.59 979.899 304.554 977.792 302.303C975.685 299.984 972.932 298.824 969.534 298.824C966.408 298.824 963.791 299.609 961.684 301.178C959.645 302.747 958.626 304.827 958.626 307.42V324.406C958.626 327.203 959.645 329.352 961.684 330.853C963.791 332.354 966.408 333.104 969.534 333.104ZM1045.85 342.723C1043 342.723 1040.72 341.904 1039.02 340.267C1037.39 338.562 1036.37 336.31 1035.96 333.513H1035.35C1034.47 336.992 1032.66 339.619 1029.95 341.393C1027.23 343.098 1023.86 343.951 1019.85 343.951C1014.42 343.951 1010.24 342.518 1007.31 339.653C1004.39 336.788 1002.93 332.968 1002.93 328.192C1002.93 322.667 1004.9 318.573 1008.84 315.913C1012.79 313.184 1018.39 311.82 1025.66 311.82H1034.74V307.931C1034.74 304.93 1033.96 302.61 1032.39 300.973C1030.83 299.336 1028.32 298.517 1024.85 298.517C1021.79 298.517 1019.31 299.199 1017.41 300.564C1015.57 301.86 1014.01 303.429 1012.72 305.271L1004.97 298.312C1006.94 295.243 1009.56 292.787 1012.82 290.945C1016.08 289.035 1020.4 288.08 1025.77 288.08C1032.97 288.08 1038.44 289.717 1042.18 292.991C1045.92 296.266 1047.79 300.973 1047.79 307.113V332.285H1053.09V342.723H1045.85ZM1024.24 334.434C1027.16 334.434 1029.64 333.786 1031.68 332.49C1033.72 331.194 1034.74 329.284 1034.74 326.76V319.699H1026.38C1019.58 319.699 1016.18 321.882 1016.18 326.248V327.988C1016.18 330.171 1016.86 331.808 1018.22 332.899C1019.65 333.923 1021.65 334.434 1024.24 334.434ZM1063.65 267H1076.7V298.108H1077.11C1078.06 295.038 1079.86 292.616 1082.51 290.842C1085.16 289.001 1088.26 288.08 1091.79 288.08C1098.59 288.08 1103.75 290.501 1107.29 295.345C1110.89 300.12 1112.69 306.976 1112.69 315.913C1112.69 324.918 1110.89 331.842 1107.29 336.685C1103.75 341.529 1098.59 343.951 1091.79 343.951C1088.26 343.951 1085.16 343.03 1082.51 341.188C1079.93 339.346 1078.13 336.89 1077.11 333.82H1076.7V342.723H1063.65V267ZM1087.61 333.104C1091.01 333.104 1093.76 331.978 1095.87 329.727C1097.97 327.476 1099.03 324.44 1099.03 320.62V311.41C1099.03 307.59 1097.97 304.554 1095.87 302.303C1093.76 299.984 1091.01 298.824 1087.61 298.824C1084.48 298.824 1081.87 299.609 1079.76 301.178C1077.72 302.747 1076.7 304.827 1076.7 307.42V324.406C1076.7 327.203 1077.72 329.352 1079.76 330.853C1081.87 332.354 1084.48 333.104 1087.61 333.104ZM1137.83 342.723C1133.34 342.723 1130.05 341.597 1127.94 339.346C1125.83 337.095 1124.78 333.923 1124.78 329.83V267H1137.83V332.285H1144.86V342.723H1137.83ZM1176.26 343.951C1172.32 343.951 1168.78 343.303 1165.65 342.007C1162.6 340.642 1159.98 338.766 1157.8 336.379C1155.7 333.923 1154.07 330.989 1152.91 327.578C1151.76 324.099 1151.18 320.211 1151.18 315.913C1151.18 311.683 1151.72 307.863 1152.81 304.452C1153.96 301.041 1155.6 298.142 1157.7 295.754C1159.81 293.298 1162.39 291.422 1165.45 290.126C1168.51 288.762 1171.98 288.08 1175.85 288.08C1180 288.08 1183.6 288.796 1186.66 290.228C1189.71 291.661 1192.23 293.605 1194.2 296.061C1196.17 298.517 1197.63 301.382 1198.58 304.657C1199.6 307.863 1200.11 311.308 1200.11 314.992V319.29H1164.74V320.62C1164.74 324.508 1165.82 327.647 1168 330.034C1170.17 332.354 1173.4 333.513 1177.68 333.513C1180.95 333.513 1183.6 332.831 1185.64 331.467C1187.74 330.102 1189.61 328.363 1191.24 326.248L1198.28 334.127C1196.1 337.197 1193.11 339.619 1189.31 341.393C1185.57 343.098 1181.22 343.951 1176.26 343.951ZM1176.05 297.903C1172.59 297.903 1169.83 299.063 1167.8 301.382C1165.76 303.702 1164.74 306.703 1164.74 310.387V311.206H1186.55V310.285C1186.55 306.601 1185.64 303.633 1183.8 301.382C1182.03 299.063 1179.45 297.903 1176.05 297.903ZM620.493 474.897L603.978 403.472H617.435L624.469 437.752L628.853 459.65H629.159L634.256 437.752L642.412 403.472H657.296L665.452 437.752L670.447 459.65H670.753L675.239 437.752L682.477 403.472H695.322L678.297 474.897H663.107L654.034 437.138L649.65 418.309H649.446L644.859 437.138L635.785 474.897H620.493ZM742.299 474.897C739.444 474.897 737.167 474.078 735.468 472.441C733.837 470.735 732.818 468.484 732.41 465.687H731.798C730.915 469.166 729.114 471.793 726.395 473.567C723.676 475.272 720.312 476.125 716.302 476.125C710.865 476.125 706.685 474.692 703.763 471.827C700.84 468.962 699.379 465.141 699.379 460.366C699.379 454.84 701.35 450.747 705.292 448.087C709.234 445.358 714.841 443.994 722.113 443.994H731.187V440.105C731.187 437.104 730.405 434.784 728.842 433.147C727.279 431.51 724.764 430.691 721.298 430.691C718.239 430.691 715.759 431.373 713.856 432.738C712.02 434.034 710.457 435.603 709.166 437.445L701.418 430.486C703.389 427.417 706.006 424.961 709.268 423.119C712.53 421.209 716.846 420.254 722.215 420.254C729.419 420.254 734.891 421.891 738.629 425.165C742.367 428.44 744.236 433.147 744.236 439.287V464.459H749.537V474.897H742.299ZM720.686 466.608C723.608 466.608 726.089 465.96 728.128 464.664C730.167 463.368 731.187 461.458 731.187 458.934V451.873H722.827C716.03 451.873 712.632 454.056 712.632 458.422V460.162C712.632 462.345 713.312 463.982 714.671 465.073C716.098 466.097 718.103 466.608 720.686 466.608ZM773.15 474.897C768.665 474.897 765.368 473.771 763.262 471.52C761.155 469.269 760.101 466.097 760.101 462.003V399.174H773.15V464.459H780.185V474.897H773.15ZM802.418 474.897C797.932 474.897 794.636 473.771 792.529 471.52C790.422 469.269 789.368 466.097 789.368 462.003V399.174H802.418V464.459H809.452V474.897H802.418ZM840.847 476.125C836.905 476.125 833.371 475.477 830.245 474.18C827.187 472.816 824.57 470.94 822.395 468.552C820.288 466.097 818.657 463.163 817.502 459.752C816.346 456.273 815.768 452.385 815.768 448.087C815.768 443.857 816.312 440.037 817.4 436.626C818.555 433.215 820.186 430.316 822.293 427.928C824.4 425.472 826.983 423.596 830.041 422.3C833.099 420.936 836.566 420.254 840.44 420.254C844.585 420.254 848.188 420.97 851.246 422.402C854.304 423.835 856.819 425.779 858.79 428.235C860.761 430.691 862.222 433.556 863.174 436.831C864.193 440.037 864.703 443.482 864.703 447.166V451.464H829.327V452.794C829.327 456.682 830.415 459.82 832.59 462.208C834.765 464.528 837.993 465.687 842.275 465.687C845.537 465.687 848.188 465.005 850.227 463.641C852.333 462.276 854.202 460.537 855.834 458.422L862.868 466.301C860.693 469.371 857.703 471.793 853.897 473.567C850.159 475.272 845.809 476.125 840.847 476.125ZM840.644 430.077C837.177 430.077 834.425 431.237 832.386 433.556C830.347 435.876 829.327 438.877 829.327 442.561V443.38H851.144V442.459C851.144 438.775 850.227 435.807 848.391 433.556C846.624 431.237 844.042 430.077 840.644 430.077ZM892.802 474.897C888.316 474.897 884.884 473.737 882.505 471.418C880.195 469.03 879.039 465.653 879.039 461.287V431.919H871.189V421.481H875.267C877.238 421.481 878.564 421.038 879.243 420.151C879.991 419.196 880.365 417.798 880.365 415.956V406.849H892.088V421.481H902.997V431.919H892.088V464.459H902.181V474.897H892.802Z" fill="white"/>
<path d="M479.677 243H320.323C292.53 243 270 265.53 270 293.323V452.677C270 480.47 292.53 503 320.323 503H479.677C507.47 503 530 480.47 530 452.677V293.323C530 265.53 507.47 243 479.677 243Z" fill="#FFA800"/>
<path d="M479.677 243H320.323C292.53 243 270 265.53 270 293.323V452.677C270 480.47 292.53 503 320.323 503H479.677C507.47 503 530 480.47 530 452.677V293.323C530 265.53 507.47 243 479.677 243Z" fill="url(#paint0_linear)"/>
<path d="M410 370.998C410 376.52 405.524 380.993 400 380.993C394.476 380.993 390 376.52 390 370.998V243H350V370.998C350 398.612 372.384 421 400 421C427.612 421 450 398.612 450 370.998V243H410V370.998Z" fill="#0F1014"/>
<defs>
<linearGradient id="paint0_linear" x1="400" y1="243" x2="400" y2="503" gradientUnits="userSpaceOnUse">
<stop stop-color="#FED20F"/>
<stop offset="1" stop-color="#FED20F" stop-opacity="0"/>
</linearGradient>
</defs>
</svg>
