<svg width="54" height="41" viewBox="0 0 54 41" fill="none" xmlns="http://www.w3.org/2000/svg">
<rect width="54" height="41" rx="12" fill="#FF4040"/>
<path d="M11.25 27H13.9043V23.001H16.3477C19.0195 23.001 20.8037 21.2783 20.8037 18.668V18.6504C20.8037 16.04 19.0195 14.3174 16.3477 14.3174H11.25V27ZM15.6973 16.418C17.2178 16.418 18.1143 17.2178 18.1143 18.6592V18.6768C18.1143 20.1182 17.2178 20.9268 15.6973 20.9268H13.9043V16.418H15.6973ZM22.377 27H27.2197C31.0254 27 33.2666 24.6357 33.2666 20.6104V20.5928C33.2666 16.5762 31.0166 14.3174 27.2197 14.3174H22.377V27ZM25.0312 24.8027V16.5059H26.9033C29.2324 16.5059 30.5596 17.9561 30.5596 20.6016V20.6191C30.5596 23.3613 29.2764 24.8027 26.9033 24.8027H25.0312ZM34.9805 27H37.6348V22.0078H42.7939V19.9072H37.6348V16.5059H43.2861V14.3174H34.9805V27Z" fill="white"/>
</svg>
