<svg width="58" height="41" viewBox="0 0 58 41" fill="none" xmlns="http://www.w3.org/2000/svg">
<rect width="58" height="41" rx="12" fill="#FFA800"/>
<path d="M11.5098 27H14.1641V23.001H16.6074C19.2793 23.001 21.0635 21.2783 21.0635 18.668V18.6504C21.0635 16.04 19.2793 14.3174 16.6074 14.3174H11.5098V27ZM15.957 16.418C17.4775 16.418 18.374 17.2178 18.374 18.6592V18.6768C18.374 20.1182 17.4775 20.9268 15.957 20.9268H14.1641V16.418H15.957ZM22.6367 27H25.2822V18.6943H25.335L31.083 27H33.3857V14.3174H30.7402V22.5615H30.6875L24.957 14.3174H22.6367V27ZM41.2168 27.2197C44.75 27.2197 46.8418 25.1279 46.8418 21.6738V20.2148H41.498V22.1924H44.2578L44.249 22.377C44.1787 23.9414 42.9922 24.9697 41.2607 24.9697C39.1514 24.9697 37.8154 23.3438 37.8154 20.5928V20.584C37.8154 17.8945 39.0723 16.3477 41.1641 16.3477C42.5967 16.3477 43.6074 17.0596 44.0293 18.29L44.0645 18.3779H46.7275L46.7012 18.2549C46.2793 15.873 44.2051 14.0977 41.1553 14.0977C37.4375 14.0977 35.1084 16.5498 35.1084 20.6104V20.6191C35.1084 24.75 37.4287 27.2197 41.2168 27.2197Z" fill="white"/>
</svg>
