<svg width="57" height="41" viewBox="0 0 57 41" fill="none" xmlns="http://www.w3.org/2000/svg">
<rect width="57" height="41" rx="12" fill="#05C46B"/>
<path d="M16.002 27.2197C19.2012 27.2197 21.1172 25.6729 21.1172 23.2383V23.2295C21.1172 21.2344 19.9219 20.1533 17.2676 19.626L15.9229 19.3535C14.4639 19.0635 13.8135 18.5977 13.8135 17.7979V17.7891C13.8135 16.8838 14.6309 16.2598 15.9932 16.251C17.3027 16.251 18.2168 16.8574 18.3486 17.8506L18.3574 17.9561H20.8623L20.8535 17.7891C20.7305 15.5654 18.9287 14.0977 15.9932 14.0977C13.1807 14.0977 11.1592 15.627 11.1592 17.9473V17.9561C11.1592 19.8633 12.4248 21.0586 14.9297 21.5596L16.2656 21.8232C17.8389 22.1484 18.4629 22.5791 18.4629 23.4404V23.4492C18.4629 24.416 17.54 25.0576 16.0723 25.0576C14.6221 25.0576 13.5762 24.4424 13.4092 23.458L13.3916 23.3613H10.8867L10.8955 23.502C11.0449 25.8398 12.9873 27.2197 16.002 27.2197ZM26.0391 27H29.2734L33.5186 14.3174H30.5742L27.6826 24.2842H27.6299L24.7295 14.3174H21.7939L26.0391 27ZM40.3564 27.2197C43.8896 27.2197 45.9814 25.1279 45.9814 21.6738V20.2148H40.6377V22.1924H43.3975L43.3887 22.377C43.3184 23.9414 42.1318 24.9697 40.4004 24.9697C38.291 24.9697 36.9551 23.3438 36.9551 20.5928V20.584C36.9551 17.8945 38.2119 16.3477 40.3037 16.3477C41.7363 16.3477 42.7471 17.0596 43.1689 18.29L43.2041 18.3779H45.8672L45.8408 18.2549C45.4189 15.873 43.3447 14.0977 40.2949 14.0977C36.5771 14.0977 34.248 16.5498 34.248 20.6104V20.6191C34.248 24.75 36.5684 27.2197 40.3564 27.2197Z" fill="white"/>
</svg>
