<svg width="1500" height="750" viewBox="0 0 1500 750" fill="none" xmlns="http://www.w3.org/2000/svg">
<path d="M617.949 266.979H628.49V307.575H629.017C630.687 303.709 633.015 300.634 636.001 298.349C639.076 296.064 643.161 294.922 648.256 294.922C655.284 294.922 660.818 297.207 664.859 301.776C668.988 306.257 671.052 312.628 671.052 320.888V364.516H660.511V322.733C660.511 310.519 655.372 304.412 645.094 304.412C642.985 304.412 640.921 304.676 638.9 305.203C636.968 305.73 635.211 306.521 633.629 307.575C632.048 308.63 630.774 309.992 629.808 311.661C628.93 313.243 628.49 315.132 628.49 317.329V364.516H617.949V266.979Z" fill="white"/>
<path d="M718.537 366.097C713.969 366.097 709.797 365.263 706.019 363.593C702.242 361.924 698.991 359.551 696.268 356.476C693.633 353.312 691.568 349.578 690.075 345.272C688.581 340.878 687.835 335.958 687.835 330.51C687.835 325.15 688.581 320.273 690.075 315.879C691.568 311.486 693.633 307.751 696.268 304.676C698.991 301.512 702.242 299.096 706.019 297.426C709.797 295.757 713.969 294.922 718.537 294.922C723.105 294.922 727.234 295.757 730.924 297.426C734.701 299.096 737.952 301.512 740.675 304.676C743.398 307.751 745.506 311.486 747 315.879C748.493 320.273 749.24 325.15 749.24 330.51C749.24 335.958 748.493 340.878 747 345.272C745.506 349.578 743.398 353.312 740.675 356.476C737.952 359.551 734.701 361.924 730.924 363.593C727.234 365.263 723.105 366.097 718.537 366.097ZM718.537 356.739C724.247 356.739 728.903 354.982 732.505 351.467C736.107 347.952 737.908 342.592 737.908 335.387V325.633C737.908 318.427 736.107 313.067 732.505 309.552C728.903 306.038 724.247 304.28 718.537 304.28C712.827 304.28 708.171 306.038 704.57 309.552C700.968 313.067 699.167 318.427 699.167 325.633V335.387C699.167 342.592 700.968 347.952 704.57 351.467C708.171 354.982 712.827 356.739 718.537 356.739Z" fill="white"/>
<path d="M766.577 364.516V296.504H777.119V309.025H777.778C779.008 305.774 781.204 302.874 784.366 300.326C787.529 297.778 791.877 296.504 797.412 296.504H801.496V307.048H795.303C789.593 307.048 785.113 308.147 781.863 310.343C778.7 312.452 777.119 315.132 777.119 318.384V364.516H766.577Z" fill="white"/>
<path d="M820.233 280.555C817.949 280.555 816.279 280.028 815.225 278.973C814.259 277.831 813.776 276.381 813.776 274.624V272.91C813.776 271.153 814.259 269.747 815.225 268.692C816.279 267.55 817.949 266.979 820.233 266.979C822.517 266.979 824.142 267.55 825.108 268.692C826.162 269.747 826.689 271.153 826.689 272.91V274.624C826.689 276.381 826.162 277.831 825.108 278.973C824.142 280.028 822.517 280.555 820.233 280.555ZM814.962 296.504H825.503V364.516H814.962V296.504Z" fill="white"/>
<path d="M841.052 364.516V355.685L879.661 305.73H842.238V296.504H892.443V304.412L853.044 355.289H893.497V364.516H841.052Z" fill="white"/>
<path d="M933.437 366.097C928.869 366.097 924.696 365.263 920.919 363.593C917.142 361.924 913.891 359.551 911.168 356.476C908.533 353.312 906.468 349.578 904.975 345.272C903.481 340.878 902.735 335.958 902.735 330.51C902.735 325.15 903.481 320.273 904.975 315.879C906.468 311.486 908.533 307.751 911.168 304.676C913.891 301.512 917.142 299.096 920.919 297.426C924.696 295.757 928.869 294.922 933.437 294.922C938.005 294.922 942.134 295.757 945.824 297.426C949.601 299.096 952.852 301.512 955.575 304.676C958.298 307.751 960.406 311.486 961.9 315.879C963.393 320.273 964.14 325.15 964.14 330.51C964.14 335.958 963.393 340.878 961.9 345.272C960.406 349.578 958.298 353.312 955.575 356.476C952.852 359.551 949.601 361.924 945.824 363.593C942.134 365.263 938.005 366.097 933.437 366.097ZM933.437 356.739C939.147 356.739 943.803 354.982 947.405 351.467C951.007 347.952 952.808 342.592 952.808 335.387V325.633C952.808 318.427 951.007 313.067 947.405 309.552C943.803 306.038 939.147 304.28 933.437 304.28C927.727 304.28 923.071 306.038 919.47 309.552C915.868 313.067 914.067 318.427 914.067 325.633V335.387C914.067 342.592 915.868 347.952 919.47 351.467C923.071 354.982 927.727 356.739 933.437 356.739Z" fill="white"/>
<path d="M981.477 364.516V296.504H992.019V307.575H992.546C994.215 303.709 996.543 300.634 999.53 298.349C1002.6 296.064 1006.69 294.922 1011.78 294.922C1018.81 294.922 1024.35 297.207 1028.39 301.776C1032.52 306.257 1034.58 312.628 1034.58 320.888V364.516H1024.04V322.733C1024.04 310.519 1018.9 304.412 1008.62 304.412C1006.51 304.412 1004.45 304.676 1002.43 305.203C1000.5 305.73 998.739 306.521 997.158 307.575C995.577 308.63 994.303 309.992 993.336 311.661C992.458 313.243 992.019 315.132 992.019 317.329V364.516H981.477Z" fill="white"/>
<path d="M1071.39 364.516C1067.7 364.516 1064.89 363.505 1062.96 361.484C1061.11 359.375 1060.19 356.651 1060.19 353.312V305.73H1048.99V296.504H1055.32C1057.6 296.504 1059.14 296.064 1059.93 295.186C1060.81 294.219 1061.25 292.593 1061.25 290.309V277.655H1070.73V296.504H1085.62V305.73H1070.73V355.289H1084.57V364.516H1071.39Z" fill="white"/>
<path d="M1151.98 364.516C1148.03 364.516 1145.17 363.461 1143.42 361.352C1141.75 359.244 1140.69 356.607 1140.25 353.444H1139.6C1138.1 357.662 1135.64 360.825 1132.22 362.934C1128.79 365.043 1124.71 366.097 1119.96 366.097C1112.76 366.097 1107.14 364.252 1103.09 360.562C1099.14 356.871 1097.16 351.862 1097.16 345.536C1097.16 339.121 1099.49 334.2 1104.15 330.773C1108.89 327.346 1116.23 325.633 1126.15 325.633H1139.6V318.911C1139.6 314.078 1138.28 310.387 1135.64 307.839C1133.01 305.291 1128.97 304.017 1123.52 304.017C1119.39 304.017 1115.92 304.939 1113.11 306.785C1110.39 308.63 1108.1 311.09 1106.26 314.166L1099.93 308.234C1101.78 304.544 1104.72 301.424 1108.76 298.876C1112.8 296.24 1117.9 294.922 1124.05 294.922C1132.3 294.922 1138.72 296.943 1143.28 300.985C1147.85 305.027 1150.14 310.651 1150.14 317.856V355.289H1157.91V364.516H1151.98ZM1121.67 357.135C1124.31 357.135 1126.73 356.827 1128.92 356.212C1131.12 355.597 1133.01 354.718 1134.59 353.576C1136.17 352.434 1137.4 351.115 1138.28 349.622C1139.16 348.128 1139.6 346.502 1139.6 344.745V333.541H1125.63C1119.57 333.541 1115.13 334.42 1112.32 336.177C1109.6 337.935 1108.23 340.483 1108.23 343.822V346.59C1108.23 349.929 1109.42 352.521 1111.79 354.367C1114.25 356.212 1117.55 357.135 1121.67 357.135Z" fill="white"/>
<path d="M1184.16 364.516C1180.47 364.516 1177.66 363.505 1175.72 361.484C1173.88 359.375 1172.96 356.739 1172.96 353.576V266.979H1183.5V355.289H1193.51V364.516H1184.16Z" fill="white"/>
<path d="M638.373 475.936C632.048 475.936 626.733 474.75 622.429 472.377C618.212 469.917 614.567 466.666 611.492 462.624L619.003 456.561C621.638 459.9 624.581 462.492 627.832 464.337C631.082 466.095 634.859 466.973 639.164 466.973C643.644 466.973 647.114 466.007 649.574 464.074C652.121 462.14 653.395 459.416 653.395 455.902C653.395 453.265 652.517 451.025 650.76 449.179C649.091 447.246 646.016 445.928 641.536 445.225L636.133 444.434C632.971 443.995 630.072 443.336 627.436 442.457C624.801 441.491 622.473 440.261 620.452 438.767C618.52 437.185 616.982 435.252 615.84 432.967C614.786 430.683 614.259 427.959 614.259 424.795C614.259 421.456 614.874 418.556 616.104 416.096C617.334 413.548 619.003 411.439 621.111 409.769C623.307 408.1 625.899 406.87 628.886 406.079C631.872 405.2 635.079 404.761 638.505 404.761C644.039 404.761 648.651 405.727 652.341 407.66C656.118 409.594 659.413 412.274 662.224 415.701L655.24 422.027C653.746 419.918 651.55 418.029 648.651 416.36C645.752 414.602 642.107 413.724 637.714 413.724C633.322 413.724 629.984 414.69 627.7 416.623C625.504 418.469 624.405 421.017 624.405 424.268C624.405 427.607 625.504 430.024 627.7 431.517C629.984 433.011 633.234 434.11 637.451 434.813L642.722 435.603C650.277 436.746 655.635 438.942 658.798 442.194C661.96 445.357 663.541 449.531 663.541 454.715C663.541 461.306 661.301 466.49 656.821 470.269C652.341 474.047 646.192 475.936 638.373 475.936Z" fill="white"/>
<path d="M721.748 406.342H732.158L701.719 490.171C700.928 492.192 700.138 493.862 699.347 495.18C698.557 496.586 697.59 497.684 696.448 498.475C695.306 499.266 693.857 499.837 692.1 500.189C690.431 500.54 688.366 500.716 685.907 500.716H680.504V491.489H691.177L696.316 476.991L670.885 406.342H681.426L697.766 452.606L700.928 463.678H701.587L705.277 452.606L721.748 406.342Z" fill="white"/>
<path d="M765.512 475.936C759.187 475.936 753.872 474.75 749.567 472.377C745.351 469.917 741.705 466.666 738.63 462.624L746.141 456.561C748.777 459.9 751.72 462.492 754.97 464.337C758.22 466.095 761.998 466.973 766.302 466.973C770.782 466.973 774.252 466.007 776.712 464.074C779.26 462.14 780.534 459.416 780.534 455.902C780.534 453.265 779.655 451.025 777.898 449.179C776.229 447.246 773.154 445.928 768.674 445.225L763.272 444.434C760.109 443.995 757.21 443.336 754.575 442.457C751.939 441.491 749.611 440.261 747.591 438.767C745.658 437.185 744.121 435.252 742.979 432.967C741.925 430.683 741.398 427.959 741.398 424.795C741.398 421.456 742.012 418.556 743.242 416.096C744.472 413.548 746.141 411.439 748.25 409.769C750.446 408.1 753.037 406.87 756.024 406.079C759.011 405.2 762.217 404.761 765.643 404.761C771.178 404.761 775.79 405.727 779.479 407.66C783.257 409.594 786.551 412.274 789.362 415.701L782.378 422.027C780.885 419.918 778.689 418.029 775.79 416.36C772.891 414.602 769.245 413.724 764.853 413.724C760.46 413.724 757.122 414.69 754.838 416.623C752.642 418.469 751.544 421.017 751.544 424.268C751.544 427.607 752.642 430.024 754.838 431.517C757.122 433.011 760.373 434.11 764.589 434.813L769.86 435.603C777.415 436.746 782.774 438.942 785.936 442.194C789.099 445.357 790.68 449.531 790.68 454.715C790.68 461.306 788.44 466.49 783.96 470.269C779.479 474.047 773.33 475.936 765.512 475.936Z" fill="white"/>
<path d="M823.421 474.354C819.731 474.354 816.92 473.344 814.988 471.323C813.143 469.214 812.22 466.49 812.22 463.151V415.569H801.02V406.342H807.345C809.629 406.342 811.166 405.903 811.957 405.024C812.835 404.058 813.275 402.432 813.275 400.147V387.494H822.762V406.342H837.652V415.569H822.762V465.128H836.598V474.354H823.421Z" fill="white"/>
<path d="M879.645 475.936C874.989 475.936 870.772 475.101 866.995 473.432C863.305 471.762 860.099 469.39 857.376 466.314C854.74 463.151 852.676 459.416 851.182 455.111C849.777 450.717 849.074 445.796 849.074 440.348C849.074 434.988 849.777 430.111 851.182 425.718C852.676 421.324 854.74 417.59 857.376 414.514C860.099 411.351 863.305 408.935 866.995 407.265C870.772 405.595 874.989 404.761 879.645 404.761C884.213 404.761 888.298 405.595 891.9 407.265C895.501 408.935 898.576 411.263 901.124 414.251C903.671 417.15 905.604 420.621 906.921 424.663C908.327 428.706 909.03 433.143 909.03 437.976V442.985H860.143V446.148C860.143 449.048 860.582 451.772 861.46 454.32C862.427 456.78 863.745 458.933 865.414 460.778C867.171 462.624 869.279 464.074 871.739 465.128C874.286 466.182 877.141 466.71 880.304 466.71C884.608 466.71 888.342 465.699 891.504 463.678C894.755 461.657 897.258 458.757 899.015 454.979L906.526 460.383C904.33 465.04 900.904 468.819 896.248 471.718C891.592 474.53 886.058 475.936 879.645 475.936ZM879.645 413.592C876.746 413.592 874.11 414.119 871.739 415.173C869.367 416.14 867.302 417.546 865.545 419.391C863.876 421.236 862.559 423.433 861.592 425.982C860.626 428.442 860.143 431.166 860.143 434.154V435.076H897.698V433.626C897.698 427.563 896.028 422.73 892.69 419.128C889.44 415.437 885.091 413.592 879.645 413.592Z" fill="white"/>
<path d="M926.401 474.354V406.342H936.943V417.414H937.47C938.26 415.657 939.139 414.031 940.105 412.537C941.159 410.956 942.389 409.594 943.795 408.451C945.288 407.309 947.001 406.43 948.934 405.815C950.866 405.112 953.15 404.761 955.786 404.761C960.266 404.761 964.395 405.859 968.172 408.056C971.95 410.165 974.761 413.68 976.606 418.6H976.869C978.099 414.91 980.383 411.702 983.721 408.978C987.147 406.167 991.759 404.761 997.557 404.761C1004.5 404.761 1009.9 407.045 1013.77 411.615C1017.72 416.096 1019.69 422.467 1019.69 430.727V474.354H1009.15V432.572C1009.15 426.509 1007.97 421.939 1005.6 418.864C1003.22 415.788 999.446 414.251 994.263 414.251C992.155 414.251 990.134 414.514 988.202 415.042C986.357 415.569 984.688 416.36 983.194 417.414C981.701 418.469 980.515 419.831 979.636 421.5C978.758 423.082 978.319 424.971 978.319 427.168V474.354H967.777V432.572C967.777 426.509 966.591 421.939 964.219 418.864C961.847 415.788 958.158 414.251 953.15 414.251C951.042 414.251 949.022 414.514 947.089 415.042C945.156 415.569 943.443 416.36 941.95 417.414C940.457 418.469 939.227 419.831 938.26 421.5C937.382 423.082 936.943 424.971 936.943 427.168V474.354H926.401Z" fill="white"/>
<path d="M1061.87 475.936C1055.54 475.936 1050.23 474.75 1045.92 472.377C1041.71 469.917 1038.06 466.666 1034.99 462.624L1042.5 456.561C1045.13 459.9 1048.08 462.492 1051.33 464.337C1054.58 466.095 1058.35 466.973 1062.66 466.973C1067.14 466.973 1070.61 466.007 1073.07 464.074C1075.62 462.14 1076.89 459.416 1076.89 455.902C1076.89 453.265 1076.01 451.025 1074.25 449.179C1072.59 447.246 1069.51 445.928 1065.03 445.225L1059.63 444.434C1056.47 443.995 1053.57 443.336 1050.93 442.457C1048.3 441.491 1045.97 440.261 1043.95 438.767C1042.01 437.185 1040.48 435.252 1039.33 432.967C1038.28 430.683 1037.75 427.959 1037.75 424.795C1037.75 421.456 1038.37 418.556 1039.6 416.096C1040.83 413.548 1042.5 411.439 1044.61 409.769C1046.8 408.1 1049.39 406.87 1052.38 406.079C1055.37 405.2 1058.57 404.761 1062 404.761C1067.53 404.761 1072.15 405.727 1075.84 407.66C1079.61 409.594 1082.91 412.274 1085.72 415.701L1078.73 422.027C1077.24 419.918 1075.04 418.029 1072.15 416.36C1069.25 414.602 1065.6 413.724 1061.21 413.724C1056.82 413.724 1053.48 414.69 1051.19 416.623C1049 418.469 1047.9 421.017 1047.9 424.268C1047.9 427.607 1049 430.024 1051.19 431.517C1053.48 433.011 1056.73 434.11 1060.95 434.813L1066.22 435.603C1073.77 436.746 1079.13 438.942 1082.29 442.194C1085.45 445.357 1087.04 449.531 1087.04 454.715C1087.04 461.306 1084.8 466.49 1080.32 470.269C1075.84 474.047 1069.69 475.936 1061.87 475.936Z" fill="white"/>
<path d="M343.207 481.677L271.001 481.677C270.449 481.677 270.001 481.23 270.001 480.677L270.001 408.452L313.096 408.452C313.626 408.452 314.135 408.662 314.51 409.038L342.621 437.156C342.996 437.531 343.207 438.04 343.207 438.57L343.207 481.677Z" fill="#05C46B"/>
<path d="M416.413 262H488.619C489.171 262 489.619 262.448 489.619 263V335.226H446.524C445.994 335.226 445.485 335.015 445.11 334.64L416.999 306.521C416.624 306.146 416.413 305.638 416.413 305.107L416.413 262Z" fill="#05C46B"/>
<path d="M489.619 474.354C489.619 478.398 486.341 481.677 482.298 481.677H416.413V415.774C416.413 411.73 413.135 408.451 409.092 408.451L349.272 408.451C345.389 408.451 341.664 406.908 338.919 404.162L274.289 339.515C271.544 336.769 270.001 333.043 270.001 329.159L270.001 269.323C270.001 265.278 273.279 262 277.322 262L343.207 262L343.207 327.903C343.207 331.947 346.485 335.226 350.528 335.226L410.348 335.226C414.231 335.226 417.955 336.769 420.701 339.515L485.33 404.162C488.076 406.908 489.619 410.633 489.619 414.517V474.354Z" fill="#05C46B"/>
</svg>
